<?xml version="1.0" standalone="no"?>
<!DOCTYPE svg PUBLIC "-//W3C//DTD SVG 1.1//EN" "http://www.w3.org/Graphics/SVG/1.1/DTD/svg11.dtd" >
<svg xmlns="http://www.w3.org/2000/svg" xmlns:xlink="http://www.w3.org/1999/xlink" version="1.1">
<metadata>
Created by FontForge 20230101 at Sat Jun 10 00:05:36 2017
 By Unknown
Copyright (C)2016 Commercial Type.
</metadata>
<defs>
<font id="StyreneB-Regular" horiz-adv-x="650" >
  <font-face 
    font-family="Styrene B Regular"
    font-weight="400"
    font-stretch="normal"
    units-per-em="1000"
    panose-1="0 0 0 0 0 0 0 0 0 0"
    ascent="764"
    descent="-236"
    x-height="494"
    cap-height="710"
    bbox="-99 -325 1379 1199"
    underline-thickness="76"
    underline-position="-152"
    unicode-range="U+0020-FB02"
  />
<missing-glyph horiz-adv-x="500" 
 />
    <glyph glyph-name=".notdef" horiz-adv-x="500" 
 />
    <glyph glyph-name=".null" horiz-adv-x="0" 
 />
    <glyph glyph-name="nonmarkingreturn" horiz-adv-x="333" 
 />
    <glyph glyph-name="space" unicode=" " horiz-adv-x="265" 
 />
    <glyph glyph-name="exclam" unicode="!" horiz-adv-x="336" 
d="M123 232v478h90v-478h-90zM110 0v142h116v-142h-116z" />
    <glyph glyph-name="quotedbl" unicode="&#x22;" horiz-adv-x="469" 
d="M183 405h-81v305h81v-305zM367 405h-81v305h81v-305z" />
    <glyph glyph-name="numbersign" unicode="#" horiz-adv-x="741" 
d="M346 0l56 191h-163l-57 -191h-79l56 191h-129v71h150l58 196h-130v71h151l54 181h80l-54 -181h163l54 181h80l-54 -181h129v-71h-150l-58 -196h130v-71h-151l-57 -191h-79zM260 262h163l58 196h-163z" />
    <glyph glyph-name="dollar" unicode="$" horiz-adv-x="599" 
d="M524 191q0 -76 -48.5 -128t-134.5 -62v-124h-78v123q-89 10 -138.5 66.5t-49.5 140.5v6h94v-4q0 -60 36 -93.5t94 -33.5q62 0 96 30t34 79q0 83 -103 114l-73 22q-86 25 -127 72.5t-41 129.5q0 75 49.5 124.5t128.5 59.5v116h78v-117q81 -10 125.5 -62.5t44.5 -135.5v-3
h-92v3q0 53 -32 85t-88 32q-55 0 -87.5 -27.5t-32.5 -74.5q0 -82 103 -113l73 -22q85 -26 127 -73.5t42 -129.5z" />
    <glyph glyph-name="percent" unicode="%" horiz-adv-x="1014" 
d="M252 356q-77 0 -129.5 52.5t-52.5 130.5t52.5 130.5t129.5 52.5t129.5 -52.5t52.5 -130.5t-52.5 -130.5t-129.5 -52.5zM208 0l502 710h95l-503 -710h-94zM252 430q45 0 74 31t29 78t-29 78t-74 31t-74 -31t-29 -78t29 -78t74 -31zM762 -14q-77 0 -129.5 52.5t-52.5 130.5
t52.5 130.5t129.5 52.5t129.5 -52.5t52.5 -130.5t-52.5 -130.5t-129.5 -52.5zM762 60q45 0 74 31t29 78t-29 78t-74 31t-74 -31t-29 -78t29 -78t74 -31z" />
    <glyph glyph-name="ampersand" unicode="&#x26;" horiz-adv-x="780" 
d="M634 0l-123 119q-59 -66 -112 -98.5t-127 -32.5q-96 0 -155 50t-59 134q0 72 45 122t126 97q-44 45 -67 84.5t-23 83.5q0 70 52 116.5t133 46.5q83 0 132.5 -44.5t49.5 -117.5q0 -57 -37.5 -99t-99.5 -83l139 -138l135 154h109l-185 -212l183 -182h-116zM234 560
q0 -32 20.5 -60.5t62.5 -69.5q48 34 72.5 64t24.5 66q0 39 -25 62t-65 23q-39 0 -64.5 -23.5t-25.5 -61.5zM154 175q0 -46 32.5 -74.5t85.5 -28.5q48 0 89 25t91 79l-166 160q-33 -21 -50.5 -34t-39.5 -34t-32 -44t-10 -49z" />
    <glyph glyph-name="quotesingle" unicode="'" horiz-adv-x="287" 
d="M185 405h-83v305h83v-305z" />
    <glyph glyph-name="parenleft" unicode="(" horiz-adv-x="356" 
d="M292 822q-33 -62 -55 -113.5t-44 -151.5t-22 -207t22 -207t44.5 -153t54.5 -114h-83q-119 228 -119 474q0 244 119 472h83z" />
    <glyph glyph-name="parenright" unicode=")" horiz-adv-x="356" 
d="M64 -124q32 61 54.5 114t44.5 153t22 207t-22 207t-44 151.5t-55 113.5h83q119 -228 119 -472q0 -246 -119 -474h-83z" />
    <glyph glyph-name="asterisk" unicode="*" horiz-adv-x="479" 
d="M388 407l-52 -38l-96 124l-96 -124l-52 38l97 124l-141 47l21 61l136 -45v142h68v-143l137 46l21 -61l-140 -47z" />
    <glyph glyph-name="plus" unicode="+" horiz-adv-x="686" 
d="M602 276h-218v-226h-82v226h-218v78h218v226h82v-226h218v-78z" />
    <glyph glyph-name="comma" unicode="," horiz-adv-x="292" 
d="M140 -214h-74q74 123 76 214h-54v142h116v-134q0 -115 -64 -222z" />
    <glyph glyph-name="hyphen" unicode="-" horiz-adv-x="496" 
d="M84 252v86h328v-86h-328z" />
    <glyph glyph-name="period" unicode="." horiz-adv-x="292" 
d="M88 0v142h116v-142h-116z" />
    <glyph glyph-name="slash" unicode="/" horiz-adv-x="414" 
d="M36 -70l254 830h82l-254 -830h-82z" />
    <glyph glyph-name="zero" unicode="0" horiz-adv-x="692" 
d="M346 722q114 0 181 -69t67 -190v-216q0 -125 -67.5 -192t-180.5 -67t-180.5 67t-67.5 192v216q0 121 67 190t181 69zM346 76q73 0 112.5 47.5t39.5 124.5v214q0 77 -39.5 124.5t-112.5 47.5t-112.5 -47.5t-39.5 -124.5v-214q0 -77 39.5 -124.5t112.5 -47.5z" />
    <glyph glyph-name="one" unicode="1" horiz-adv-x="445" 
d="M323 713v-713h-97v600l-176 -102v92l201 123h72z" />
    <glyph glyph-name="two" unicode="2" horiz-adv-x="618" 
d="M574 88v-88h-499v60l240 237q65 65 93 108.5t28 97.5q0 59 -35.5 95t-96.5 36t-96.5 -38.5t-35.5 -100.5v-46h-95v47q0 99 61.5 162.5t165.5 63.5q105 0 167 -61.5t62 -157.5q0 -53 -23 -102.5t-50.5 -81t-81.5 -84.5l-150 -147h346z" />
    <glyph glyph-name="three" unicode="3" horiz-adv-x="642" 
d="M570 194q0 -93 -67.5 -149.5t-185.5 -56.5q-117 0 -180.5 59t-71.5 141h97q9 -47 48.5 -79.5t106.5 -32.5q71 0 113 33t42 91q0 59 -38 91t-107 32h-125v88h128q57 0 89 29t32 83q0 52 -37.5 82t-98.5 30q-60 0 -93.5 -29.5t-41.5 -77.5h-96q4 77 63.5 135.5t166.5 58.5
q109 0 171 -54t62 -141q0 -60 -30 -98.5t-69 -55.5q48 -14 85 -58.5t37 -120.5z" />
    <glyph glyph-name="four" unicode="4" horiz-adv-x="688" 
d="M650 219h-151v-219h-94v219h-360v53l348 438h106v-407h151v-84zM173 303h232v295z" />
    <glyph glyph-name="five" unicode="5" horiz-adv-x="651" 
d="M114 314v396h436v-88h-344v-206q52 52 144 52q96 0 161.5 -63t65.5 -171v-11q0 -104 -68.5 -169.5t-180.5 -65.5q-115 0 -178.5 60t-70.5 148h95q7 -46 43.5 -83t110.5 -37q68 0 110.5 41t42.5 106v10q0 67 -42 107t-111 40q-89 0 -134 -66h-80z" />
    <glyph glyph-name="six" unicode="6" horiz-adv-x="654" 
d="M582 230q0 -105 -69 -173.5t-187 -68.5q-119 0 -186.5 67t-67.5 175q0 73 28.5 130t86.5 133l166 217h115l-207 -263q39 21 94 21q100 0 163.5 -65t63.5 -173zM485 230q0 69 -41.5 112.5t-117.5 43.5q-71 0 -114 -44t-43 -112q0 -66 42 -110t115 -44q75 0 117 44t42 110z
" />
    <glyph glyph-name="seven" unicode="7" horiz-adv-x="618" 
d="M563 637l-352 -637h-106l348 622h-388v88h498v-73z" />
    <glyph glyph-name="eight" unicode="8" horiz-adv-x="670" 
d="M590 192q0 -91 -66 -147.5t-178 -56.5h-27q-109 0 -174 56.5t-65 147.5q0 70 38.5 114.5t88.5 59.5q-45 13 -79 54t-34 106q0 87 60.5 141.5t167.5 54.5h26q108 0 168 -54.5t60 -141.5q0 -65 -34 -106t-79 -54q50 -15 88.5 -59.5t38.5 -114.5zM322 636q-59 0 -95.5 -31
t-36.5 -83t36.5 -83t95.5 -31h26q59 0 95.5 31t36.5 83t-36.5 83t-95.5 31h-26zM320 322q-63 0 -102.5 -34t-39.5 -90t39.5 -90t102.5 -34h30q64 0 103 34t39 90t-39 90t-103 34h-30z" />
    <glyph glyph-name="nine" unicode="9" horiz-adv-x="654" 
d="M467 217l-166 -217h-115l207 263q-39 -21 -94 -21q-100 0 -163.5 65t-63.5 173q0 105 69 173.5t187 68.5q119 0 186.5 -67t67.5 -175q0 -73 -28.5 -130t-86.5 -133zM169 480q0 -69 41.5 -112.5t117.5 -43.5q71 0 114 44t43 112q0 66 -42 110t-115 44q-75 0 -117 -44
t-42 -110z" />
    <glyph glyph-name="colon" unicode=":" horiz-adv-x="302" 
d="M93 0v142h116v-142h-116zM93 343v142h116v-142h-116z" />
    <glyph glyph-name="semicolon" unicode=";" horiz-adv-x="302" 
d="M93 343v142h116v-142h-116zM145 -214h-74q74 123 76 214h-54v142h116v-134q0 -115 -64 -222z" />
    <glyph glyph-name="less" unicode="&#x3c;" horiz-adv-x="639" 
d="M545 147v-87l-461 201v69l461 201v-89l-352 -148z" />
    <glyph glyph-name="equal" unicode="=" horiz-adv-x="704" 
d="M616 370h-528v77h528v-77zM616 166h-528v77h528v-77z" />
    <glyph glyph-name="greater" unicode="&#x3e;" horiz-adv-x="639" 
d="M555 261l-461 -201v89l352 148l-352 147v87l461 -201v-69z" />
    <glyph glyph-name="question" unicode="?" horiz-adv-x="544" 
d="M257 232h-92v8q0 46 14.5 70t61.5 57l72 50q79 56 79 120q0 47 -30 75t-82 28t-82.5 -33t-30.5 -85v-32h-89v35q0 90 54.5 143.5t147.5 53.5q96 0 150.5 -50t54.5 -135q0 -62 -29.5 -105t-92.5 -85l-72 -49q-34 -24 -34 -66zM153 0v142h116v-142h-116z" />
    <glyph glyph-name="at" unicode="@" horiz-adv-x="1030" 
d="M929 -8q-20 -28 -49.5 -54.5t-76 -54.5t-114.5 -45t-146 -17q-147 0 -256 62t-163.5 165t-54.5 232q0 203 131.5 335.5t333.5 132.5q103 0 186 -32t135 -86t79 -123t27 -146q0 -128 -63.5 -212t-165.5 -84q-52 0 -82.5 19.5t-37.5 50.5q-40 -70 -125 -70q-81 0 -131.5 56
t-50.5 154q0 97 56 163t147 66q51 0 83.5 -24t45.5 -56l14 75h84l-51 -288q-13 -74 50 -74q58 0 102 59t44 166q0 140 -91.5 227t-254.5 87q-168 0 -275.5 -110t-107.5 -288q0 -171 107 -277.5t285 -106.5q75 0 141 20t92.5 36.5t58.5 41.5h94zM515 422q-53 0 -85.5 -42
t-32.5 -107q0 -58 26 -92t74 -34q53 0 85.5 42t32.5 107q0 58 -26 92t-74 34z" />
    <glyph glyph-name="A" unicode="A" horiz-adv-x="744" 
d="M609 0l-70 171h-340l-70 -171h-96l296 714h86l296 -714h-102zM236 259h266l-133 324z" />
    <glyph glyph-name="B" unicode="B" horiz-adv-x="752" 
d="M110 0v710h346q100 0 154 -50.5t54 -140.5q0 -54 -33 -93.5t-79 -53.5q55 -14 91.5 -58.5t36.5 -109.5q0 -96 -63 -150t-184 -54h-323zM451 621h-245v-210h246q53 0 82.5 27.5t29.5 77.5q0 105 -113 105zM430 322h-224v-233h224q151 0 151 117q0 116 -151 116z" />
    <glyph glyph-name="C" unicode="C" horiz-adv-x="730" 
d="M381 -12q-139 0 -224 105t-85 262t85 262t224 105q68 0 123.5 -22t88 -56.5t50.5 -70t23 -70.5h-96q-18 46 -64 87t-125 41q-98 0 -152.5 -79.5t-54.5 -196.5t54.5 -196.5t152.5 -79.5q43 0 78.5 14t57.5 35.5t35 41.5t20 39h94q-5 -34 -23 -69.5t-50.5 -71t-88 -58
t-123.5 -22.5z" />
    <glyph glyph-name="D" unicode="D" horiz-adv-x="779" 
d="M110 0v710h237q166 0 264 -96.5t98 -258.5q0 -160 -98 -257.5t-264 -97.5h-237zM347 621h-140v-532h140q121 0 191.5 72t70.5 194q0 125 -70 195.5t-192 70.5z" />
    <glyph glyph-name="E" unicode="E" horiz-adv-x="700" 
d="M110 0v710h510v-90h-414v-198h244v-90h-244v-242h451v-90h-547z" />
    <glyph glyph-name="F" unicode="F" horiz-adv-x="687" 
d="M110 0v710h539v-91h-442v-197h255v-91h-255v-331h-97z" />
    <glyph glyph-name="G" unicode="G" horiz-adv-x="777" 
d="M688 83q-99 -95 -273 -95q-155 0 -249 103t-94 265q0 158 91 262t233 104q66 0 120 -20t86 -50.5t49.5 -59t24.5 -53.5h-100q-59 93 -180 93q-103 0 -163.5 -78t-60.5 -198q0 -126 65.5 -202t177.5 -76q118 0 181 45v188h-234v87h326v-315z" />
    <glyph glyph-name="H" unicode="H" horiz-adv-x="807" 
d="M600 0v313h-393v-313h-97v710h97v-307h393v307h97v-710h-97z" />
    <glyph glyph-name="I" unicode="I" horiz-adv-x="319" 
d="M111 0v710h97v-710h-97z" />
    <glyph glyph-name="J" unicode="J" horiz-adv-x="637" 
d="M530 216q0 -110 -60.5 -168.5t-161.5 -58.5q-99 0 -159 58.5t-60 168.5v196h96v-196q0 -63 32.5 -99t90.5 -36q60 0 92.5 36t32.5 99v494h97v-494z" />
    <glyph glyph-name="K" unicode="K" horiz-adv-x="722" 
d="M577 0l-370 329v-329h-97v710h97v-326l353 326h133l-379 -348l399 -362h-136z" />
    <glyph glyph-name="L" unicode="L" horiz-adv-x="675" 
d="M637 91v-91h-527v710h97v-619h430z" />
    <glyph glyph-name="M" unicode="M" horiz-adv-x="951" 
d="M259 710l219 -566l218 566h145v-710h-92v618l-242 -622h-67l-240 616v-612h-90v710h149z" />
    <glyph glyph-name="N" unicode="N" horiz-adv-x="813" 
d="M703 710v-715h-73l-427 591v-586h-93v710h116l384 -538v538h93z" />
    <glyph glyph-name="O" unicode="O" horiz-adv-x="782" 
d="M391 -12q-145 0 -232 103t-87 264q0 160 87.5 263.5t231.5 103.5q143 0 231 -104t88 -263t-88 -263t-231 -104zM391 78q103 0 161 78t58 199q0 119 -58.5 198t-160.5 79t-160.5 -78.5t-58.5 -198.5q0 -122 58 -199.5t161 -77.5z" />
    <glyph glyph-name="P" unicode="P" horiz-adv-x="723" 
d="M110 0v710h317q115 0 175.5 -52t60.5 -147q0 -93 -61 -148t-175 -55h-220v-308h-97zM430 620h-223v-222h223q65 0 99 30.5t34 80.5q0 53 -33.5 82t-99.5 29z" />
    <glyph glyph-name="Q" unicode="Q" horiz-adv-x="782" 
d="M710 355q0 -119 -50.5 -209.5t-139.5 -130.5l168 -167h-128l-146 141q-7 -1 -23 -1q-145 0 -232 103t-87 264q0 160 87.5 263.5t231.5 103.5q143 0 231 -104t88 -263zM391 78q103 0 161 78t58 199q0 119 -58.5 198t-160.5 79t-160.5 -78.5t-58.5 -198.5q0 -122 58 -199.5
t161 -77.5z" />
    <glyph glyph-name="R" unicode="R" horiz-adv-x="751" 
d="M110 0v710h320q113 0 173 -50.5t60 -144.5q0 -154 -154 -187l187 -328h-105l-186 320h-198v-320h-97zM429 620h-222v-211h222q134 0 134 106q0 105 -134 105z" />
    <glyph glyph-name="S" unicode="S" horiz-adv-x="705" 
d="M330 633q-73 0 -114.5 -29t-41.5 -77q0 -47 35.5 -71t99.5 -34l94 -14q49 -7 86.5 -20t72.5 -35.5t53.5 -60.5t18.5 -90q0 -93 -71 -154t-192 -61q-72 0 -130.5 18.5t-95.5 50t-60 67t-33 75.5h103q18 -47 70.5 -84.5t145.5 -37.5q75 0 120.5 33t45.5 88t-37.5 81
t-104.5 36l-94 14q-106 16 -165 61.5t-59 137.5q0 89 71 142t182 53q127 0 198.5 -54.5t89.5 -129.5h-100q-52 95 -188 95z" />
    <glyph glyph-name="T" unicode="T" horiz-adv-x="723" 
d="M40 620v90h643v-90h-273v-620h-97v620h-273z" />
    <glyph glyph-name="U" unicode="U" horiz-adv-x="794" 
d="M397 81q91 0 142 55.5t51 145.5v428h97v-436q0 -122 -76.5 -204t-213.5 -82q-141 0 -215.5 80.5t-74.5 205.5v436h97v-428q0 -91 50 -146t143 -55z" />
    <glyph glyph-name="V" unicode="V" horiz-adv-x="739" 
d="M701 710l-283 -713h-93l-287 713h107l229 -584l228 584h99z" />
    <glyph glyph-name="W" unicode="W" horiz-adv-x="1040" 
d="M700 -4l-177 558l-177 -558h-81l-222 714h102l166 -550l171 554h87l174 -560l163 556h91l-211 -714h-86z" />
    <glyph glyph-name="X" unicode="X" horiz-adv-x="785" 
d="M630 0l-240 299l-239 -299h-117l297 373l-271 337h127l206 -259l207 259h118l-266 -333l299 -377h-121z" />
    <glyph glyph-name="Y" unicode="Y" horiz-adv-x="685" 
d="M394 286v-286h-97v285l-282 425h120l213 -327l213 327h109z" />
    <glyph glyph-name="Z" unicode="Z" horiz-adv-x="709" 
d="M664 90v-90h-609v57l424 563h-415v90h557v-57l-428 -563h471z" />
    <glyph glyph-name="bracketleft" unicode="[" horiz-adv-x="381" 
d="M110 -124v946h246v-68h-168v-810h168v-68h-246z" />
    <glyph glyph-name="backslash" unicode="\" horiz-adv-x="414" 
d="M378 -70h-81l-255 830h82z" />
    <glyph glyph-name="bracketright" unicode="]" horiz-adv-x="381" 
d="M25 754v68h246v-946h-246v68h168v810h-168z" />
    <glyph glyph-name="asciicircum" unicode="^" horiz-adv-x="585" 
d="M442 263l-151 333l-152 -333h-89l205 453h73l207 -453h-93z" />
    <glyph glyph-name="underscore" unicode="_" horiz-adv-x="624" 
d="M44 -152v76h536v-76h-536z" />
    <glyph glyph-name="grave" unicode="`" horiz-adv-x="600" 
d="M399 579h-93l-105 183h100z" />
    <glyph glyph-name="a" unicode="a" horiz-adv-x="601" 
d="M418 81q-8 -19 -22 -37.5t-48 -37t-77 -18.5q-91 0 -150 69.5t-59 188.5t59 189t150 70q102 0 147 -93v82h91v-494h-91v81zM420 246q0 77 -35.5 126t-96.5 49q-63 0 -97.5 -49t-34.5 -126q0 -76 35 -125.5t97 -49.5q61 0 96.5 49.5t35.5 125.5z" />
    <glyph glyph-name="b" unicode="b" horiz-adv-x="611" 
d="M182 77v-77h-90v736h90v-323q9 19 23 36.5t50 37.5t81 20q91 0 152 -70.5t61 -189.5t-61 -189t-152 -70q-34 0 -63 10t-47 26.5t-28 28.5t-16 24zM180 247q0 -76 37 -126t101 -50q62 0 100 50t38 126q0 77 -37.5 126.5t-100.5 49.5q-64 0 -101 -49.5t-37 -126.5z" />
    <glyph glyph-name="c" unicode="c" horiz-adv-x="542" 
d="M404 347q-34 76 -119 76q-58 0 -94.5 -50t-36.5 -126t36.5 -126t95.5 -50q81 0 119 76h88q-2 -13 -8 -29t-22 -40.5t-37.5 -43t-58 -32.5t-81.5 -14q-97 0 -161.5 73.5t-64.5 185.5t64 186t161 74q45 0 81.5 -13.5t58 -32t37.5 -42.5t22 -41t9 -31h-89z" />
    <glyph glyph-name="d" unicode="d" horiz-adv-x="613" 
d="M430 84q-8 -19 -23 -38.5t-50 -38.5t-80 -19q-92 0 -153.5 70t-61.5 189t61.5 189.5t153.5 70.5q34 0 62.5 -10.5t46.5 -27.5t28 -30t16 -26v323h91v-736h-91v84zM432 247q0 77 -38 126.5t-101 49.5t-100 -49.5t-37 -126.5q0 -76 37 -126t100 -50t101 50t38 126z" />
    <glyph glyph-name="e" unicode="e" horiz-adv-x="566" 
d="M285 507q101 0 162.5 -71t61.5 -188v-14h-357q4 -71 41 -117t101 -46q87 0 125 61h87q-5 -20 -16.5 -40.5t-34.5 -46t-65 -41.5t-96 -16q-106 0 -170 74t-64 185q0 115 61.5 187.5t163.5 72.5zM285 429q-54 0 -87 -32.5t-43 -90.5h258q-24 123 -128 123z" />
    <glyph glyph-name="f" unicode="f" horiz-adv-x="452" 
d="M421 412h-170v-412h-91v412h-129v82h129v78q0 164 175 164h167v-82h-157q-94 0 -94 -95v-65h170v-82z" />
    <glyph glyph-name="g" unicode="g" horiz-adv-x="607" 
d="M424 78q-6 -12 -15.5 -23.5t-27.5 -29t-45.5 -28t-60.5 -10.5q-90 0 -151.5 70.5t-61.5 188.5q0 119 61.5 189.5t151.5 70.5q33 0 60.5 -10.5t45 -27.5t27.5 -30t16 -26v82h91v-483q0 -110 -58 -173.5t-171 -63.5q-46 0 -84.5 11.5t-61.5 27.5t-40 36t-24 36t-9 28h96
q35 -56 123 -56q138 0 138 154v67zM426 246q0 76 -37 126t-97 50q-61 0 -98.5 -50t-37.5 -126q0 -75 37.5 -125t98.5 -50q60 0 97 50t37 125z" />
    <glyph glyph-name="h" unicode="h" horiz-adv-x="609" 
d="M183 272v-272h-91v736h91v-329q16 39 54 68.5t94 29.5q86 0 138 -58t52 -158v-289h-92v272q0 72 -32 110.5t-88 38.5q-59 0 -92.5 -39t-33.5 -110z" />
    <glyph glyph-name="i" unicode="i" horiz-adv-x="277" 
d="M91 589v143h95v-143h-95zM93 0v494h91v-494h-91z" />
    <glyph glyph-name="j" unicode="j" horiz-adv-x="278" 
d="M92 589v143h95v-143h-95zM185 -48q0 -166 -163 -166h-121v85h106q87 0 87 91v532h91v-542z" />
    <glyph glyph-name="k" unicode="k" horiz-adv-x="556" 
d="M428 0l-248 232v-232h-88v736h88v-454l233 212h125l-260 -233l273 -261h-123z" />
    <glyph glyph-name="l" unicode="l" horiz-adv-x="279" 
d="M94 0v736h91v-736h-91z" />
    <glyph glyph-name="m" unicode="m" horiz-adv-x="935" 
d="M183 284v-284h-91v494h91v-77q16 35 51.5 61.5t90.5 26.5q122 0 170 -105q47 105 159 105q90 0 141.5 -57t51.5 -147v-301h-92v284q0 63 -30.5 100t-88.5 37q-57 0 -89 -38t-32 -99v-284h-92v284q0 63 -31.5 100t-88.5 37t-88.5 -38t-31.5 -99z" />
    <glyph glyph-name="n" unicode="n" horiz-adv-x="609" 
d="M183 277v-277h-91v494h91v-83q16 37 54 65.5t94 28.5q86 0 138 -56.5t52 -154.5v-294h-92v277q0 70 -32 107t-88 37q-59 0 -92.5 -37.5t-33.5 -106.5z" />
    <glyph glyph-name="o" unicode="o" horiz-adv-x="584" 
d="M292 506q104 0 168 -73.5t64 -185.5t-64 -185.5t-168 -73.5t-168 73.5t-64 185.5t64 185.5t168 73.5zM292 72q65 0 101.5 49.5t36.5 125.5t-36.5 125.5t-101.5 49.5t-101.5 -49.5t-36.5 -125.5t36 -125.5t102 -49.5z" />
    <glyph glyph-name="p" unicode="p" horiz-adv-x="611" 
d="M182 77v-291h-90v708h90v-81q6 13 16 26t28 30t47 27.5t63 10.5q91 0 152 -70.5t61 -189.5t-61 -189t-152 -70q-44 0 -80 19t-50.5 36t-23.5 34zM180 247q0 -76 37.5 -126t100.5 -50q62 0 100 50t38 126q0 77 -37.5 126.5t-100.5 49.5t-100.5 -49.5t-37.5 -126.5z" />
    <glyph glyph-name="q" unicode="q" horiz-adv-x="613" 
d="M430 82q-13 -33 -51.5 -63.5t-100.5 -30.5q-92 0 -154 70t-62 189t62 189.5t154 70.5q34 0 62 -10.5t46 -27.5t28 -30t16 -26v81h91v-708h-91v296zM432 247q0 77 -37.5 126.5t-100.5 49.5q-64 0 -101 -49.5t-37 -126.5q0 -76 37 -126t101 -50q62 0 100 50t38 126z" />
    <glyph glyph-name="r" unicode="r" horiz-adv-x="479" 
d="M183 279v-279h-91v494h91v-89q14 36 54 64.5t114 28.5h95v-91h-103q-84 0 -122 -31t-38 -97z" />
    <glyph glyph-name="s" unicode="s" horiz-adv-x="539" 
d="M302 205l-71 8q-76 9 -120.5 45.5t-44.5 102.5t53 106.5t137 40.5q46 0 83 -10.5t59.5 -24.5t39 -34t23.5 -34.5t12 -29.5h-90q-6 9 -17 19.5t-41.5 22.5t-68.5 12q-48 0 -74.5 -18t-26.5 -46q0 -55 88 -65l69 -8q169 -20 169 -155q0 -67 -51.5 -109t-143.5 -42
q-59 0 -105.5 16.5t-72 41t-39 47.5t-17.5 42h93q36 -66 141 -66q51 0 77.5 18t26.5 48q0 32 -20 49.5t-68 22.5z" />
    <glyph glyph-name="t" unicode="t" horiz-adv-x="480" 
d="M430 84v-84h-106q-164 0 -164 161v251h-129v82h129v216h91v-216h179v-82h-179v-232q0 -52 21 -74t75 -22h83z" />
    <glyph glyph-name="u" unicode="u" horiz-adv-x="598" 
d="M300 -10q-102 0 -157 56t-55 150v298h92v-293q0 -57 31 -91t89 -34q57 0 88.5 34t31.5 91v293h90v-298q0 -89 -56 -147.5t-154 -58.5z" />
    <glyph glyph-name="v" unicode="v" horiz-adv-x="534" 
d="M509 494l-199 -503h-81l-204 503h102l144 -373l144 373h94z" />
    <glyph glyph-name="w" unicode="w" horiz-adv-x="809" 
d="M533 -4l-127 375l-127 -375h-81l-170 498h98l119 -365l123 369h84l122 -364l117 360h90l-168 -498h-80z" />
    <glyph glyph-name="x" unicode="x" horiz-adv-x="552" 
d="M417 0l-142 178l-144 -178h-107l197 246l-198 248h118l138 -176l141 176h109l-196 -244l196 -250h-112z" />
    <glyph glyph-name="y" unicode="y" horiz-adv-x="535" 
d="M510 494l-283 -708h-91l88 222l-199 486h100l146 -367l146 367h93z" />
    <glyph glyph-name="z" unicode="z" horiz-adv-x="559" 
d="M515 82v-82h-459v53l289 359h-285v82h423v-52l-295 -360h327z" />
    <glyph glyph-name="braceleft" unicode="{" horiz-adv-x="401" 
d="M376 -56v-68h-107q-80 0 -118.5 40t-28.5 119l25 193q12 86 -80 86h-23v70h23q91 0 80 86l-25 193q-10 79 28.5 119t118.5 40h107v-68h-89q-100 0 -88 -88l25 -189q8 -57 -15 -88.5t-66 -39.5q43 -8 66 -39.5t15 -88.5l-25 -189q-12 -88 88 -88h89z" />
    <glyph glyph-name="bar" unicode="|" horiz-adv-x="323" 
d="M120 -116v938h83v-938h-83z" />
    <glyph glyph-name="braceright" unicode="}" horiz-adv-x="403" 
d="M279 35q10 -79 -28.5 -119t-118.5 -40h-107v68h89q100 0 88 88l-25 189q-8 57 15 88.5t66 39.5q-43 8 -66 39.5t-15 88.5l25 189q12 88 -88 88h-89v68h107q80 0 118.5 -40t28.5 -119l-25 -193q-11 -86 80 -86h25v-70h-25q-92 0 -80 -86z" />
    <glyph glyph-name="asciitilde" unicode="~" horiz-adv-x="718" 
d="M429 356q12 -17 19 -25.5t20 -18t26 -9.5q46 0 46 63v191h88v-191q0 -70 -33.5 -110.5t-96.5 -40.5q-45 0 -75 22.5t-63 70.5l-71 102q-14 19 -21 28t-19 17t-25 8q-46 0 -46 -63v-187h-88v187q0 70 33.5 110.5t96.5 40.5q45 0 75 -22.5t64 -71.5z" />
    <glyph glyph-name="uni00A0" unicode="&#xa0;" horiz-adv-x="265" 
 />
    <glyph glyph-name="exclamdown" unicode="&#xa1;" horiz-adv-x="336" 
d="M110 353v141h116v-141h-116zM124 -216v478h88v-478h-88z" />
    <glyph glyph-name="cent" unicode="&#xa2;" horiz-adv-x="573" 
d="M512 147q-3 -16 -12 -35.5t-28 -46.5t-55 -48t-82 -27v-110h-76v111q-85 15 -138.5 85.5t-53.5 170.5q0 101 53.5 172t138.5 85v111h76v-111q45 -6 80.5 -26.5t54 -46.5t27.5 -46t12 -36h-90q-37 74 -122 74q-60 0 -98 -50t-38 -126q0 -75 38 -125.5t99 -50.5
q88 0 126 76h88z" />
    <glyph glyph-name="sterling" unicode="&#xa3;" horiz-adv-x="706" 
d="M658 88v-88h-598v88h117v186h-117v88h117v149q0 100 56 155.5t151 55.5q98 0 152.5 -54.5t54.5 -156.5v-38h-92v36q0 60 -30.5 93t-84.5 33q-53 0 -82 -33t-29 -93v-147h224v-88h-224v-186h385z" />
    <glyph glyph-name="yen" unicode="&#xa5;" horiz-adv-x="704" 
d="M608 149h-204v-149h-97v149h-204v78h204v91h-204v78h202l-245 314h117l180 -233l179 233h108l-240 -314h204v-78h-204v-91h204v-78z" />
    <glyph glyph-name="brokenbar" unicode="&#xa6;" horiz-adv-x="323" 
d="M120 417v405h83v-405h-83zM120 -116v418h83v-418h-83z" />
    <glyph glyph-name="section" unicode="&#xa7;" horiz-adv-x="687" 
d="M538 -48q0 -89 -52 -138.5t-141 -49.5q-91 0 -142 49t-51 139v47h89v-45q0 -52 28 -81t76 -29t75.5 29t27.5 81v18q0 86 -81 102l-152 31q-148 30 -148 166q0 56 35.5 92.5t91.5 43.5q-45 44 -45 134v20q0 89 52.5 138.5t140.5 49.5q91 0 142 -49t51 -139v-47h-89v45
q0 52 -28 81t-76 29t-75.5 -29t-27.5 -81v-18q0 -86 81 -102l152 -31q148 -31 148 -166q0 -54 -33 -90.5t-91 -47.5q42 -45 42 -132v-20zM285 357q-58 12 -93 -10t-35 -69q0 -35 22 -58t59 -31l164 -33q58 -12 93 10.5t35 68.5q0 72 -81 89z" />
    <glyph glyph-name="dieresis" unicode="&#xa8;" horiz-adv-x="600" 
d="M162 589v139h92v-139h-92zM346 589v139h92v-139h-92z" />
    <glyph glyph-name="copyright" unicode="&#xa9;" horiz-adv-x="884" 
d="M442 -12q-158 0 -262.5 105t-104.5 262q0 156 105 261.5t262 105.5q156 0 261.5 -105.5t105.5 -261.5t-105.5 -261.5t-261.5 -105.5zM442 56q130 0 211.5 86t81.5 213q0 126 -82 212.5t-211 86.5q-130 0 -211.5 -86.5t-81.5 -212.5q0 -127 82 -213t211 -86zM340 357
q0 -51 29 -86t77 -35q59 0 90 49h86q-4 -19 -15 -39t-31 -41t-54 -34t-76 -13q-83 0 -138.5 57.5t-55.5 141.5t55.5 141.5t138.5 57.5q75 0 118.5 -40t54.5 -83h-88q-34 45 -85 45q-48 0 -77 -35t-29 -86z" />
    <glyph glyph-name="ordfeminine" unicode="&#xaa;" horiz-adv-x="555" 
d="M375 353q-7 -16 -18.5 -31t-40.5 -30.5t-66 -15.5q-78 0 -129 60t-51 162q0 103 50.5 163t129.5 60q86 0 125 -77v66h88v-424h-88v67zM376 498q0 63 -28.5 103.5t-78.5 40.5q-51 0 -79.5 -40t-28.5 -104q0 -63 28.5 -103t79.5 -40q50 0 78.5 40t28.5 103z" />
    <glyph glyph-name="guillemotleft" unicode="&#xab;" horiz-adv-x="551" 
d="M265 453l-111 -177l111 -179h-91l-109 178l110 178h90zM481 453l-111 -177l111 -179h-91l-109 178l110 178h90z" />
    <glyph glyph-name="registered" unicode="&#xae;" horiz-adv-x="582" 
d="M291 246q-102 0 -170 68t-68 170q0 101 68 169.5t170 68.5q101 0 169.5 -68.5t68.5 -169.5t-68.5 -169.5t-169.5 -68.5zM291 298q81 0 132 53.5t51 132.5t-51 132.5t-132 53.5t-132 -53.5t-51 -132.5t51 -132.5t132 -53.5zM191 368v235h127q90 0 90 -77q0 -47 -39 -65
l41 -93h-62l-37 84h-59v-84h-61zM316 550h-64v-48h64q31 0 31 24t-31 24z" />
    <glyph glyph-name="macron" unicode="&#xaf;" horiz-adv-x="500" 
d="M395 621h-290v78h290v-78z" />
    <glyph glyph-name="degree" unicode="&#xb0;" horiz-adv-x="554" 
d="M277 348q-79 0 -133 54t-54 133t54 133t133 54t133 -54t54 -133t-54 -133t-133 -54zM277 422q48 0 78 32t30 81t-30 81t-78 32t-78 -32t-30 -81t30 -81t78 -32z" />
    <glyph glyph-name="two.sup" unicode="&#xb2;" horiz-adv-x="476" 
d="M433 318v-77h-367v55l173 166q40 39 57.5 66t17.5 61q0 35 -22 56t-61 21t-61 -24t-22 -63v-28h-83v29q0 73 45 118t122 45q79 0 124 -42t45 -110q0 -54 -25.5 -93.5t-82.5 -91.5l-94 -88h234z" />
    <glyph glyph-name="three.sup" unicode="&#xb3;" horiz-adv-x="487" 
d="M421 378q0 -65 -48 -105t-132 -40q-86 0 -132 43t-51 101h87q5 -27 29.5 -47.5t66.5 -20.5q43 0 68 20t25 55q0 73 -85 73h-88v76h86q35 0 54 17.5t19 48.5q0 32 -22.5 50.5t-59.5 18.5t-57.5 -18.5t-25.5 -46.5h-85q3 56 46 98t122 42t123.5 -37.5t44.5 -100.5
q0 -40 -20.5 -66t-46.5 -37q33 -10 57.5 -41t24.5 -83z" />
    <glyph glyph-name="acute" unicode="&#xb4;" horiz-adv-x="600" 
d="M201 579l98 183h100l-105 -183h-93z" />
    <glyph glyph-name="paragraph" unicode="&#xb6;" horiz-adv-x="661" 
d="M45 529q0 81 54 131t140 50h312v-710h-84v629h-108v-629h-84v348h-36q-86 0 -140 50t-54 131z" />
    <glyph glyph-name="periodcentered" unicode="&#xb7;" horiz-adv-x="292" 
d="M88 305v142h116v-142h-116z" />
    <glyph glyph-name="cedilla" unicode="&#xb8;" horiz-adv-x="600" 
d="M406 -156q0 -49 -29 -79t-88 -30h-95v74h84q41 0 41 35q0 34 -41 34h-61v122h80v-55q54 0 81.5 -27.5t27.5 -73.5z" />
    <glyph glyph-name="one.sup" unicode="&#xb9;" horiz-adv-x="355" 
d="M257 737v-496h-86v398l-122 -70v81l144 87h64z" />
    <glyph glyph-name="ordmasculine" unicode="&#xba;" horiz-adv-x="542" 
d="M271 723q91 0 147 -63t56 -161q0 -97 -56 -160t-147 -63t-147 63t-56 160q0 98 56 161t147 63zM271 354q54 0 83.5 41t29.5 104t-29.5 104t-83.5 41t-83.5 -41t-29.5 -104t29.5 -104t83.5 -41z" />
    <glyph glyph-name="guillemotright" unicode="&#xbb;" horiz-adv-x="551" 
d="M486 275l-110 -178h-90l111 177l-111 179h91zM270 275l-110 -178h-90l111 177l-111 179h91z" />
    <glyph glyph-name="onequarter" unicode="&#xbc;" horiz-adv-x="935" 
d="M896 112h-84v-112h-81v112h-214v60l193 254h102v-244h84v-70zM604 182h127v170zM254 0h-92l433 710h92zM233 703v-428h-85v332l-105 -59v79l126 76h64z" />
    <glyph glyph-name="onehalf" unicode="&#xbd;" horiz-adv-x="932" 
d="M253 0h-92l433 710h92zM893 75v-75h-322v55l151 143q32 31 45.5 52t13.5 46q0 27 -17.5 44t-47.5 17t-48 -19t-18 -50v-23h-81v24q0 64 39.5 104t107.5 40q70 0 110 -37t40 -97q0 -45 -22 -78.5t-70 -77.5l-74 -68h193zM233 703v-428h-85v332l-105 -59v79l126 76h64z" />
    <glyph glyph-name="threequarters" unicode="&#xbe;" horiz-adv-x="1032" 
d="M993 112h-84v-112h-81v112h-214v60l193 254h102v-244h84v-70zM701 182h127v170zM351 0h-92l433 710h92zM372 395q0 -57 -43 -92t-118 -35q-76 0 -117 38.5t-45 89.5h85q4 -21 23.5 -37t53.5 -16q35 0 55 15.5t20 42.5q0 56 -65 56h-79v74h76q55 0 55 50q0 25 -17.5 39.5
t-47.5 14.5q-57 0 -66 -50h-84q2 49 41 86t109 37q71 0 110.5 -32.5t39.5 -87.5q0 -63 -56 -88q28 -9 49 -35t21 -70z" />
    <glyph glyph-name="questiondown" unicode="&#xbf;" horiz-adv-x="544" 
d="M287 262h92v-8q0 -46 -14.5 -70t-61.5 -57l-72 -50q-79 -56 -79 -120q0 -47 30 -75t82 -28t82.5 33t30.5 85v32h89v-35q0 -90 -54.5 -143.5t-147.5 -53.5q-96 0 -150.5 50t-54.5 135q0 62 29.5 105t92.5 85l72 49q34 24 34 66zM391 494v-142h-116v142h116z" />
    <glyph glyph-name="Agrave" unicode="&#xc0;" horiz-adv-x="744" 
d="M609 0l-70 171h-340l-70 -171h-96l296 714h86l296 -714h-102zM236 259h266l-133 324zM420 778h-102l-109 150h110z" />
    <glyph glyph-name="Aacute" unicode="&#xc1;" horiz-adv-x="744" 
d="M609 0l-70 171h-340l-70 -171h-96l296 714h86l296 -714h-102zM236 259h266l-133 324zM319 778l102 150h110l-110 -150h-102z" />
    <glyph glyph-name="Acircumflex" unicode="&#xc2;" horiz-adv-x="744" 
d="M609 0l-70 171h-340l-70 -171h-96l296 714h86l296 -714h-102zM236 259h266l-133 324zM443 775l-73 87l-74 -87h-98l132 156h78l129 -156h-94z" />
    <glyph glyph-name="Atilde" unicode="&#xc3;" horiz-adv-x="744" 
d="M609 0l-70 171h-340l-70 -171h-96l296 714h86l296 -714h-102zM236 259h266l-133 324zM365 816l-36 22q-23 15 -34 15q-17 0 -17 -24v-56h-73v66q0 94 77 94q8 0 17 -2t15 -3.5t15.5 -6.5t13.5 -7.5t15.5 -9.5t14.5 -9l36 -22q26 -15 34 -15q17 0 17 24v56h73v-66
q0 -94 -77 -94q-10 0 -19 1.5t-20.5 7t-15.5 7.5t-19 11.5t-17 10.5z" />
    <glyph glyph-name="Adieresis" unicode="&#xc4;" horiz-adv-x="744" 
d="M609 0l-70 171h-340l-70 -171h-96l296 714h86l296 -714h-102zM236 259h266l-133 324zM226 778v139h92v-139h-92zM420 778v139h92v-139h-92z" />
    <glyph glyph-name="Aring" unicode="&#xc5;" horiz-adv-x="744" 
d="M609 0l-70 171h-340l-70 -171h-96l296 714h86l296 -714h-102zM236 259h266l-133 324zM369 768q-55 0 -91.5 36t-36.5 89q0 54 36.5 90.5t91.5 36.5t91.5 -36.5t36.5 -90.5q0 -53 -36.5 -89t-91.5 -36zM369 829q27 0 44.5 18.5t17.5 45.5q0 28 -17 46t-45 18t-45 -18
t-17 -46q0 -27 17.5 -45.5t44.5 -18.5z" />
    <glyph glyph-name="AE" unicode="&#xc6;" horiz-adv-x="1037" 
d="M994 90v-90h-497v183h-273l-114 -183h-110l449 710h510v-90h-365v-198h219v-90h-219v-242h400zM277 269h220v353z" />
    <glyph glyph-name="Ccedilla" unicode="&#xc7;" horiz-adv-x="730" 
d="M503 -156q0 -49 -29 -79t-88 -30h-95v74h84q41 0 41 35q0 34 -41 34h-61v118q-112 24 -177 123t-65 236q0 157 85 262t224 105q68 0 123.5 -22t88 -56.5t50.5 -70t23 -70.5h-96q-18 46 -64 87t-125 41q-98 0 -152.5 -79.5t-54.5 -196.5t54.5 -196.5t152.5 -79.5
q43 0 78.5 14t57.5 35.5t35 41.5t20 39h94q-4 -26 -15 -53.5t-33 -57t-51.5 -52.5t-74.5 -39t-98 -18v-44q54 0 81.5 -27.5t27.5 -73.5z" />
    <glyph glyph-name="Egrave" unicode="&#xc8;" horiz-adv-x="700" 
d="M110 0v710h510v-90h-414v-198h244v-90h-244v-242h451v-90h-547zM438 778h-102l-109 150h110z" />
    <glyph glyph-name="Eacute" unicode="&#xc9;" horiz-adv-x="700" 
d="M110 0v710h510v-90h-414v-198h244v-90h-244v-242h451v-90h-547zM314 778l102 150h110l-110 -150h-102z" />
    <glyph glyph-name="Ecircumflex" unicode="&#xca;" horiz-adv-x="700" 
d="M110 0v710h510v-90h-414v-198h244v-90h-244v-242h451v-90h-547zM447 775l-73 87l-74 -87h-98l132 156h78l129 -156h-94z" />
    <glyph glyph-name="Edieresis" unicode="&#xcb;" horiz-adv-x="700" 
d="M110 0v710h510v-90h-414v-198h244v-90h-244v-242h451v-90h-547zM230 778v139h92v-139h-92zM424 778v139h92v-139h-92z" />
    <glyph glyph-name="Igrave" unicode="&#xcc;" horiz-adv-x="319" 
d="M111 0v710h97v-710h-97zM210 778h-102l-109 150h110z" />
    <glyph glyph-name="Iacute" unicode="&#xcd;" horiz-adv-x="319" 
d="M111 0v710h97v-710h-97zM109 778l102 150h110l-110 -150h-102z" />
    <glyph glyph-name="Icircumflex" unicode="&#xce;" horiz-adv-x="319" 
d="M111 0v710h97v-710h-97zM233 775l-73 87l-74 -87h-98l132 156h78l129 -156h-94z" />
    <glyph glyph-name="Idieresis" unicode="&#xcf;" horiz-adv-x="319" 
d="M111 0v710h97v-710h-97zM16 778v139h92v-139h-92zM210 778v139h92v-139h-92z" />
    <glyph glyph-name="Eth" unicode="&#xd0;" horiz-adv-x="791" 
d="M12 314v88h109v308h237q166 0 264 -96.5t98 -258.5q0 -160 -98 -257.5t-264 -97.5h-237v314h-109zM358 621h-140v-219h216v-88h-216v-225h140q121 0 191.5 72t70.5 194q0 125 -70 195.5t-192 70.5z" />
    <glyph glyph-name="Ntilde" unicode="&#xd1;" horiz-adv-x="813" 
d="M703 710v-715h-73l-427 591v-586h-93v710h116l384 -538v538h93zM415 816l-36 22q-23 15 -34 15q-17 0 -17 -24v-56h-73v66q0 94 77 94q8 0 17 -2t15 -3.5t15.5 -6.5t13.5 -7.5t15.5 -9.5t14.5 -9l36 -22q26 -15 34 -15q17 0 17 24v56h73v-66q0 -94 -77 -94q-10 0 -19 1.5
t-20.5 7t-15.5 7.5t-19 11.5t-17 10.5z" />
    <glyph glyph-name="Ograve" unicode="&#xd2;" horiz-adv-x="782" 
d="M391 -12q-145 0 -232 103t-87 264q0 160 87.5 263.5t231.5 103.5q143 0 231 -104t88 -263t-88 -263t-231 -104zM391 78q103 0 161 78t58 199q0 119 -58.5 198t-160.5 79t-160.5 -78.5t-58.5 -198.5q0 -122 58 -199.5t161 -77.5zM442 778h-102l-109 150h110z" />
    <glyph glyph-name="Oacute" unicode="&#xd3;" horiz-adv-x="782" 
d="M391 -12q-145 0 -232 103t-87 264q0 160 87.5 263.5t231.5 103.5q143 0 231 -104t88 -263t-88 -263t-231 -104zM391 78q103 0 161 78t58 199q0 119 -58.5 198t-160.5 79t-160.5 -78.5t-58.5 -198.5q0 -122 58 -199.5t161 -77.5zM332 778l102 150h110l-110 -150h-102z" />
    <glyph glyph-name="Ocircumflex" unicode="&#xd4;" horiz-adv-x="782" 
d="M391 -12q-145 0 -232 103t-87 264q0 160 87.5 263.5t231.5 103.5q143 0 231 -104t88 -263t-88 -263t-231 -104zM391 78q103 0 161 78t58 199q0 119 -58.5 198t-160.5 79t-160.5 -78.5t-58.5 -198.5q0 -122 58 -199.5t161 -77.5zM465 775l-73 87l-74 -87h-98l132 156h78
l129 -156h-94z" />
    <glyph glyph-name="Otilde" unicode="&#xd5;" horiz-adv-x="782" 
d="M391 -12q-145 0 -232 103t-87 264q0 160 87.5 263.5t231.5 103.5q143 0 231 -104t88 -263t-88 -263t-231 -104zM391 78q103 0 161 78t58 199q0 119 -58.5 198t-160.5 79t-160.5 -78.5t-58.5 -198.5q0 -122 58 -199.5t161 -77.5zM387 816l-36 22q-23 15 -34 15
q-17 0 -17 -24v-56h-73v66q0 94 77 94q8 0 17 -2t15 -3.5t15.5 -6.5t13.5 -7.5t15.5 -9.5t14.5 -9l36 -22q26 -15 34 -15q17 0 17 24v56h73v-66q0 -94 -77 -94q-10 0 -19 1.5t-20.5 7t-15.5 7.5t-19 11.5t-17 10.5z" />
    <glyph glyph-name="Odieresis" unicode="&#xd6;" horiz-adv-x="782" 
d="M391 -12q-145 0 -232 103t-87 264q0 160 87.5 263.5t231.5 103.5q143 0 231 -104t88 -263t-88 -263t-231 -104zM391 78q103 0 161 78t58 199q0 119 -58.5 198t-160.5 79t-160.5 -78.5t-58.5 -198.5q0 -122 58 -199.5t161 -77.5zM248 778v139h92v-139h-92zM442 778v139h92
v-139h-92z" />
    <glyph glyph-name="multiply" unicode="&#xd7;" horiz-adv-x="640" 
d="M556 113l-56 -54l-182 181l-180 -181l-54 54l180 181l-180 179l58 58l179 -181l180 181l54 -54l-180 -181z" />
    <glyph glyph-name="Oslash" unicode="&#xd8;" horiz-adv-x="782" 
d="M710 355q0 -159 -88 -263t-231 -104q-108 0 -187 60l-38 -48h-105l84 108q-73 99 -73 247q0 160 87.5 263.5t231.5 103.5q106 0 185 -60l37 48h108l-85 -109q74 -101 74 -246zM172 355q0 -99 35 -167l313 401q-52 43 -129 43q-102 0 -160.5 -78.5t-58.5 -198.5zM610 355
q0 99 -36 167l-313 -401q52 -43 130 -43q102 0 160.5 78.5t58.5 198.5z" />
    <glyph glyph-name="Ugrave" unicode="&#xd9;" horiz-adv-x="794" 
d="M397 81q91 0 142 55.5t51 145.5v428h97v-436q0 -122 -76.5 -204t-213.5 -82q-141 0 -215.5 80.5t-74.5 205.5v436h97v-428q0 -91 50 -146t143 -55zM461 778h-102l-109 150h110z" />
    <glyph glyph-name="Uacute" unicode="&#xda;" horiz-adv-x="794" 
d="M397 81q91 0 142 55.5t51 145.5v428h97v-436q0 -122 -76.5 -204t-213.5 -82q-141 0 -215.5 80.5t-74.5 205.5v436h97v-428q0 -91 50 -146t143 -55zM334 778l102 150h110l-110 -150h-102z" />
    <glyph glyph-name="Ucircumflex" unicode="&#xdb;" horiz-adv-x="794" 
d="M397 81q91 0 142 55.5t51 145.5v428h97v-436q0 -122 -76.5 -204t-213.5 -82q-141 0 -215.5 80.5t-74.5 205.5v436h97v-428q0 -91 50 -146t143 -55zM471 775l-73 87l-74 -87h-98l132 156h78l129 -156h-94z" />
    <glyph glyph-name="Udieresis" unicode="&#xdc;" horiz-adv-x="794" 
d="M397 81q91 0 142 55.5t51 145.5v428h97v-436q0 -122 -76.5 -204t-213.5 -82q-141 0 -215.5 80.5t-74.5 205.5v436h97v-428q0 -91 50 -146t143 -55zM254 778v139h92v-139h-92zM448 778v139h92v-139h-92z" />
    <glyph glyph-name="Yacute" unicode="&#xdd;" horiz-adv-x="685" 
d="M394 286v-286h-97v285l-282 425h120l213 -327l213 327h109zM286 778l102 150h110l-110 -150h-102z" />
    <glyph glyph-name="Thorn" unicode="&#xde;" horiz-adv-x="723" 
d="M429 165h-222v-165h-97v710h97v-147h222q115 0 174.5 -51t59.5 -146q0 -94 -60 -147.5t-174 -53.5zM432 473h-225v-218h225q64 0 97.5 29.5t33.5 79.5q0 109 -131 109z" />
    <glyph glyph-name="germandbls" unicode="&#xdf;" horiz-adv-x="607" 
d="M186 528v-528h-92v534q0 102 54.5 158t151.5 56q94 0 150 -51.5t56 -141.5q0 -60 -31.5 -98.5t-70.5 -48.5q63 -12 105 -63t42 -126q0 -101 -61 -160t-171 -59h-39v83h22q75 0 115 36t40 100t-40 100t-115 36h-22v81h7q58 0 91.5 30t33.5 84t-30.5 84t-81.5 30
q-54 0 -84 -35t-30 -101z" />
    <glyph glyph-name="agrave" unicode="&#xe0;" horiz-adv-x="601" 
d="M418 81q-8 -19 -22 -37.5t-48 -37t-77 -18.5q-91 0 -150 69.5t-59 188.5t59 189t150 70q102 0 147 -93v82h91v-494h-91v81zM420 246q0 77 -35.5 126t-96.5 49q-63 0 -97.5 -49t-34.5 -126q0 -76 35 -125.5t97 -49.5q61 0 96.5 49.5t35.5 125.5zM334 579h-93l-105 183h100
z" />
    <glyph glyph-name="aacute" unicode="&#xe1;" horiz-adv-x="601" 
d="M418 81q-8 -19 -22 -37.5t-48 -37t-77 -18.5q-91 0 -150 69.5t-59 188.5t59 189t150 70q102 0 147 -93v82h91v-494h-91v81zM420 246q0 77 -35.5 126t-96.5 49q-63 0 -97.5 -49t-34.5 -126q0 -76 35 -125.5t97 -49.5q61 0 96.5 49.5t35.5 125.5zM242 579l98 183h100
l-105 -183h-93z" />
    <glyph glyph-name="acircumflex" unicode="&#xe2;" horiz-adv-x="601" 
d="M418 81q-8 -19 -22 -37.5t-48 -37t-77 -18.5q-91 0 -150 69.5t-59 188.5t59 189t150 70q102 0 147 -93v82h91v-494h-91v81zM420 246q0 77 -35.5 126t-96.5 49q-63 0 -97.5 -49t-34.5 -126q0 -76 35 -125.5t97 -49.5q61 0 96.5 49.5t35.5 125.5zM357 576l-69 112l-68 -112
h-88l118 193h76l116 -193h-85z" />
    <glyph glyph-name="atilde" unicode="&#xe3;" horiz-adv-x="601" 
d="M418 81q-8 -19 -22 -37.5t-48 -37t-77 -18.5q-91 0 -150 69.5t-59 188.5t59 189t150 70q102 0 147 -93v82h91v-494h-91v81zM420 246q0 77 -35.5 126t-96.5 49q-63 0 -97.5 -49t-34.5 -126q0 -76 35 -125.5t97 -49.5q61 0 96.5 49.5t35.5 125.5zM206 575h-71v74
q0 44 19.5 69t58.5 25q25 0 43 -10t44 -33l25 -23q19 -17 29 -17q17 0 17 23v65h71v-74q0 -44 -19.5 -69t-58.5 -25q-25 0 -43 10t-43 33l-25 23q-19 17 -30 17q-17 0 -17 -23v-65z" />
    <glyph glyph-name="adieresis" unicode="&#xe4;" horiz-adv-x="601" 
d="M418 81q-8 -19 -22 -37.5t-48 -37t-77 -18.5q-91 0 -150 69.5t-59 188.5t59 189t150 70q102 0 147 -93v82h91v-494h-91v81zM420 246q0 77 -35.5 126t-96.5 49q-63 0 -97.5 -49t-34.5 -126q0 -76 35 -125.5t97 -49.5q61 0 96.5 49.5t35.5 125.5zM150 589v139h92v-139h-92z
M334 589v139h92v-139h-92z" />
    <glyph glyph-name="aring" unicode="&#xe5;" horiz-adv-x="601" 
d="M418 81q-8 -19 -22 -37.5t-48 -37t-77 -18.5q-91 0 -150 69.5t-59 188.5t59 189t150 70q102 0 147 -93v82h91v-494h-91v81zM420 246q0 77 -35.5 126t-96.5 49q-63 0 -97.5 -49t-34.5 -126q0 -76 35 -125.5t97 -49.5q61 0 96.5 49.5t35.5 125.5zM288 567q-55 0 -91.5 36
t-36.5 89q0 54 36.5 90.5t91.5 36.5t91.5 -36.5t36.5 -90.5q0 -53 -36.5 -89t-91.5 -36zM288 628q27 0 44.5 18.5t17.5 45.5q0 28 -17 46t-45 18t-45 -18t-17 -46q0 -27 17.5 -45.5t44.5 -18.5z" />
    <glyph glyph-name="ae" unicode="&#xe6;" horiz-adv-x="899" 
d="M620 507q99 0 160.5 -71t61.5 -188v-14h-353q4 -71 40.5 -117t99.5 -46q85 0 123 61h87q-5 -20 -16.5 -40.5t-34.5 -46t-64 -41.5t-95 -16q-69 0 -120 32.5t-75 80.5q-47 -112 -176 -112q-88 0 -144 45.5t-56 121.5q0 71 49 110.5t139 39.5h151q0 56 -34 88.5t-90 32.5
q-35 0 -61 -13.5t-35 -25.5t-14 -23h-91q3 16 14 37t33 46t62.5 42t91.5 17q62 0 108.5 -25t67.5 -66q55 91 171 91zM620 429q-53 0 -85.5 -32.5t-42.5 -90.5h254q-24 123 -126 123zM149 156q0 -40 31 -65.5t82 -25.5q55 0 95 31t40 82v56h-146q-47 0 -74.5 -20.5
t-27.5 -57.5z" />
    <glyph glyph-name="ccedilla" unicode="&#xe7;" horiz-adv-x="542" 
d="M404 347q-34 76 -119 76q-58 0 -94.5 -50t-36.5 -126t36.5 -126t95.5 -50q81 0 119 76h88q-3 -17 -13 -38t-30.5 -49.5t-60.5 -49t-91 -22.5v-43q54 0 81.5 -27.5t27.5 -73.5q0 -49 -29 -79t-88 -30h-95v74h84q41 0 41 35q0 34 -41 34h-61v121q-71 23 -114.5 90
t-43.5 158q0 112 64 186t161 74q45 0 81.5 -13.5t58 -32t37.5 -42.5t22 -41t9 -31h-89z" />
    <glyph glyph-name="egrave" unicode="&#xe8;" horiz-adv-x="566" 
d="M285 507q101 0 162.5 -71t61.5 -188v-14h-357q4 -71 41 -117t101 -46q87 0 125 61h87q-5 -20 -16.5 -40.5t-34.5 -46t-65 -41.5t-96 -16q-106 0 -170 74t-64 185q0 115 61.5 187.5t163.5 72.5zM285 429q-54 0 -87 -32.5t-43 -90.5h258q-24 123 -128 123zM331 579h-93
l-105 183h100z" />
    <glyph glyph-name="eacute" unicode="&#xe9;" horiz-adv-x="566" 
d="M285 507q101 0 162.5 -71t61.5 -188v-14h-357q4 -71 41 -117t101 -46q87 0 125 61h87q-5 -20 -16.5 -40.5t-34.5 -46t-65 -41.5t-96 -16q-106 0 -170 74t-64 185q0 115 61.5 187.5t163.5 72.5zM285 429q-54 0 -87 -32.5t-43 -90.5h258q-24 123 -128 123zM239 579l98 183
h100l-105 -183h-93z" />
    <glyph glyph-name="ecircumflex" unicode="&#xea;" horiz-adv-x="566" 
d="M285 507q101 0 162.5 -71t61.5 -188v-14h-357q4 -71 41 -117t101 -46q87 0 125 61h87q-5 -20 -16.5 -40.5t-34.5 -46t-65 -41.5t-96 -16q-106 0 -170 74t-64 185q0 115 61.5 187.5t163.5 72.5zM285 429q-54 0 -87 -32.5t-43 -90.5h258q-24 123 -128 123zM354 576l-69 112
l-68 -112h-88l118 193h76l116 -193h-85z" />
    <glyph glyph-name="edieresis" unicode="&#xeb;" horiz-adv-x="566" 
d="M285 507q101 0 162.5 -71t61.5 -188v-14h-357q4 -71 41 -117t101 -46q87 0 125 61h87q-5 -20 -16.5 -40.5t-34.5 -46t-65 -41.5t-96 -16q-106 0 -170 74t-64 185q0 115 61.5 187.5t163.5 72.5zM285 429q-54 0 -87 -32.5t-43 -90.5h258q-24 123 -128 123zM147 589v139h92
v-139h-92zM331 589v139h92v-139h-92z" />
    <glyph glyph-name="igrave" unicode="&#xec;" horiz-adv-x="277" 
d="M93 0v494h91v-494h-91zM184 579h-93l-105 183h100z" />
    <glyph glyph-name="iacute" unicode="&#xed;" horiz-adv-x="277" 
d="M93 0v494h91v-494h-91zM93 579l98 183h100l-105 -183h-93z" />
    <glyph glyph-name="icircumflex" unicode="&#xee;" horiz-adv-x="277" 
d="M207 576l-69 112l-68 -112h-88l118 193h76l116 -193h-85zM93 0v494h91v-494h-91z" />
    <glyph glyph-name="idieresis" unicode="&#xef;" horiz-adv-x="277" 
d="M0 589v139h92v-139h-92zM184 589v139h92v-139h-92zM93 0v494h91v-494h-91z" />
    <glyph glyph-name="eth" unicode="&#xf0;" horiz-adv-x="584" 
d="M524 247q0 -112 -64 -185.5t-168 -73.5t-168 73.5t-64 185.5q0 104 53.5 173.5t138.5 69.5q54 0 91 -28l-96 122l-131 -64l-28 58l118 58l-80 100h105l50 -63l125 61l29 -58l-112 -55l101 -127q52 -66 76 -121.5t24 -125.5zM292 71q65 0 101.5 49.5t36.5 126.5
t-36.5 126.5t-101.5 49.5t-101.5 -49.5t-36.5 -126.5t36 -126.5t102 -49.5z" />
    <glyph glyph-name="ntilde" unicode="&#xf1;" horiz-adv-x="609" 
d="M183 277v-277h-91v494h91v-83q16 37 54 65.5t94 28.5q86 0 138 -56.5t52 -154.5v-294h-92v277q0 70 -32 107t-88 37q-59 0 -92.5 -37.5t-33.5 -106.5zM227 575h-71v74q0 44 19.5 69t58.5 25q25 0 43 -10t44 -33l25 -23q19 -17 29 -17q17 0 17 23v65h71v-74
q0 -44 -19.5 -69t-58.5 -25q-25 0 -43 10t-43 33l-25 23q-19 17 -30 17q-17 0 -17 -23v-65z" />
    <glyph glyph-name="ograve" unicode="&#xf2;" horiz-adv-x="584" 
d="M292 506q104 0 168 -73.5t64 -185.5t-64 -185.5t-168 -73.5t-168 73.5t-64 185.5t64 185.5t168 73.5zM292 72q65 0 101.5 49.5t36.5 125.5t-36.5 125.5t-101.5 49.5t-101.5 -49.5t-36.5 -125.5t36 -125.5t102 -49.5zM338 579h-93l-105 183h100z" />
    <glyph glyph-name="oacute" unicode="&#xf3;" horiz-adv-x="584" 
d="M292 506q104 0 168 -73.5t64 -185.5t-64 -185.5t-168 -73.5t-168 73.5t-64 185.5t64 185.5t168 73.5zM292 72q65 0 101.5 49.5t36.5 125.5t-36.5 125.5t-101.5 49.5t-101.5 -49.5t-36.5 -125.5t36 -125.5t102 -49.5zM246 579l98 183h100l-105 -183h-93z" />
    <glyph glyph-name="ocircumflex" unicode="&#xf4;" horiz-adv-x="584" 
d="M292 506q104 0 168 -73.5t64 -185.5t-64 -185.5t-168 -73.5t-168 73.5t-64 185.5t64 185.5t168 73.5zM292 72q65 0 101.5 49.5t36.5 125.5t-36.5 125.5t-101.5 49.5t-101.5 -49.5t-36.5 -125.5t36 -125.5t102 -49.5zM361 576l-69 112l-68 -112h-88l118 193h76l116 -193
h-85z" />
    <glyph glyph-name="otilde" unicode="&#xf5;" horiz-adv-x="584" 
d="M292 506q104 0 168 -73.5t64 -185.5t-64 -185.5t-168 -73.5t-168 73.5t-64 185.5t64 185.5t168 73.5zM292 72q65 0 101.5 49.5t36.5 125.5t-36.5 125.5t-101.5 49.5t-101.5 -49.5t-36.5 -125.5t36 -125.5t102 -49.5zM210 575h-71v74q0 44 19.5 69t58.5 25q25 0 43 -10
t44 -33l25 -23q19 -17 29 -17q17 0 17 23v65h71v-74q0 -44 -19.5 -69t-58.5 -25q-25 0 -43 10t-43 33l-25 23q-19 17 -30 17q-17 0 -17 -23v-65z" />
    <glyph glyph-name="odieresis" unicode="&#xf6;" horiz-adv-x="584" 
d="M292 506q104 0 168 -73.5t64 -185.5t-64 -185.5t-168 -73.5t-168 73.5t-64 185.5t64 185.5t168 73.5zM292 72q65 0 101.5 49.5t36.5 125.5t-36.5 125.5t-101.5 49.5t-101.5 -49.5t-36.5 -125.5t36 -125.5t102 -49.5zM154 589v139h92v-139h-92zM338 589v139h92v-139h-92z
" />
    <glyph glyph-name="divide" unicode="&#xf7;" horiz-adv-x="696" 
d="M291 447v143h116v-143h-116zM612 275h-528v80h528v-80zM291 30v143h116v-143h-116z" />
    <glyph glyph-name="oslash" unicode="&#xf8;" horiz-adv-x="584" 
d="M524 247q0 -112 -64 -185.5t-168 -73.5q-74 0 -129 39l-22 -27h-93l63 79q-51 68 -51 168q0 113 64 186.5t168 73.5q73 0 129 -39l20 26h95l-62 -78q50 -70 50 -169zM154 247q0 -56 16 -94l198 249q-33 22 -76 22q-65 0 -101.5 -50t-36.5 -127zM430 247q0 56 -16 94
l-199 -248q32 -23 77 -23q65 0 101.5 50t36.5 127z" />
    <glyph glyph-name="ugrave" unicode="&#xf9;" horiz-adv-x="598" 
d="M300 -10q-102 0 -157 56t-55 150v298h92v-293q0 -57 31 -91t89 -34q57 0 88.5 34t31.5 91v293h90v-298q0 -89 -56 -147.5t-154 -58.5zM346 579h-93l-105 183h100z" />
    <glyph glyph-name="uacute" unicode="&#xfa;" horiz-adv-x="598" 
d="M300 -10q-102 0 -157 56t-55 150v298h92v-293q0 -57 31 -91t89 -34q57 0 88.5 34t31.5 91v293h90v-298q0 -89 -56 -147.5t-154 -58.5zM244 579l98 183h100l-105 -183h-93z" />
    <glyph glyph-name="ucircumflex" unicode="&#xfb;" horiz-adv-x="598" 
d="M300 -10q-102 0 -157 56t-55 150v298h92v-293q0 -57 31 -91t89 -34q57 0 88.5 34t31.5 91v293h90v-298q0 -89 -56 -147.5t-154 -58.5zM369 576l-69 112l-68 -112h-88l118 193h76l116 -193h-85z" />
    <glyph glyph-name="udieresis" unicode="&#xfc;" horiz-adv-x="598" 
d="M300 -10q-102 0 -157 56t-55 150v298h92v-293q0 -57 31 -91t89 -34q57 0 88.5 34t31.5 91v293h90v-298q0 -89 -56 -147.5t-154 -58.5zM162 589v139h92v-139h-92zM346 589v139h92v-139h-92z" />
    <glyph glyph-name="yacute" unicode="&#xfd;" horiz-adv-x="535" 
d="M510 494l-283 -708h-91l88 222l-199 486h100l146 -367l146 367h93zM211 579l98 183h100l-105 -183h-93z" />
    <glyph glyph-name="thorn" unicode="&#xfe;" horiz-adv-x="611" 
d="M182 77v-291h-90v950h90v-323q9 19 23 36.5t50 37.5t81 20q91 0 152 -70.5t61 -189.5t-61 -189t-152 -70q-34 0 -63 10t-47 26.5t-28 28.5t-16 24zM180 247q0 -76 37 -126t101 -50q62 0 100 50t38 126q0 77 -37.5 126.5t-100.5 49.5q-64 0 -101 -49.5t-37 -126.5z" />
    <glyph glyph-name="ydieresis" unicode="&#xff;" horiz-adv-x="535" 
d="M510 494l-283 -708h-91l88 222l-199 486h100l146 -367l146 367h93zM133 589v139h92v-139h-92zM317 589v139h92v-139h-92z" />
    <glyph glyph-name="Amacron" unicode="&#x100;" horiz-adv-x="744" 
d="M609 0l-70 171h-340l-70 -171h-96l296 714h86l296 -714h-102zM236 259h266l-133 324zM527 813h-316v78h316v-78z" />
    <glyph glyph-name="amacron" unicode="&#x101;" horiz-adv-x="601" 
d="M418 81q-8 -19 -22 -37.5t-48 -37t-77 -18.5q-91 0 -150 69.5t-59 188.5t59 189t150 70q102 0 147 -93v82h91v-494h-91v81zM420 246q0 77 -35.5 126t-96.5 49q-63 0 -97.5 -49t-34.5 -126q0 -76 35 -125.5t97 -49.5q61 0 96.5 49.5t35.5 125.5zM434 621h-290v78h290v-78z
" />
    <glyph glyph-name="Abreve" unicode="&#x102;" horiz-adv-x="744" 
d="M609 0l-70 171h-340l-70 -171h-96l296 714h86l296 -714h-102zM236 259h266l-133 324zM369 843q32 0 48.5 20.5t16.5 50.5v13h76v-15q0 -62 -37 -101.5t-104 -39.5t-104 39.5t-37 101.5v15h76v-13q0 -30 16.5 -50.5t48.5 -20.5z" />
    <glyph glyph-name="abreve" unicode="&#x103;" horiz-adv-x="601" 
d="M418 81q-8 -19 -22 -37.5t-48 -37t-77 -18.5q-91 0 -150 69.5t-59 188.5t59 189t150 70q102 0 147 -93v82h91v-494h-91v81zM420 246q0 77 -35.5 126t-96.5 49q-63 0 -97.5 -49t-34.5 -126q0 -76 35 -125.5t97 -49.5q61 0 96.5 49.5t35.5 125.5zM288 644q29 0 44 20t15 49
v17h75v-19q0 -61 -34.5 -99.5t-99.5 -38.5t-99.5 38.5t-34.5 99.5v19h75v-17q0 -28 15 -48.5t44 -20.5z" />
    <glyph glyph-name="Aogonek" unicode="&#x104;" horiz-adv-x="744" 
d="M731 -132v-82h-72q-129 0 -129 94q0 24 12.5 47t26.5 37t40 36l-70 171h-340l-70 -171h-96l296 714h86l296 -714q-27 -25 -36 -33t-24.5 -24t-20.5 -26t-5 -19q0 -30 39 -30h67zM236 259h266l-133 324z" />
    <glyph glyph-name="aogonek" unicode="&#x105;" horiz-adv-x="601" 
d="M418 81q-8 -19 -22 -37.5t-48 -37t-77 -18.5q-91 0 -150 69.5t-59 188.5t59 189t150 70q102 0 147 -93v82h91v-494q-27 -25 -36 -33t-24.5 -24t-20.5 -26t-5 -19q0 -30 39 -30h67v-82h-72q-129 0 -129 94q0 24 15.5 47.5t28 34.5t46.5 38v81zM420 246q0 77 -35.5 126
t-96.5 49q-63 0 -97.5 -49t-34.5 -126q0 -76 35 -125.5t97 -49.5q61 0 96.5 49.5t35.5 125.5z" />
    <glyph glyph-name="Cacute" unicode="&#x106;" horiz-adv-x="730" 
d="M381 -12q-139 0 -224 105t-85 262t85 262t224 105q68 0 123.5 -22t88 -56.5t50.5 -70t23 -70.5h-96q-18 46 -64 87t-125 41q-98 0 -152.5 -79.5t-54.5 -196.5t54.5 -196.5t152.5 -79.5q43 0 78.5 14t57.5 35.5t35 41.5t20 39h94q-5 -34 -23 -69.5t-50.5 -71t-88 -58
t-123.5 -22.5zM331 778l102 150h110l-110 -150h-102z" />
    <glyph glyph-name="cacute" unicode="&#x107;" horiz-adv-x="542" 
d="M404 347q-34 76 -119 76q-58 0 -94.5 -50t-36.5 -126t36.5 -126t95.5 -50q81 0 119 76h88q-2 -13 -8 -29t-22 -40.5t-37.5 -43t-58 -32.5t-81.5 -14q-97 0 -161.5 73.5t-64.5 185.5t64 186t161 74q45 0 81.5 -13.5t58 -32t37.5 -42.5t22 -41t9 -31h-89zM239 579l98 183
h100l-105 -183h-93z" />
    <glyph glyph-name="Ccircumflex" unicode="&#x108;" horiz-adv-x="730" 
d="M381 -12q-139 0 -224 105t-85 262t85 262t224 105q68 0 123.5 -22t88 -56.5t50.5 -70t23 -70.5h-96q-18 46 -64 87t-125 41q-98 0 -152.5 -79.5t-54.5 -196.5t54.5 -196.5t152.5 -79.5q43 0 78.5 14t57.5 35.5t35 41.5t20 39h94q-5 -34 -23 -69.5t-50.5 -71t-88 -58
t-123.5 -22.5zM455 775l-73 87l-74 -87h-98l132 156h78l129 -156h-94z" />
    <glyph glyph-name="ccircumflex" unicode="&#x109;" horiz-adv-x="542" 
d="M404 347q-34 76 -119 76q-58 0 -94.5 -50t-36.5 -126t36.5 -126t95.5 -50q81 0 119 76h88q-2 -13 -8 -29t-22 -40.5t-37.5 -43t-58 -32.5t-81.5 -14q-97 0 -161.5 73.5t-64.5 185.5t64 186t161 74q45 0 81.5 -13.5t58 -32t37.5 -42.5t22 -41t9 -31h-89zM354 576l-69 112
l-68 -112h-88l118 193h76l116 -193h-85z" />
    <glyph glyph-name="Cdotaccent" unicode="&#x10a;" horiz-adv-x="730" 
d="M381 -12q-139 0 -224 105t-85 262t85 262t224 105q68 0 123.5 -22t88 -56.5t50.5 -70t23 -70.5h-96q-18 46 -64 87t-125 41q-98 0 -152.5 -79.5t-54.5 -196.5t54.5 -196.5t152.5 -79.5q43 0 78.5 14t57.5 35.5t35 41.5t20 39h94q-5 -34 -23 -69.5t-50.5 -71t-88 -58
t-123.5 -22.5zM334 778v143h94v-143h-94z" />
    <glyph glyph-name="cdotaccent" unicode="&#x10b;" horiz-adv-x="542" 
d="M404 347q-34 76 -119 76q-58 0 -94.5 -50t-36.5 -126t36.5 -126t95.5 -50q81 0 119 76h88q-2 -13 -8 -29t-22 -40.5t-37.5 -43t-58 -32.5t-81.5 -14q-97 0 -161.5 73.5t-64.5 185.5t64 186t161 74q45 0 81.5 -13.5t58 -32t37.5 -42.5t22 -41t9 -31h-89zM238 589v143h94
v-143h-94z" />
    <glyph glyph-name="Ccaron" unicode="&#x10c;" horiz-adv-x="730" 
d="M381 -12q-139 0 -224 105t-85 262t85 262t224 105q68 0 123.5 -22t88 -56.5t50.5 -70t23 -70.5h-96q-18 46 -64 87t-125 41q-98 0 -152.5 -79.5t-54.5 -196.5t54.5 -196.5t152.5 -79.5q43 0 78.5 14t57.5 35.5t35 41.5t20 39h94q-5 -34 -23 -69.5t-50.5 -71t-88 -58
t-123.5 -22.5zM548 931l-129 -156h-78l-132 156h98l74 -87l73 87h94z" />
    <glyph glyph-name="ccaron" unicode="&#x10d;" horiz-adv-x="542" 
d="M404 347q-34 76 -119 76q-58 0 -94.5 -50t-36.5 -126t36.5 -126t95.5 -50q81 0 119 76h88q-2 -13 -8 -29t-22 -40.5t-37.5 -43t-58 -32.5t-81.5 -14q-97 0 -161.5 73.5t-64.5 185.5t64 186t161 74q45 0 81.5 -13.5t58 -32t37.5 -42.5t22 -41t9 -31h-89zM439 772
l-116 -193h-76l-118 193h88l68 -112l69 112h85z" />
    <glyph glyph-name="Dcaron" unicode="&#x10e;" horiz-adv-x="779" 
d="M110 0v710h237q166 0 264 -96.5t98 -258.5q0 -160 -98 -257.5t-264 -97.5h-237zM347 621h-140v-532h140q121 0 191.5 72t70.5 194q0 125 -70 195.5t-192 70.5zM532 931l-129 -156h-78l-132 156h98l74 -87l73 87h94z" />
    <glyph glyph-name="dcaron" unicode="&#x10f;" horiz-adv-x="613" 
d="M430 84q-8 -19 -23 -38.5t-50 -38.5t-80 -19q-92 0 -153.5 70t-61.5 189t61.5 189.5t153.5 70.5q34 0 62.5 -10.5t46.5 -27.5t28 -30t16 -26v323h91v-736h-91v84zM432 247q0 77 -38 126.5t-101 49.5t-100 -49.5t-37 -126.5q0 -76 37 -126t100 -50t101 50t38 126zM583 579
l49 193h87l-56 -193h-80z" />
    <glyph glyph-name="Dcroat" unicode="&#x110;" horiz-adv-x="791" 
d="M12 314v88h109v308h237q166 0 264 -96.5t98 -258.5q0 -160 -98 -257.5t-264 -97.5h-237v314h-109zM358 621h-140v-219h216v-88h-216v-225h140q121 0 191.5 72t70.5 194q0 125 -70 195.5t-192 70.5z" />
    <glyph glyph-name="dcroat" unicode="&#x111;" horiz-adv-x="613" 
d="M430 84q-8 -19 -23 -38.5t-50 -38.5t-80 -19q-92 0 -153.5 70t-61.5 189t61.5 189.5t153.5 70.5q34 0 62.5 -10.5t46.5 -27.5t28 -30t16 -26v161h-180v74h180v88h91v-88h91v-74h-91v-574h-91v84zM432 247q0 77 -38 126.5t-101 49.5t-100 -49.5t-37 -126.5q0 -76 37 -126
t100 -50t101 50t38 126z" />
    <glyph glyph-name="Emacron" unicode="&#x112;" horiz-adv-x="700" 
d="M110 0v710h510v-90h-414v-198h244v-90h-244v-242h451v-90h-547zM531 813h-316v78h316v-78z" />
    <glyph glyph-name="emacron" unicode="&#x113;" horiz-adv-x="566" 
d="M285 507q101 0 162.5 -71t61.5 -188v-14h-357q4 -71 41 -117t101 -46q87 0 125 61h87q-5 -20 -16.5 -40.5t-34.5 -46t-65 -41.5t-96 -16q-106 0 -170 74t-64 185q0 115 61.5 187.5t163.5 72.5zM285 429q-54 0 -87 -32.5t-43 -90.5h258q-24 123 -128 123zM431 621h-290v78
h290v-78z" />
    <glyph glyph-name="Ebreve" unicode="&#x114;" horiz-adv-x="700" 
d="M110 0v710h510v-90h-414v-198h244v-90h-244v-242h451v-90h-547zM373 843q32 0 48.5 20.5t16.5 50.5v13h76v-15q0 -62 -37 -101.5t-104 -39.5t-104 39.5t-37 101.5v15h76v-13q0 -30 16.5 -50.5t48.5 -20.5z" />
    <glyph glyph-name="ebreve" unicode="&#x115;" horiz-adv-x="566" 
d="M285 507q101 0 162.5 -71t61.5 -188v-14h-357q4 -71 41 -117t101 -46q87 0 125 61h87q-5 -20 -16.5 -40.5t-34.5 -46t-65 -41.5t-96 -16q-106 0 -170 74t-64 185q0 115 61.5 187.5t163.5 72.5zM285 429q-54 0 -87 -32.5t-43 -90.5h258q-24 123 -128 123zM285 644
q29 0 44 20t15 49v17h75v-19q0 -61 -34.5 -99.5t-99.5 -38.5t-99.5 38.5t-34.5 99.5v19h75v-17q0 -28 15 -48.5t44 -20.5z" />
    <glyph glyph-name="Edotaccent" unicode="&#x116;" horiz-adv-x="700" 
d="M110 0v710h510v-90h-414v-198h244v-90h-244v-242h451v-90h-547zM326 778v143h94v-143h-94z" />
    <glyph glyph-name="edotaccent" unicode="&#x117;" horiz-adv-x="566" 
d="M285 507q101 0 162.5 -71t61.5 -188v-14h-357q4 -71 41 -117t101 -46q87 0 125 61h87q-5 -20 -16.5 -40.5t-34.5 -46t-65 -41.5t-96 -16q-106 0 -170 74t-64 185q0 115 61.5 187.5t163.5 72.5zM285 429q-54 0 -87 -32.5t-43 -90.5h258q-24 123 -128 123zM238 589v143h94
v-143h-94z" />
    <glyph glyph-name="Eogonek" unicode="&#x118;" horiz-adv-x="700" 
d="M110 0v710h510v-90h-414v-198h244v-90h-244v-242h451v-90h-105q-27 -25 -36 -33t-24.5 -24t-20.5 -26t-5 -19q0 -30 39 -30h67v-82h-72q-129 0 -129 94q0 24 15.5 47.5t28 34.5t46.5 38h-351z" />
    <glyph glyph-name="eogonek" unicode="&#x119;" horiz-adv-x="566" 
d="M285 507q101 0 162.5 -71t61.5 -188v-14h-357q4 -71 41 -117t101 -46q87 0 125 61h87q-17 -61 -86 -122q-48 -43 -69 -68t-21 -44q0 -30 39 -30h67v-82h-72q-129 0 -129 90q0 56 83 113q-8 -1 -24 -1q-106 0 -170 74t-64 185q0 115 61.5 187.5t163.5 72.5zM285 429
q-54 0 -87 -32.5t-43 -90.5h258q-24 123 -128 123z" />
    <glyph glyph-name="Ecaron" unicode="&#x11a;" horiz-adv-x="700" 
d="M110 0v710h510v-90h-414v-198h244v-90h-244v-242h451v-90h-547zM540 931l-129 -156h-78l-132 156h98l74 -87l73 87h94z" />
    <glyph glyph-name="ecaron" unicode="&#x11b;" horiz-adv-x="566" 
d="M285 507q101 0 162.5 -71t61.5 -188v-14h-357q4 -71 41 -117t101 -46q87 0 125 61h87q-5 -20 -16.5 -40.5t-34.5 -46t-65 -41.5t-96 -16q-106 0 -170 74t-64 185q0 115 61.5 187.5t163.5 72.5zM285 429q-54 0 -87 -32.5t-43 -90.5h258q-24 123 -128 123zM439 772
l-116 -193h-76l-118 193h88l68 -112l69 112h85z" />
    <glyph glyph-name="Gcircumflex" unicode="&#x11c;" horiz-adv-x="777" 
d="M688 83q-99 -95 -273 -95q-155 0 -249 103t-94 265q0 158 91 262t233 104q66 0 120 -20t86 -50.5t49.5 -59t24.5 -53.5h-100q-59 93 -180 93q-103 0 -163.5 -78t-60.5 -198q0 -126 65.5 -202t177.5 -76q118 0 181 45v188h-234v87h326v-315zM470 775l-73 87l-74 -87h-98
l132 156h78l129 -156h-94z" />
    <glyph glyph-name="gcircumflex" unicode="&#x11d;" horiz-adv-x="607" 
d="M424 78q-6 -12 -15.5 -23.5t-27.5 -29t-45.5 -28t-60.5 -10.5q-90 0 -151.5 70.5t-61.5 188.5q0 119 61.5 189.5t151.5 70.5q33 0 60.5 -10.5t45 -27.5t27.5 -30t16 -26v82h91v-483q0 -110 -58 -173.5t-171 -63.5q-46 0 -84.5 11.5t-61.5 27.5t-40 36t-24 36t-9 28h96
q35 -56 123 -56q138 0 138 154v67zM426 246q0 76 -37 126t-97 50q-61 0 -98.5 -50t-37.5 -126q0 -75 37.5 -125t98.5 -50q60 0 97 50t37 125zM361 576l-69 112l-68 -112h-88l118 193h76l116 -193h-85z" />
    <glyph glyph-name="Gbreve" unicode="&#x11e;" horiz-adv-x="777" 
d="M688 83q-99 -95 -273 -95q-155 0 -249 103t-94 265q0 158 91 262t233 104q66 0 120 -20t86 -50.5t49.5 -59t24.5 -53.5h-100q-59 93 -180 93q-103 0 -163.5 -78t-60.5 -198q0 -126 65.5 -202t177.5 -76q118 0 181 45v188h-234v87h326v-315zM396 843q32 0 48.5 20.5
t16.5 50.5v13h76v-15q0 -62 -37 -101.5t-104 -39.5t-104 39.5t-37 101.5v15h76v-13q0 -30 16.5 -50.5t48.5 -20.5z" />
    <glyph glyph-name="gbreve" unicode="&#x11f;" horiz-adv-x="607" 
d="M424 78q-6 -12 -15.5 -23.5t-27.5 -29t-45.5 -28t-60.5 -10.5q-90 0 -151.5 70.5t-61.5 188.5q0 119 61.5 189.5t151.5 70.5q33 0 60.5 -10.5t45 -27.5t27.5 -30t16 -26v82h91v-483q0 -110 -58 -173.5t-171 -63.5q-46 0 -84.5 11.5t-61.5 27.5t-40 36t-24 36t-9 28h96
q35 -56 123 -56q138 0 138 154v67zM426 246q0 76 -37 126t-97 50q-61 0 -98.5 -50t-37.5 -126q0 -75 37.5 -125t98.5 -50q60 0 97 50t37 125zM292 644q29 0 44 20t15 49v17h75v-19q0 -61 -34.5 -99.5t-99.5 -38.5t-99.5 38.5t-34.5 99.5v19h75v-17q0 -28 15 -48.5t44 -20.5z
" />
    <glyph glyph-name="Gdotaccent" unicode="&#x120;" horiz-adv-x="777" 
d="M688 83q-99 -95 -273 -95q-155 0 -249 103t-94 265q0 158 91 262t233 104q66 0 120 -20t86 -50.5t49.5 -59t24.5 -53.5h-100q-59 93 -180 93q-103 0 -163.5 -78t-60.5 -198q0 -126 65.5 -202t177.5 -76q118 0 181 45v188h-234v87h326v-315zM349 778v143h94v-143h-94z" />
    <glyph glyph-name="gdotaccent" unicode="&#x121;" horiz-adv-x="607" 
d="M424 78q-6 -12 -15.5 -23.5t-27.5 -29t-45.5 -28t-60.5 -10.5q-90 0 -151.5 70.5t-61.5 188.5q0 119 61.5 189.5t151.5 70.5q33 0 60.5 -10.5t45 -27.5t27.5 -30t16 -26v82h91v-483q0 -110 -58 -173.5t-171 -63.5q-46 0 -84.5 11.5t-61.5 27.5t-40 36t-24 36t-9 28h96
q35 -56 123 -56q138 0 138 154v67zM426 246q0 76 -37 126t-97 50q-61 0 -98.5 -50t-37.5 -126q0 -75 37.5 -125t98.5 -50q60 0 97 50t37 125zM245 589v143h94v-143h-94z" />
    <glyph glyph-name="uni0122" unicode="&#x122;" horiz-adv-x="777" 
d="M688 83q-99 -95 -273 -95q-155 0 -249 103t-94 265q0 158 91 262t233 104q66 0 120 -20t86 -50.5t49.5 -59t24.5 -53.5h-100q-59 93 -180 93q-103 0 -163.5 -78t-60.5 -198q0 -126 65.5 -202t177.5 -76q118 0 181 45v188h-234v87h326v-315zM450 -325h-67q35 65 35 115
h-52v115h112v-98q0 -68 -28 -132z" />
    <glyph glyph-name="uni0123" unicode="&#x123;" horiz-adv-x="607" 
d="M424 78q-6 -12 -15.5 -23.5t-27.5 -29t-45.5 -28t-60.5 -10.5q-90 0 -151.5 70.5t-61.5 188.5q0 119 61.5 189.5t151.5 70.5q33 0 60.5 -10.5t45 -27.5t27.5 -30t16 -26v82h91v-483q0 -110 -58 -173.5t-171 -63.5q-46 0 -84.5 11.5t-61.5 27.5t-40 36t-24 36t-9 28h96
q35 -56 123 -56q138 0 138 154v67zM426 246q0 76 -37 126t-97 50q-61 0 -98.5 -50t-37.5 -126q0 -75 37.5 -125t98.5 -50q60 0 97 50t37 125zM244 819h67q-35 -65 -35 -115h52v-115h-112v98q0 68 28 132z" />
    <glyph glyph-name="Hcircumflex" unicode="&#x124;" horiz-adv-x="807" 
d="M600 0v313h-393v-313h-97v710h97v-307h393v307h97v-710h-97zM477 775l-73 87l-74 -87h-98l132 156h78l129 -156h-94z" />
    <glyph glyph-name="hcircumflex" unicode="&#x125;" horiz-adv-x="609" 
d="M183 272v-272h-91v736h91v-329q16 39 54 68.5t94 29.5q86 0 138 -58t52 -158v-289h-92v272q0 72 -32 110.5t-88 38.5q-59 0 -92.5 -39t-33.5 -110zM380 801l-73 87l-74 -87h-98l132 156h78l129 -156h-94z" />
    <glyph glyph-name="Hbar" unicode="&#x126;" horiz-adv-x="807" 
d="M12 514v76h98v120h97v-120h393v120h97v-120h98v-76h-98v-514h-97v313h-393v-313h-97v514h-98zM207 403h393v111h-393v-111z" />
    <glyph glyph-name="hbar" unicode="&#x127;" horiz-adv-x="609" 
d="M183 272v-272h-91v574h-91v74h91v88h91v-88h180v-74h-180v-167q16 39 54 68.5t94 29.5q86 0 138 -58t52 -158v-289h-92v272q0 72 -32 110.5t-88 38.5q-59 0 -92.5 -39t-33.5 -110z" />
    <glyph glyph-name="Itilde" unicode="&#x128;" horiz-adv-x="319" 
d="M111 0v710h97v-710h-97zM155 816l-36 22q-23 15 -34 15q-17 0 -17 -24v-56h-73v66q0 94 77 94q8 0 17 -2t15 -3.5t15.5 -6.5t13.5 -7.5t15.5 -9.5t14.5 -9l36 -22q26 -15 34 -15q17 0 17 24v56h73v-66q0 -94 -77 -94q-10 0 -19 1.5t-20.5 7t-15.5 7.5t-19 11.5t-17 10.5z
" />
    <glyph glyph-name="itilde" unicode="&#x129;" horiz-adv-x="277" 
d="M58 575h-70v74q0 44 19.5 69t58.5 25q25 0 42 -9.5t42 -33.5l24 -23q19 -17 28 -17q17 0 17 23v65h70v-74q0 -44 -19.5 -69t-58.5 -25q-24 0 -41 10t-42 33l-24 23q-19 17 -28 17q-18 0 -18 -23v-65zM93 0v494h91v-494h-91z" />
    <glyph glyph-name="Imacron" unicode="&#x12a;" horiz-adv-x="319" 
d="M111 0v710h97v-710h-97zM317 813h-316v78h316v-78z" />
    <glyph glyph-name="imacron" unicode="&#x12b;" horiz-adv-x="277" 
d="M276 621h-275v78h275v-78zM93 0v494h91v-494h-91z" />
    <glyph glyph-name="Ibreve" unicode="&#x12c;" horiz-adv-x="319" 
d="M111 0v710h97v-710h-97zM159 843q32 0 48.5 20.5t16.5 50.5v13h76v-15q0 -62 -37 -101.5t-104 -39.5t-104 39.5t-37 101.5v15h76v-13q0 -30 16.5 -50.5t48.5 -20.5z" />
    <glyph glyph-name="ibreve" unicode="&#x12d;" horiz-adv-x="277" 
d="M138 644q29 0 44 20t15 49v17h75v-19q0 -61 -34.5 -99.5t-99.5 -38.5t-99.5 38.5t-34.5 99.5v19h75v-17q0 -28 15 -48.5t44 -20.5zM93 0v494h91v-494h-91z" />
    <glyph glyph-name="Iogonek" unicode="&#x12e;" horiz-adv-x="319" 
d="M111 0v710h97v-710q-27 -25 -36 -33t-24.5 -24t-20.5 -26t-5 -19q0 -30 39 -30h67v-82h-72q-129 0 -129 94q0 24 14 47t27 35.5t43 37.5z" />
    <glyph glyph-name="iogonek" unicode="&#x12f;" horiz-adv-x="277" 
d="M203 -132v-82h-72q-129 0 -129 94q0 24 15.5 47.5t28 34.5t46.5 38h1v494h91v-494h-1q-27 -25 -36 -33t-24.5 -24t-20.5 -26t-5 -19q0 -30 39 -30h67zM91 589v143h95v-143h-95z" />
    <glyph glyph-name="Idotaccent" unicode="&#x130;" horiz-adv-x="319" 
d="M111 0v710h97v-710h-97zM112 778v143h94v-143h-94z" />
    <glyph glyph-name="dotlessi" unicode="&#x131;" horiz-adv-x="277" 
d="M93 0v494h91v-494h-91z" />
    <glyph glyph-name="IJ" unicode="&#x132;" horiz-adv-x="956" 
d="M111 0v710h97v-710h-97zM849 216q0 -110 -60.5 -168.5t-161.5 -58.5q-99 0 -159 58.5t-60 168.5v196h96v-196q0 -63 32.5 -99t90.5 -36q60 0 92.5 36t32.5 99v494h97v-494z" />
    <glyph glyph-name="ij" unicode="&#x133;" horiz-adv-x="555" 
d="M91 589v143h95v-143h-95zM93 0v494h91v-494h-91zM369 589v143h95v-143h-95zM462 -48q0 -166 -163 -166h-121v85h106q87 0 87 91v532h91v-542z" />
    <glyph glyph-name="Jcircumflex" unicode="&#x134;" horiz-adv-x="637" 
d="M530 216q0 -110 -60.5 -168.5t-161.5 -58.5q-99 0 -159 58.5t-60 168.5v196h96v-196q0 -63 32.5 -99t90.5 -36q60 0 92.5 36t32.5 99v494h97v-494zM554 775l-73 87l-74 -87h-98l132 156h78l129 -156h-94z" />
    <glyph glyph-name="jcircumflex" unicode="&#x135;" horiz-adv-x="278" 
d="M208 576l-69 112l-68 -112h-88l118 193h76l116 -193h-85zM185 -48q0 -166 -163 -166h-120v85h105q87 0 87 91v532h91v-542z" />
    <glyph glyph-name="uni0136" unicode="&#x136;" horiz-adv-x="722" 
d="M577 0l-370 329v-329h-97v710h97v-326l353 326h133l-379 -348l399 -362h-136zM410 -325h-67q35 65 35 115h-52v115h112v-98q0 -68 -28 -132z" />
    <glyph glyph-name="uni0137" unicode="&#x137;" horiz-adv-x="556" 
d="M428 0l-248 232v-232h-88v736h88v-454l233 212h125l-260 -233l273 -261h-123zM332 -325h-67q35 65 35 115h-52v115h112v-98q0 -68 -28 -132z" />
    <glyph glyph-name="Lacute" unicode="&#x139;" horiz-adv-x="675" 
d="M637 91v-91h-527v710h97v-619h430zM110 778l102 150h110l-110 -150h-102z" />
    <glyph glyph-name="lacute" unicode="&#x13a;" horiz-adv-x="279" 
d="M94 0v736h91v-736h-91zM89 804l102 150h110l-110 -150h-102z" />
    <glyph glyph-name="uni013B" unicode="&#x13b;" horiz-adv-x="675" 
d="M637 91v-91h-527v710h97v-619h430zM420 -325h-67q35 65 35 115h-52v115h112v-98q0 -68 -28 -132z" />
    <glyph glyph-name="uni013C" unicode="&#x13c;" horiz-adv-x="279" 
d="M94 0v736h91v-736h-91zM170 -325h-67q35 65 35 115h-52v115h112v-98q0 -68 -28 -132z" />
    <glyph glyph-name="Lcaron" unicode="&#x13d;" horiz-adv-x="675" 
d="M637 91v-91h-527v710h97v-619h430zM272 579l49 193h87l-56 -193h-80z" />
    <glyph glyph-name="lcaron" unicode="&#x13e;" horiz-adv-x="279" 
d="M94 0v736h91v-736h-91zM247 579l49 193h87l-56 -193h-80z" />
    <glyph glyph-name="Ldot" unicode="&#x13f;" horiz-adv-x="675" 
d="M637 91v-91h-527v710h97v-619h430zM444 324v142h116v-142h-116z" />
    <glyph glyph-name="ldot" unicode="&#x140;" horiz-adv-x="437" 
d="M94 0v736h91v-736h-91zM300 305v142h116v-142h-116z" />
    <glyph glyph-name="Lslash" unicode="&#x141;" horiz-adv-x="682" 
d="M639 91v-91h-527v225l-95 -51v89l95 52v395h97v-342l267 146v-92l-267 -144v-187h430z" />
    <glyph glyph-name="lslash" unicode="&#x142;" horiz-adv-x="349" 
d="M24 258v87l103 58v333h91v-282l107 60v-90l-107 -59v-365h-91v315z" />
    <glyph glyph-name="Nacute" unicode="&#x143;" horiz-adv-x="813" 
d="M703 710v-715h-73l-427 591v-586h-93v710h116l384 -538v538h93zM369 778l102 150h110l-110 -150h-102z" />
    <glyph glyph-name="nacute" unicode="&#x144;" horiz-adv-x="609" 
d="M183 277v-277h-91v494h91v-83q16 37 54 65.5t94 28.5q86 0 138 -56.5t52 -154.5v-294h-92v277q0 70 -32 107t-88 37q-59 0 -92.5 -37.5t-33.5 -106.5zM263 579l98 183h100l-105 -183h-93z" />
    <glyph glyph-name="uni0145" unicode="&#x145;" horiz-adv-x="813" 
d="M703 710v-715h-73l-427 591v-586h-93v710h116l384 -538v538h93zM439 -325h-67q35 65 35 115h-52v115h112v-98q0 -68 -28 -132z" />
    <glyph glyph-name="uni0146" unicode="&#x146;" horiz-adv-x="609" 
d="M183 277v-277h-91v494h91v-83q16 37 54 65.5t94 28.5q86 0 138 -56.5t52 -154.5v-294h-92v277q0 70 -32 107t-88 37q-59 0 -92.5 -37.5t-33.5 -106.5zM339 -325h-67q35 65 35 115h-52v115h112v-98q0 -68 -28 -132z" />
    <glyph glyph-name="Ncaron" unicode="&#x147;" horiz-adv-x="813" 
d="M703 710v-715h-73l-427 591v-586h-93v710h116l384 -538v538h93zM585 931l-129 -156h-78l-132 156h98l74 -87l73 87h94z" />
    <glyph glyph-name="ncaron" unicode="&#x148;" horiz-adv-x="609" 
d="M183 277v-277h-91v494h91v-83q16 37 54 65.5t94 28.5q86 0 138 -56.5t52 -154.5v-294h-92v277q0 70 -32 107t-88 37q-59 0 -92.5 -37.5t-33.5 -106.5zM456 772l-116 -193h-76l-118 193h88l68 -112l69 112h85z" />
    <glyph glyph-name="napostrophe" unicode="&#x149;" horiz-adv-x="840" 
d="M414 277v-277h-91v494h91v-83q16 37 54 65.5t94 28.5q86 0 138 -56.5t52 -154.5v-294h-92v277q0 70 -32 107t-88 37q-59 0 -92.5 -37.5t-33.5 -106.5zM136 404h-71q61 115 61 202h-55v130h116v-120q0 -114 -51 -212z" />
    <glyph glyph-name="Eng" unicode="&#x14a;" horiz-adv-x="815" 
d="M705 -35q0 -179 -176 -179h-79v88h60q103 0 103 91q0 51 -56 129l-354 497v-591h-93v710h118l384 -539v539h93v-745z" />
    <glyph glyph-name="eng" unicode="&#x14b;" horiz-adv-x="609" 
d="M521 -48q0 -166 -163 -166h-121v85h105q87 0 87 91v315q0 70 -32 107t-88 37q-59 0 -92.5 -37.5t-33.5 -106.5v-277h-91v494h91v-83q16 37 54 65.5t94 28.5q86 0 138 -56.5t52 -154.5v-342z" />
    <glyph glyph-name="Omacron" unicode="&#x14c;" horiz-adv-x="782" 
d="M391 -12q-145 0 -232 103t-87 264q0 160 87.5 263.5t231.5 103.5q143 0 231 -104t88 -263t-88 -263t-231 -104zM391 78q103 0 161 78t58 199q0 119 -58.5 198t-160.5 79t-160.5 -78.5t-58.5 -198.5q0 -122 58 -199.5t161 -77.5zM549 813h-316v78h316v-78z" />
    <glyph glyph-name="omacron" unicode="&#x14d;" horiz-adv-x="584" 
d="M292 506q104 0 168 -73.5t64 -185.5t-64 -185.5t-168 -73.5t-168 73.5t-64 185.5t64 185.5t168 73.5zM292 72q65 0 101.5 49.5t36.5 125.5t-36.5 125.5t-101.5 49.5t-101.5 -49.5t-36.5 -125.5t36 -125.5t102 -49.5zM438 621h-290v78h290v-78z" />
    <glyph glyph-name="Obreve" unicode="&#x14e;" horiz-adv-x="782" 
d="M391 -12q-145 0 -232 103t-87 264q0 160 87.5 263.5t231.5 103.5q143 0 231 -104t88 -263t-88 -263t-231 -104zM391 78q103 0 161 78t58 199q0 119 -58.5 198t-160.5 79t-160.5 -78.5t-58.5 -198.5q0 -122 58 -199.5t161 -77.5zM391 843q32 0 48.5 20.5t16.5 50.5v13h76
v-15q0 -62 -37 -101.5t-104 -39.5t-104 39.5t-37 101.5v15h76v-13q0 -30 16.5 -50.5t48.5 -20.5z" />
    <glyph glyph-name="obreve" unicode="&#x14f;" horiz-adv-x="584" 
d="M292 506q104 0 168 -73.5t64 -185.5t-64 -185.5t-168 -73.5t-168 73.5t-64 185.5t64 185.5t168 73.5zM292 72q65 0 101.5 49.5t36.5 125.5t-36.5 125.5t-101.5 49.5t-101.5 -49.5t-36.5 -125.5t36 -125.5t102 -49.5zM292 644q29 0 44 20t15 49v17h75v-19
q0 -61 -34.5 -99.5t-99.5 -38.5t-99.5 38.5t-34.5 99.5v19h75v-17q0 -28 15 -48.5t44 -20.5z" />
    <glyph glyph-name="Ohungarumlaut" unicode="&#x150;" horiz-adv-x="782" 
d="M391 -12q-145 0 -232 103t-87 264q0 160 87.5 263.5t231.5 103.5q143 0 231 -104t88 -263t-88 -263t-231 -104zM391 78q103 0 161 78t58 199q0 119 -58.5 198t-160.5 79t-160.5 -78.5t-58.5 -198.5q0 -122 58 -199.5t161 -77.5zM432 778l78 150h92l-85 -150h-85zM258 778
l78 150h92l-85 -150h-85z" />
    <glyph glyph-name="ohungarumlaut" unicode="&#x151;" horiz-adv-x="584" 
d="M292 506q104 0 168 -73.5t64 -185.5t-64 -185.5t-168 -73.5t-168 73.5t-64 185.5t64 185.5t168 73.5zM292 72q65 0 101.5 49.5t36.5 125.5t-36.5 125.5t-101.5 49.5t-101.5 -49.5t-36.5 -125.5t36 -125.5t102 -49.5zM338 579l74 183h88l-81 -183h-81zM169 579l74 183h88
l-81 -183h-81z" />
    <glyph glyph-name="OE" unicode="&#x152;" horiz-adv-x="1049" 
d="M70 355q0 156 99 255.5t259 99.5h543v-90h-365v-198h219v-90h-219v-242h400v-90h-578q-161 0 -259.5 98.5t-98.5 256.5zM428 90h81v530h-81q-119 0 -188.5 -74t-69.5 -191t69.5 -191t188.5 -74z" />
    <glyph glyph-name="oe" unicode="&#x153;" horiz-adv-x="932" 
d="M653 507q99 0 160.5 -71t61.5 -188v-14h-353q4 -71 40.5 -117t99.5 -46q85 0 123 61h87q-5 -20 -16.5 -40.5t-34.5 -46t-64 -41.5t-95 -16q-69 0 -119 31.5t-73 78.5q-20 -46 -67 -78t-113 -32q-102 0 -166 73.5t-64 185.5t64 186t166 74q66 0 115 -30.5t69 -74.5
q22 46 68 75.5t111 29.5zM653 429q-53 0 -85.5 -32.5t-42.5 -90.5h254q-24 123 -126 123zM292 71q66 0 102 49.5t36 126.5t-36 126.5t-102 49.5q-64 0 -101 -50t-37 -126t36.5 -126t101.5 -50z" />
    <glyph glyph-name="Racute" unicode="&#x154;" horiz-adv-x="751" 
d="M110 0v710h320q113 0 173 -50.5t60 -144.5q0 -154 -154 -187l187 -328h-105l-186 320h-198v-320h-97zM429 620h-222v-211h222q134 0 134 106q0 105 -134 105zM316 778l102 150h110l-110 -150h-102z" />
    <glyph glyph-name="racute" unicode="&#x155;" horiz-adv-x="479" 
d="M183 279v-279h-91v494h91v-89q14 36 54 64.5t114 28.5h95v-91h-103q-84 0 -122 -31t-38 -97zM223 579l98 183h100l-105 -183h-93z" />
    <glyph glyph-name="uni0156" unicode="&#x156;" horiz-adv-x="751" 
d="M110 0v710h320q113 0 173 -50.5t60 -144.5q0 -154 -154 -187l187 -328h-105l-186 320h-198v-320h-97zM429 620h-222v-211h222q134 0 134 106q0 105 -134 105zM414 -325h-67q35 65 35 115h-52v115h112v-98q0 -68 -28 -132z" />
    <glyph glyph-name="uni0157" unicode="&#x157;" horiz-adv-x="479" 
d="M183 279v-279h-91v494h91v-89q14 36 54 64.5t114 28.5h95v-91h-103q-84 0 -122 -31t-38 -97zM169 -325h-67q35 65 35 115h-52v115h112v-98q0 -68 -28 -132z" />
    <glyph glyph-name="Rcaron" unicode="&#x158;" horiz-adv-x="751" 
d="M110 0v710h320q113 0 173 -50.5t60 -144.5q0 -154 -154 -187l187 -328h-105l-186 320h-198v-320h-97zM429 620h-222v-211h222q134 0 134 106q0 105 -134 105zM533 931l-129 -156h-78l-132 156h98l74 -87l73 87h94z" />
    <glyph glyph-name="rcaron" unicode="&#x159;" horiz-adv-x="479" 
d="M183 279v-279h-91v494h91v-89q14 36 54 64.5t114 28.5h95v-91h-103q-84 0 -122 -31t-38 -97zM423 772l-116 -193h-76l-118 193h88l68 -112l69 112h85z" />
    <glyph glyph-name="Sacute" unicode="&#x15a;" horiz-adv-x="705" 
d="M330 633q-73 0 -114.5 -29t-41.5 -77q0 -47 35.5 -71t99.5 -34l94 -14q49 -7 86.5 -20t72.5 -35.5t53.5 -60.5t18.5 -90q0 -93 -71 -154t-192 -61q-72 0 -130.5 18.5t-95.5 50t-60 67t-33 75.5h103q18 -47 70.5 -84.5t145.5 -37.5q75 0 120.5 33t45.5 88t-37.5 81
t-104.5 36l-94 14q-106 16 -165 61.5t-59 137.5q0 89 71 142t182 53q127 0 198.5 -54.5t89.5 -129.5h-100q-52 95 -188 95zM293 778l102 150h110l-110 -150h-102z" />
    <glyph glyph-name="sacute" unicode="&#x15b;" horiz-adv-x="539" 
d="M302 205l-71 8q-76 9 -120.5 45.5t-44.5 102.5t53 106.5t137 40.5q46 0 83 -10.5t59.5 -24.5t39 -34t23.5 -34.5t12 -29.5h-90q-6 9 -17 19.5t-41.5 22.5t-68.5 12q-48 0 -74.5 -18t-26.5 -46q0 -55 88 -65l69 -8q169 -20 169 -155q0 -67 -51.5 -109t-143.5 -42
q-59 0 -105.5 16.5t-72 41t-39 47.5t-17.5 42h93q36 -66 141 -66q51 0 77.5 18t26.5 48q0 32 -20 49.5t-68 22.5zM213 579l98 183h100l-105 -183h-93z" />
    <glyph glyph-name="Scircumflex" unicode="&#x15c;" horiz-adv-x="705" 
d="M330 633q-73 0 -114.5 -29t-41.5 -77q0 -47 35.5 -71t99.5 -34l94 -14q49 -7 86.5 -20t72.5 -35.5t53.5 -60.5t18.5 -90q0 -93 -71 -154t-192 -61q-72 0 -130.5 18.5t-95.5 50t-60 67t-33 75.5h103q18 -47 70.5 -84.5t145.5 -37.5q75 0 120.5 33t45.5 88t-37.5 81
t-104.5 36l-94 14q-106 16 -165 61.5t-59 137.5q0 89 71 142t182 53q127 0 198.5 -54.5t89.5 -129.5h-100q-52 95 -188 95zM417 775l-73 87l-74 -87h-98l132 156h78l129 -156h-94z" />
    <glyph glyph-name="scircumflex" unicode="&#x15d;" horiz-adv-x="539" 
d="M302 205l-71 8q-76 9 -120.5 45.5t-44.5 102.5t53 106.5t137 40.5q46 0 83 -10.5t59.5 -24.5t39 -34t23.5 -34.5t12 -29.5h-90q-6 9 -17 19.5t-41.5 22.5t-68.5 12q-48 0 -74.5 -18t-26.5 -46q0 -55 88 -65l69 -8q169 -20 169 -155q0 -67 -51.5 -109t-143.5 -42
q-59 0 -105.5 16.5t-72 41t-39 47.5t-17.5 42h93q36 -66 141 -66q51 0 77.5 18t26.5 48q0 32 -20 49.5t-68 22.5zM335 576l-69 112l-68 -112h-88l118 193h76l116 -193h-85z" />
    <glyph glyph-name="uni015E" unicode="&#x15e;" horiz-adv-x="705" 
d="M465 -156q0 -49 -29 -79t-88 -30h-95v74h84q41 0 41 35q0 34 -41 34h-61v119q-95 19 -150.5 75t-73.5 126h103q18 -47 70.5 -84.5t145.5 -37.5q75 0 120.5 33t45.5 88t-37.5 81t-104.5 36l-94 14q-106 16 -165 61.5t-59 137.5q0 89 71 142t182 53q127 0 198.5 -54.5
t89.5 -129.5h-100q-52 95 -188 95q-73 0 -114.5 -29t-41.5 -77q0 -47 35.5 -71t99.5 -34l94 -14q49 -7 86.5 -20t72.5 -35.5t53.5 -60.5t18.5 -90q0 -93 -71 -154t-192 -61h-15v-42q54 0 81.5 -27.5t27.5 -73.5z" />
    <glyph glyph-name="uni015F" unicode="&#x15f;" horiz-adv-x="539" 
d="M302 205l-71 8q-76 9 -120.5 45.5t-44.5 102.5t53 106.5t137 40.5q46 0 83 -10.5t59.5 -24.5t39 -34t23.5 -34.5t12 -29.5h-90q-6 9 -17 19.5t-41.5 22.5t-68.5 12q-48 0 -74.5 -18t-26.5 -46q0 -55 88 -65l69 -8q169 -20 169 -155q0 -67 -51.5 -109t-143.5 -42h-7v-41
q54 0 81.5 -27.5t27.5 -73.5q0 -49 -29 -79t-88 -30h-95v74h84q41 0 41 35q0 34 -41 34h-61v119q-67 18 -104 59t-43 77h93q36 -66 141 -66q51 0 77.5 18t26.5 48q0 32 -20 49.5t-68 22.5z" />
    <glyph glyph-name="Scaron" unicode="&#x160;" horiz-adv-x="705" 
d="M330 633q-73 0 -114.5 -29t-41.5 -77q0 -47 35.5 -71t99.5 -34l94 -14q49 -7 86.5 -20t72.5 -35.5t53.5 -60.5t18.5 -90q0 -93 -71 -154t-192 -61q-72 0 -130.5 18.5t-95.5 50t-60 67t-33 75.5h103q18 -47 70.5 -84.5t145.5 -37.5q75 0 120.5 33t45.5 88t-37.5 81
t-104.5 36l-94 14q-106 16 -165 61.5t-59 137.5q0 89 71 142t182 53q127 0 198.5 -54.5t89.5 -129.5h-100q-52 95 -188 95zM510 931l-129 -156h-78l-132 156h98l74 -87l73 87h94z" />
    <glyph glyph-name="scaron" unicode="&#x161;" horiz-adv-x="539" 
d="M302 205l-71 8q-76 9 -120.5 45.5t-44.5 102.5t53 106.5t137 40.5q46 0 83 -10.5t59.5 -24.5t39 -34t23.5 -34.5t12 -29.5h-90q-6 9 -17 19.5t-41.5 22.5t-68.5 12q-48 0 -74.5 -18t-26.5 -46q0 -55 88 -65l69 -8q169 -20 169 -155q0 -67 -51.5 -109t-143.5 -42
q-59 0 -105.5 16.5t-72 41t-39 47.5t-17.5 42h93q36 -66 141 -66q51 0 77.5 18t26.5 48q0 32 -20 49.5t-68 22.5zM420 772l-116 -193h-76l-118 193h88l68 -112l69 112h85z" />
    <glyph glyph-name="Tcommaaccent" unicode="&#x162;" horiz-adv-x="723" 
d="M40 620v90h643v-90h-273v-620h-97v620h-273zM392 -325h-67q35 65 35 115h-52v115h112v-98q0 -68 -28 -132z" />
    <glyph glyph-name="tcommaaccent" unicode="&#x163;" horiz-adv-x="481" 
d="M430 84v-84h-106q-164 0 -164 161v251h-129v82h129v216h91v-216h179v-82h-179v-232q0 -52 21 -74t75 -22h83zM314 -325h-67q35 65 35 115h-52v115h112v-98q0 -68 -28 -132z" />
    <glyph glyph-name="Tcaron" unicode="&#x164;" horiz-adv-x="723" 
d="M40 620v90h643v-90h-273v-620h-97v620h-273zM528 931l-129 -156h-78l-132 156h98l74 -87l73 87h94z" />
    <glyph glyph-name="tcaron" unicode="&#x165;" horiz-adv-x="480" 
d="M430 84v-84h-106q-164 0 -164 161v251h-129v82h129v216h91v-216h179v-82h-179v-232q0 -52 21 -74t75 -22h83zM314 579l49 193h87l-56 -193h-80z" />
    <glyph glyph-name="Tbar" unicode="&#x166;" horiz-adv-x="723" 
d="M40 620v90h643v-90h-273v-201h184v-84h-184v-335h-97v335h-184v84h184v201h-273z" />
    <glyph glyph-name="tbar" unicode="&#x167;" horiz-adv-x="496" 
d="M438 84v-84h-106q-164 0 -164 161v80h-129v74h129v97h-129v82h129v216h91v-216h179v-82h-179v-97h179v-74h-179v-61q0 -52 21 -74t75 -22h83z" />
    <glyph glyph-name="Utilde" unicode="&#x168;" horiz-adv-x="794" 
d="M397 81q91 0 142 55.5t51 145.5v428h97v-436q0 -122 -76.5 -204t-213.5 -82q-141 0 -215.5 80.5t-74.5 205.5v436h97v-428q0 -91 50 -146t143 -55zM393 816l-36 22q-23 15 -34 15q-17 0 -17 -24v-56h-73v66q0 94 77 94q8 0 17 -2t15 -3.5t15.5 -6.5t13.5 -7.5t15.5 -9.5
t14.5 -9l36 -22q26 -15 34 -15q17 0 17 24v56h73v-66q0 -94 -77 -94q-10 0 -19 1.5t-20.5 7t-15.5 7.5t-19 11.5t-17 10.5z" />
    <glyph glyph-name="utilde" unicode="&#x169;" horiz-adv-x="598" 
d="M300 -10q-102 0 -157 56t-55 150v298h92v-293q0 -57 31 -91t89 -34q57 0 88.5 34t31.5 91v293h90v-298q0 -89 -56 -147.5t-154 -58.5zM218 575h-71v74q0 44 19.5 69t58.5 25q25 0 43 -10t44 -33l25 -23q19 -17 29 -17q17 0 17 23v65h71v-74q0 -44 -19.5 -69t-58.5 -25
q-25 0 -43 10t-43 33l-25 23q-19 17 -30 17q-17 0 -17 -23v-65z" />
    <glyph glyph-name="Umacron" unicode="&#x16a;" horiz-adv-x="794" 
d="M397 81q91 0 142 55.5t51 145.5v428h97v-436q0 -122 -76.5 -204t-213.5 -82q-141 0 -215.5 80.5t-74.5 205.5v436h97v-428q0 -91 50 -146t143 -55zM555 813h-316v78h316v-78z" />
    <glyph glyph-name="umacron" unicode="&#x16b;" horiz-adv-x="598" 
d="M300 -10q-102 0 -157 56t-55 150v298h92v-293q0 -57 31 -91t89 -34q57 0 88.5 34t31.5 91v293h90v-298q0 -89 -56 -147.5t-154 -58.5zM446 621h-290v78h290v-78z" />
    <glyph glyph-name="Ubreve" unicode="&#x16c;" horiz-adv-x="794" 
d="M397 81q91 0 142 55.5t51 145.5v428h97v-436q0 -122 -76.5 -204t-213.5 -82q-141 0 -215.5 80.5t-74.5 205.5v436h97v-428q0 -91 50 -146t143 -55zM397 843q32 0 48.5 20.5t16.5 50.5v13h76v-15q0 -62 -37 -101.5t-104 -39.5t-104 39.5t-37 101.5v15h76v-13
q0 -30 16.5 -50.5t48.5 -20.5z" />
    <glyph glyph-name="ubreve" unicode="&#x16d;" horiz-adv-x="598" 
d="M300 -10q-102 0 -157 56t-55 150v298h92v-293q0 -57 31 -91t89 -34q57 0 88.5 34t31.5 91v293h90v-298q0 -89 -56 -147.5t-154 -58.5zM300 644q29 0 44 20t15 49v17h75v-19q0 -61 -34.5 -99.5t-99.5 -38.5t-99.5 38.5t-34.5 99.5v19h75v-17q0 -28 15 -48.5t44 -20.5z" />
    <glyph glyph-name="Uring" unicode="&#x16e;" horiz-adv-x="794" 
d="M397 81q91 0 142 55.5t51 145.5v428h97v-436q0 -122 -76.5 -204t-213.5 -82q-141 0 -215.5 80.5t-74.5 205.5v436h97v-428q0 -91 50 -146t143 -55zM397 768q-55 0 -91.5 36t-36.5 89q0 54 36.5 90.5t91.5 36.5t91.5 -36.5t36.5 -90.5q0 -53 -36.5 -89t-91.5 -36zM397 829
q27 0 44.5 18.5t17.5 45.5q0 28 -17 46t-45 18t-45 -18t-17 -46q0 -27 17.5 -45.5t44.5 -18.5z" />
    <glyph glyph-name="uring" unicode="&#x16f;" horiz-adv-x="598" 
d="M300 -10q-102 0 -157 56t-55 150v298h92v-293q0 -57 31 -91t89 -34q57 0 88.5 34t31.5 91v293h90v-298q0 -89 -56 -147.5t-154 -58.5zM300 567q-55 0 -91.5 36t-36.5 89q0 54 36.5 90.5t91.5 36.5t91.5 -36.5t36.5 -90.5q0 -53 -36.5 -89t-91.5 -36zM300 628
q27 0 44.5 18.5t17.5 45.5q0 28 -17 46t-45 18t-45 -18t-17 -46q0 -27 17.5 -45.5t44.5 -18.5z" />
    <glyph glyph-name="Uhungarumlaut" unicode="&#x170;" horiz-adv-x="794" 
d="M397 81q91 0 142 55.5t51 145.5v428h97v-436q0 -122 -76.5 -204t-213.5 -82q-141 0 -215.5 80.5t-74.5 205.5v436h97v-428q0 -91 50 -146t143 -55zM438 778l78 150h92l-85 -150h-85zM264 778l78 150h92l-85 -150h-85z" />
    <glyph glyph-name="uhungarumlaut" unicode="&#x171;" horiz-adv-x="598" 
d="M300 -10q-102 0 -157 56t-55 150v298h92v-293q0 -57 31 -91t89 -34q57 0 88.5 34t31.5 91v293h90v-298q0 -89 -56 -147.5t-154 -58.5zM341 579l74 183h88l-81 -183h-81zM172 579l74 183h88l-81 -183h-81z" />
    <glyph glyph-name="Uogonek" unicode="&#x172;" horiz-adv-x="794" 
d="M562 -132v-82h-72q-129 0 -129 94q0 52 79 110q-28 -2 -43 -2q-141 0 -215.5 80.5t-74.5 205.5v436h97v-428q0 -91 50 -146t143 -55q91 0 142 55.5t51 145.5v428h97v-436q0 -152 -134 -262q-54 -44 -75.5 -68t-21.5 -45q0 -31 40 -31h66z" />
    <glyph glyph-name="uogonek" unicode="&#x173;" horiz-adv-x="598" 
d="M443 -132v-82h-72q-129 0 -129 94q0 32 21 56.5t61 54.5q-8 -1 -24 -1q-102 0 -157 56t-55 150v298h92v-293q0 -57 31 -91t89 -34q57 0 88.5 34t31.5 91v293h90v-298q0 -103 -88 -186q-49 -46 -67 -68.5t-18 -42.5q0 -31 39 -31h67z" />
    <glyph glyph-name="Wcircumflex" unicode="&#x174;" horiz-adv-x="1040" 
d="M700 -4l-177 558l-177 -558h-81l-222 714h102l166 -550l171 554h87l174 -560l163 556h91l-211 -714h-86zM598 775l-73 87l-74 -87h-98l132 156h78l129 -156h-94z" />
    <glyph glyph-name="wcircumflex" unicode="&#x175;" horiz-adv-x="809" 
d="M533 -4l-127 375l-127 -375h-81l-170 498h98l119 -365l123 369h84l122 -364l117 360h90l-168 -498h-80zM476 576l-69 112l-68 -112h-88l118 193h76l116 -193h-85z" />
    <glyph glyph-name="Ycircumflex" unicode="&#x176;" horiz-adv-x="685" 
d="M394 286v-286h-97v285l-282 425h120l213 -327l213 327h109zM422 775l-73 87l-74 -87h-98l132 156h78l129 -156h-94z" />
    <glyph glyph-name="ycircumflex" unicode="&#x177;" horiz-adv-x="535" 
d="M510 494l-283 -708h-91l88 222l-199 486h100l146 -367l146 367h93zM340 576l-69 112l-68 -112h-88l118 193h76l116 -193h-85z" />
    <glyph glyph-name="Ydieresis" unicode="&#x178;" horiz-adv-x="685" 
d="M394 286v-286h-97v285l-282 425h120l213 -327l213 327h109zM205 778v139h92v-139h-92zM399 778v139h92v-139h-92z" />
    <glyph glyph-name="Zacute" unicode="&#x179;" horiz-adv-x="709" 
d="M664 90v-90h-609v57l424 563h-415v90h557v-57l-428 -563h471zM289 778l102 150h110l-110 -150h-102z" />
    <glyph glyph-name="zacute" unicode="&#x17a;" horiz-adv-x="559" 
d="M515 82v-82h-459v53l289 359h-285v82h423v-52l-295 -360h327zM222 579l98 183h100l-105 -183h-93z" />
    <glyph glyph-name="Zdotaccent" unicode="&#x17b;" horiz-adv-x="709" 
d="M664 90v-90h-609v57l424 563h-415v90h557v-57l-428 -563h471zM292 778v143h94v-143h-94z" />
    <glyph glyph-name="zdotaccent" unicode="&#x17c;" horiz-adv-x="559" 
d="M515 82v-82h-459v53l289 359h-285v82h423v-52l-295 -360h327zM225 589v143h94v-143h-94z" />
    <glyph glyph-name="Zcaron" unicode="&#x17d;" horiz-adv-x="709" 
d="M664 90v-90h-609v57l424 563h-415v90h557v-57l-428 -563h471zM506 931l-129 -156h-78l-132 156h98l74 -87l73 87h94z" />
    <glyph glyph-name="zcaron" unicode="&#x17e;" horiz-adv-x="559" 
d="M515 82v-82h-459v53l289 359h-285v82h423v-52l-295 -360h327zM422 772l-116 -193h-76l-118 193h88l68 -112l69 112h85z" />
    <glyph glyph-name="uni0192" unicode="&#x192;" horiz-adv-x="583" 
d="M479 342h-189l-89 -556h-92l87 556h-151v83h164l19 119q14 88 56 127t137 39h146v-83h-137q-55 0 -78.5 -21.5t-31.5 -74.5l-17 -106h176v-83z" />
    <glyph glyph-name="Aringacute" unicode="&#x1fa;" horiz-adv-x="744" 
d="M609 0l-70 171h-340l-70 -171h-96l296 714h86l296 -714h-102zM236 259h266l-133 324zM329 1059l92 140h102l-100 -140h-94zM369 768q-55 0 -91.5 36t-36.5 89q0 54 36.5 90.5t91.5 36.5t91.5 -36.5t36.5 -90.5q0 -53 -36.5 -89t-91.5 -36zM369 829q27 0 44.5 18.5
t17.5 45.5q0 28 -17 46t-45 18t-45 -18t-17 -46q0 -27 17.5 -45.5t44.5 -18.5z" />
    <glyph glyph-name="aringacute" unicode="&#x1fb;" horiz-adv-x="601" 
d="M418 81q-8 -19 -22 -37.5t-48 -37t-77 -18.5q-91 0 -150 69.5t-59 188.5t59 189t150 70q102 0 147 -93v82h91v-494h-91v81zM420 246q0 77 -35.5 126t-96.5 49q-63 0 -97.5 -49t-34.5 -126q0 -76 35 -125.5t97 -49.5q61 0 96.5 49.5t35.5 125.5zM237 858l89 150h96
l-96 -150h-89zM280 567q-55 0 -91.5 36t-36.5 89q0 54 36.5 90.5t91.5 36.5t91.5 -36.5t36.5 -90.5q0 -53 -36.5 -89t-91.5 -36zM280 628q27 0 44.5 18.5t17.5 45.5q0 28 -17 46t-45 18t-45 -18t-17 -46q0 -27 17.5 -45.5t44.5 -18.5z" />
    <glyph glyph-name="AEacute" unicode="&#x1fc;" horiz-adv-x="1037" 
d="M994 90v-90h-497v183h-273l-114 -183h-110l449 710h510v-90h-365v-198h219v-90h-219v-242h400zM277 269h220v353zM646 778l102 150h110l-110 -150h-102z" />
    <glyph glyph-name="aeacute" unicode="&#x1fd;" horiz-adv-x="899" 
d="M620 507q99 0 160.5 -71t61.5 -188v-14h-353q4 -71 40.5 -117t99.5 -46q85 0 123 61h87q-5 -20 -16.5 -40.5t-34.5 -46t-64 -41.5t-95 -16q-69 0 -120 32.5t-75 80.5q-47 -112 -176 -112q-88 0 -144 45.5t-56 121.5q0 71 49 110.5t139 39.5h151q0 56 -34 88.5t-90 32.5
q-35 0 -61 -13.5t-35 -25.5t-14 -23h-91q3 16 14 37t33 46t62.5 42t91.5 17q62 0 108.5 -25t67.5 -66q55 91 171 91zM620 429q-53 0 -85.5 -32.5t-42.5 -90.5h254q-24 123 -126 123zM149 156q0 -40 31 -65.5t82 -25.5q55 0 95 31t40 82v56h-146q-47 0 -74.5 -20.5
t-27.5 -57.5zM399 579l98 183h100l-105 -183h-93z" />
    <glyph glyph-name="Oslashacute" unicode="&#x1fe;" horiz-adv-x="782" 
d="M710 355q0 -159 -88 -263t-231 -104q-108 0 -187 60l-38 -48h-105l84 108q-73 99 -73 247q0 160 87.5 263.5t231.5 103.5q106 0 185 -60l37 48h108l-85 -109q74 -101 74 -246zM172 355q0 -99 35 -167l313 401q-52 43 -129 43q-102 0 -160.5 -78.5t-58.5 -198.5zM610 355
q0 99 -36 167l-313 -401q52 -43 130 -43q102 0 160.5 78.5t58.5 198.5zM341 778l102 150h110l-110 -150h-102z" />
    <glyph glyph-name="oslashacute" unicode="&#x1ff;" horiz-adv-x="584" 
d="M524 247q0 -112 -64 -185.5t-168 -73.5q-74 0 -129 39l-22 -27h-93l63 79q-51 68 -51 168q0 113 64 186.5t168 73.5q73 0 129 -39l20 26h95l-62 -78q50 -70 50 -169zM154 247q0 -56 16 -94l198 249q-33 22 -76 22q-65 0 -101.5 -50t-36.5 -127zM430 247q0 56 -16 94
l-199 -248q32 -23 77 -23q65 0 101.5 50t36.5 127zM246 579l98 183h100l-105 -183h-93z" />
    <glyph glyph-name="uni0218" unicode="&#x218;" horiz-adv-x="705" 
d="M330 633q-73 0 -114.5 -29t-41.5 -77q0 -47 35.5 -71t99.5 -34l94 -14q49 -7 86.5 -20t72.5 -35.5t53.5 -60.5t18.5 -90q0 -93 -71 -154t-192 -61q-72 0 -130.5 18.5t-95.5 50t-60 67t-33 75.5h103q18 -47 70.5 -84.5t145.5 -37.5q75 0 120.5 33t45.5 88t-37.5 81
t-104.5 36l-94 14q-106 16 -165 61.5t-59 137.5q0 89 71 142t182 53q127 0 198.5 -54.5t89.5 -129.5h-100q-52 95 -188 95zM407 -325h-67q35 65 35 115h-52v115h112v-98q0 -68 -28 -132z" />
    <glyph glyph-name="uni0219" unicode="&#x219;" horiz-adv-x="539" 
d="M302 205l-71 8q-76 9 -120.5 45.5t-44.5 102.5t53 106.5t137 40.5q46 0 83 -10.5t59.5 -24.5t39 -34t23.5 -34.5t12 -29.5h-90q-6 9 -17 19.5t-41.5 22.5t-68.5 12q-48 0 -74.5 -18t-26.5 -46q0 -55 88 -65l69 -8q169 -20 169 -155q0 -67 -51.5 -109t-143.5 -42
q-59 0 -105.5 16.5t-72 41t-39 47.5t-17.5 42h93q36 -66 141 -66q51 0 77.5 18t26.5 48q0 32 -20 49.5t-68 22.5zM324 -325h-67q35 65 35 115h-52v115h112v-98q0 -68 -28 -132z" />
    <glyph glyph-name="uni021A" unicode="&#x21a;" horiz-adv-x="723" 
d="M40 620v90h643v-90h-273v-620h-97v620h-273zM392 -325h-67q35 65 35 115h-52v115h112v-98q0 -68 -28 -132z" />
    <glyph glyph-name="uni021B" unicode="&#x21b;" horiz-adv-x="481" 
d="M430 84v-84h-106q-164 0 -164 161v251h-129v82h129v216h91v-216h179v-82h-179v-232q0 -52 21 -74t75 -22h83zM314 -325h-67q35 65 35 115h-52v115h112v-98q0 -68 -28 -132z" />
    <glyph glyph-name="uni0237" unicode="&#x237;" horiz-adv-x="278" 
d="M185 -48q0 -166 -163 -166h-120v85h105q87 0 87 91v532h91v-542z" />
    <glyph glyph-name="circumflex" unicode="&#x2c6;" horiz-adv-x="600" 
d="M329 576l-69 112l-68 -112h-88l118 193h76l116 -193h-85z" />
    <glyph glyph-name="caron" unicode="&#x2c7;" horiz-adv-x="600" 
d="M414 772l-116 -193h-76l-118 193h88l68 -112l69 112h85z" />
    <glyph glyph-name="breve" unicode="&#x2d8;" horiz-adv-x="600" 
d="M300 644q29 0 44 20t15 49v17h75v-19q0 -61 -34.5 -99.5t-99.5 -38.5t-99.5 38.5t-34.5 99.5v19h75v-17q0 -28 15 -48.5t44 -20.5z" />
    <glyph glyph-name="dotaccent" unicode="&#x2d9;" horiz-adv-x="600" 
d="M253 589v143h94v-143h-94z" />
    <glyph glyph-name="ring" unicode="&#x2da;" horiz-adv-x="600" 
d="M300 567q-55 0 -91.5 36t-36.5 89q0 54 36.5 90.5t91.5 36.5t91.5 -36.5t36.5 -90.5q0 -53 -36.5 -89t-91.5 -36zM300 628q27 0 44.5 18.5t17.5 45.5q0 28 -17 46t-45 18t-45 -18t-17 -46q0 -27 17.5 -45.5t44.5 -18.5z" />
    <glyph glyph-name="ogonek" unicode="&#x2db;" horiz-adv-x="600" 
d="M435 -132v-82h-72q-129 0 -129 94q0 24 15.5 47.5t28 34.5t46.5 38h91q-27 -25 -36 -33t-24.5 -24t-20.5 -26t-5 -19q0 -30 39 -30h67z" />
    <glyph glyph-name="tilde" unicode="&#x2dc;" horiz-adv-x="600" 
d="M218 575h-71v74q0 44 19.5 69t58.5 25q25 0 43 -10t44 -33l25 -23q19 -17 29 -17q17 0 17 23v65h71v-74q0 -44 -19.5 -69t-58.5 -25q-25 0 -43 10t-43 33l-25 23q-19 17 -30 17q-17 0 -17 -23v-65z" />
    <glyph glyph-name="hungarumlaut" unicode="&#x2dd;" horiz-adv-x="600" 
d="M303 579l74 183h88l-81 -183h-81zM134 579l74 183h88l-81 -183h-81z" />
    <glyph glyph-name="Wgrave" unicode="&#x1e80;" horiz-adv-x="1040" 
d="M700 -4l-177 558l-177 -558h-81l-222 714h102l166 -550l171 554h87l174 -560l163 556h91l-211 -714h-86zM575 778h-102l-109 150h110z" />
    <glyph glyph-name="wgrave" unicode="&#x1e81;" horiz-adv-x="809" 
d="M533 -4l-127 375l-127 -375h-81l-170 498h98l119 -365l123 369h84l122 -364l117 360h90l-168 -498h-80zM453 579h-93l-105 183h100z" />
    <glyph glyph-name="Wacute" unicode="&#x1e82;" horiz-adv-x="1040" 
d="M700 -4l-177 558l-177 -558h-81l-222 714h102l166 -550l171 554h87l174 -560l163 556h91l-211 -714h-86zM474 778l102 150h110l-110 -150h-102z" />
    <glyph glyph-name="wacute" unicode="&#x1e83;" horiz-adv-x="809" 
d="M533 -4l-127 375l-127 -375h-81l-170 498h98l119 -365l123 369h84l122 -364l117 360h90l-168 -498h-80zM361 579l98 183h100l-105 -183h-93z" />
    <glyph glyph-name="Wdieresis" unicode="&#x1e84;" horiz-adv-x="1040" 
d="M700 -4l-177 558l-177 -558h-81l-222 714h102l166 -550l171 554h87l174 -560l163 556h91l-211 -714h-86zM381 778v139h92v-139h-92zM575 778v139h92v-139h-92z" />
    <glyph glyph-name="wdieresis" unicode="&#x1e85;" horiz-adv-x="809" 
d="M533 -4l-127 375l-127 -375h-81l-170 498h98l119 -365l123 369h84l122 -364l117 360h90l-168 -498h-80zM269 589v139h92v-139h-92zM453 589v139h92v-139h-92z" />
    <glyph glyph-name="Ygrave" unicode="&#x1ef2;" horiz-adv-x="685" 
d="M394 286v-286h-97v285l-282 425h120l213 -327l213 327h109zM408 778h-102l-109 150h110z" />
    <glyph glyph-name="ygrave" unicode="&#x1ef3;" horiz-adv-x="535" 
d="M510 494l-283 -708h-91l88 222l-199 486h100l146 -367l146 367h93zM324 579h-93l-105 183h100z" />
    <glyph glyph-name="uni2009" unicode="&#x2009;" horiz-adv-x="166" 
 />
    <glyph glyph-name="uni200A" unicode="&#x200a;" horiz-adv-x="83" 
 />
    <glyph glyph-name="endash" unicode="&#x2013;" horiz-adv-x="704" 
d="M84 257v76h536v-76h-536z" />
    <glyph glyph-name="emdash" unicode="&#x2014;" horiz-adv-x="1000" 
d="M84 257v76h832v-76h-832z" />
    <glyph glyph-name="quoteleft" unicode="&#x2018;" horiz-adv-x="292" 
d="M139 736h71q-61 -115 -61 -202h55v-130h-116v120q0 114 51 212z" />
    <glyph glyph-name="quoteright" unicode="&#x2019;" horiz-adv-x="292" 
d="M153 404h-71q61 115 61 202h-55v130h116v-120q0 -114 -51 -212z" />
    <glyph glyph-name="quotesinglbase" unicode="&#x201a;" horiz-adv-x="292" 
d="M153 -202h-71q61 115 61 202h-55v130h116v-120q0 -114 -51 -212z" />
    <glyph glyph-name="quotedblleft" unicode="&#x201c;" horiz-adv-x="495" 
d="M139 736h71q-61 -115 -61 -202h55v-130h-116v120q0 114 51 212zM342 736h71q-61 -115 -61 -202h55v-130h-116v120q0 114 51 212z" />
    <glyph glyph-name="quotedblright" unicode="&#x201d;" horiz-adv-x="495" 
d="M356 404h-71q61 115 61 202h-55v130h116v-120q0 -114 -51 -212zM153 404h-71q61 115 61 202h-55v130h116v-120q0 -114 -51 -212z" />
    <glyph glyph-name="quotedblbase" unicode="&#x201e;" horiz-adv-x="495" 
d="M356 -202h-71q61 115 61 202h-55v130h116v-120q0 -114 -51 -212zM153 -202h-71q61 115 61 202h-55v130h116v-120q0 -114 -51 -212z" />
    <glyph glyph-name="dagger" unicode="&#x2020;" horiz-adv-x="522" 
d="M467 441h-162v-441h-88v441h-162v81h162v188h88v-188h162v-81z" />
    <glyph glyph-name="daggerdbl" unicode="&#x2021;" horiz-adv-x="522" 
d="M467 188h-162v-188h-88v188h-162v81h162v172h-162v81h162v188h88v-188h162v-81h-162v-172h162v-81z" />
    <glyph glyph-name="bullet" unicode="&#x2022;" horiz-adv-x="596" 
d="M298 510q81 0 137.5 -57t56.5 -137q0 -81 -56.5 -137.5t-137.5 -56.5t-137.5 56.5t-56.5 137.5q0 80 56.5 137t137.5 57z" />
    <glyph glyph-name="ellipsis" unicode="&#x2026;" horiz-adv-x="796" 
d="M88 0v143h116v-143h-116zM340 0v143h116v-143h-116zM592 0v143h116v-143h-116z" />
    <glyph glyph-name="perthousand" unicode="&#x2030;" horiz-adv-x="1450" 
d="M252 356q-77 0 -129.5 52.5t-52.5 130.5t52.5 130.5t129.5 52.5t129.5 -52.5t52.5 -130.5t-52.5 -130.5t-129.5 -52.5zM208 0l502 710h95l-503 -710h-94zM252 430q45 0 74 31t29 78t-29 78t-74 31t-74 -31t-29 -78t29 -78t74 -31zM762 -14q-77 0 -129.5 52.5t-52.5 130.5
t52.5 130.5t129.5 52.5t129.5 -52.5t52.5 -130.5t-52.5 -130.5t-129.5 -52.5zM1197 -14q-77 0 -129.5 52.5t-52.5 130.5t52.5 130.5t129.5 52.5t129.5 -52.5t52.5 -130.5t-52.5 -130.5t-129.5 -52.5zM762 60q45 0 74 31t29 78t-29 78t-74 31t-74 -31t-29 -78t29 -78t74 -31z
M1197 60q45 0 74 31t29 78t-29 78t-74 31t-74 -31t-29 -78t29 -78t74 -31z" />
    <glyph glyph-name="uni2032" unicode="&#x2032;" horiz-adv-x="286" 
d="M134 405h-84l101 305h85z" />
    <glyph glyph-name="uni2033" unicode="&#x2033;" horiz-adv-x="469" 
d="M132 405h-82l101 305h83zM314 405h-82l104 305h83z" />
    <glyph glyph-name="guilsinglleft" unicode="&#x2039;" horiz-adv-x="341" 
d="M271 453l-115 -177l115 -179h-93l-113 178l114 178h92z" />
    <glyph glyph-name="guilsinglright" unicode="&#x203a;" horiz-adv-x="341" 
d="M276 275l-114 -178h-92l115 177l-115 179h93z" />
    <glyph glyph-name="fraction" unicode="&#x2044;" horiz-adv-x="525" 
d="M92 0h-92l433 710h92z" />
    <glyph glyph-name="zero.sup" unicode="&#x2070;" horiz-adv-x="520" 
d="M260 744q83 0 131.5 -49t48.5 -134v-146q0 -87 -48.5 -135t-131.5 -48t-131.5 48t-48.5 135v146q0 85 48.5 134t131.5 49zM260 310q46 0 70.5 29.5t24.5 77.5v142q0 48 -24.5 77.5t-70.5 29.5t-70 -29.5t-24 -77.5v-142q0 -48 24 -77.5t70 -29.5z" />
    <glyph glyph-name="four.sup" unicode="&#x2074;" horiz-adv-x="523" 
d="M479 382h-101v-141h-84v141h-246v60l227 293h103v-280h101v-73zM141 455h153v199z" />
    <glyph glyph-name="five.sup" unicode="&#x2075;" horiz-adv-x="496" 
d="M91 456v279h319v-74h-237v-125q36 36 98 36q67 0 112.5 -44.5t45.5 -119.5v-6q0 -75 -49.5 -122t-131.5 -47q-86 0 -132 44t-48 107h85q4 -28 27 -51t68 -23q43 0 69 25.5t26 66.5v5q0 42 -26 67t-69 25q-56 0 -83 -43h-74z" />
    <glyph glyph-name="six.sup" unicode="&#x2076;" horiz-adv-x="497" 
d="M433 405q0 -75 -50 -123.5t-135 -48.5t-134.5 48t-49.5 124q0 52 20 92.5t61 93.5l111 144h98l-143 -182q29 17 67 17q69 0 112 -45.5t43 -119.5zM347 405q0 43 -26 70t-73 27q-44 0 -71 -27.5t-27 -69.5q0 -41 26.5 -68.5t71.5 -27.5q46 0 72.5 27.5t26.5 68.5z" />
    <glyph glyph-name="seven.sup" unicode="&#x2077;" horiz-adv-x="470" 
d="M417 675l-235 -434h-95l229 417h-257v77h358v-60z" />
    <glyph glyph-name="eight.sup" unicode="&#x2078;" horiz-adv-x="505" 
d="M436 375q0 -64 -47 -103t-128 -39h-20q-80 0 -126 39t-46 103q0 50 26.5 80t60.5 40q-31 10 -54.5 38t-23.5 74q0 61 43.5 98.5t121.5 37.5h19q78 0 121.5 -37t43.5 -99q0 -46 -23.5 -74t-54.5 -38q34 -10 60.5 -40t26.5 -80zM244 672q-36 0 -58 -19t-22 -52t22 -52
t58 -19h17q36 0 58 19t22 52t-22 52t-58 19h-17zM243 459q-39 0 -63 -21t-24 -57q0 -35 24 -56t63 -21h19q39 0 63 21t24 56q0 36 -24 57t-63 21h-19z" />
    <glyph glyph-name="nine.sup" unicode="&#x2079;" horiz-adv-x="497" 
d="M351 385l-110 -144h-99l143 181q-28 -16 -66 -16q-69 0 -112.5 45t-43.5 120t50 123.5t135 48.5t134.5 -47.5t49.5 -124.5q0 -52 -20 -93t-61 -93zM149 571q0 -43 26 -70t73 -27q44 0 71 27t27 70q0 41 -26.5 68.5t-71.5 27.5q-46 0 -72.5 -27.5t-26.5 -68.5z" />
    <glyph glyph-name="zero.sub" unicode="&#x2080;" horiz-adv-x="520" 
d="M260 379q83 0 131.5 -49t48.5 -134v-146q0 -87 -48.5 -135t-131.5 -48t-131.5 48t-48.5 135v146q0 85 48.5 134t131.5 49zM260 -55q46 0 70.5 29.5t24.5 77.5v142q0 48 -24.5 77.5t-70.5 29.5t-70 -29.5t-24 -77.5v-142q0 -48 24 -77.5t70 -29.5z" />
    <glyph glyph-name="one.sub" unicode="&#x2081;" horiz-adv-x="355" 
d="M257 372v-496h-86v398l-122 -70v81l144 87h64z" />
    <glyph glyph-name="two.sub" unicode="&#x2082;" horiz-adv-x="476" 
d="M433 -47v-77h-367v55l173 166q40 39 57.5 66t17.5 61q0 35 -22 56t-61 21t-61 -24t-22 -63v-28h-83v29q0 73 45 118t122 45q79 0 124 -42t45 -110q0 -54 -25.5 -93.5t-82.5 -91.5l-94 -88h234z" />
    <glyph glyph-name="three.sub" unicode="&#x2083;" horiz-adv-x="487" 
d="M421 13q0 -65 -48 -105t-132 -40q-86 0 -132 43t-51 101h87q5 -27 29.5 -47.5t66.5 -20.5q43 0 68 20t25 55q0 73 -85 73h-88v76h86q35 0 54 17.5t19 48.5q0 32 -22.5 50.5t-59.5 18.5t-57.5 -18.5t-25.5 -46.5h-85q3 56 46 98t122 42t123.5 -37.5t44.5 -100.5
q0 -40 -20.5 -66t-46.5 -37q33 -10 57.5 -41t24.5 -83z" />
    <glyph glyph-name="four.sub" unicode="&#x2084;" horiz-adv-x="523" 
d="M479 17h-101v-141h-84v141h-246v60l227 293h103v-280h101v-73zM141 90h153v199z" />
    <glyph glyph-name="five.sub" unicode="&#x2085;" horiz-adv-x="496" 
d="M91 91v279h319v-74h-237v-125q36 36 98 36q67 0 112.5 -44.5t45.5 -119.5v-6q0 -75 -49.5 -122t-131.5 -47q-86 0 -132 44t-48 107h85q4 -28 27 -51t68 -23q43 0 69 25.5t26 66.5v5q0 42 -26 67t-69 25q-56 0 -83 -43h-74z" />
    <glyph glyph-name="six.sub" unicode="&#x2086;" horiz-adv-x="497" 
d="M433 40q0 -75 -50 -123.5t-135 -48.5t-134.5 48t-49.5 124q0 52 20 92.5t61 93.5l111 144h98l-143 -182q29 17 67 17q69 0 112 -45.5t43 -119.5zM347 40q0 43 -26 70t-73 27q-44 0 -71 -27.5t-27 -69.5q0 -41 26.5 -68.5t71.5 -27.5q46 0 72.5 27.5t26.5 68.5z" />
    <glyph glyph-name="seven.sub" unicode="&#x2087;" horiz-adv-x="470" 
d="M417 310l-235 -434h-95l229 417h-257v77h358v-60z" />
    <glyph glyph-name="eight.sub" unicode="&#x2088;" horiz-adv-x="505" 
d="M436 10q0 -64 -47 -103t-128 -39h-20q-80 0 -126 39t-46 103q0 50 26.5 80t60.5 40q-31 10 -54.5 38t-23.5 74q0 61 43.5 98.5t121.5 37.5h19q78 0 121.5 -37t43.5 -99q0 -46 -23.5 -74t-54.5 -38q34 -10 60.5 -40t26.5 -80zM244 307q-36 0 -58 -19t-22 -52t22 -52
t58 -19h17q36 0 58 19t22 52t-22 52t-58 19h-17zM243 94q-39 0 -63 -21t-24 -57q0 -35 24 -56t63 -21h19q39 0 63 21t24 56q0 36 -24 57t-63 21h-19z" />
    <glyph glyph-name="nine.sub" unicode="&#x2089;" horiz-adv-x="497" 
d="M351 20l-110 -144h-99l143 181q-28 -16 -66 -16q-69 0 -112.5 45t-43.5 120t50 123.5t135 48.5t134.5 -47.5t49.5 -124.5q0 -52 -20 -93t-61 -93zM149 206q0 -43 26 -70t73 -27q44 0 71 27t27 70q0 41 -26.5 68.5t-71.5 27.5q-46 0 -72.5 -27.5t-26.5 -68.5z" />
    <glyph glyph-name="won" unicode="&#x20a9;" horiz-adv-x="1016" 
d="M661 -4l-86 322h-128l-86 -322h-84l-87 322h-140v78h119l-85 314h96l81 -314h123l83 318h91l83 -318h125l79 314h87l-80 -314h114v-78h-134l-82 -322h-89zM468 396h86l-43 161zM281 318l41 -159l42 159h-83zM662 318l43 -165l42 165h-85z" />
    <glyph glyph-name="Euro" unicode="&#x20ac;" horiz-adv-x="712" 
d="M48 404v78h118q0 114 63.5 177t170.5 63q108 0 171 -61t66 -169h-97q-2 62 -37.5 102.5t-102.5 40.5q-66 0 -103 -42.5t-37 -110.5h182v-78h-182v-91h182v-78h-182v-6q0 -71 37.5 -112t104.5 -41t102 39.5t36 108.5h97q-2 -114 -65.5 -174.5t-171.5 -60.5
q-107 0 -170.5 62t-63.5 178v6h-118v78h118v91h-118z" />
    <glyph glyph-name="trademark" unicode="&#x2122;" horiz-adv-x="1017" 
d="M30 638v72h371v-72h-145v-324h-81v324h-145zM600 710l109 -279l110 279h118v-396h-77v320l-128 -322h-52l-128 324v-322h-74v396h122z" />
    <glyph glyph-name="onethird" unicode="&#x2153;" horiz-adv-x="938" 
d="M882 120q0 -57 -43 -92t-118 -35q-76 0 -117 38.5t-45 89.5h85q4 -21 23.5 -37t53.5 -16q35 0 55 15.5t20 42.5q0 56 -65 56h-79v74h76q55 0 55 50q0 25 -17.5 39.5t-47.5 14.5q-57 0 -66 -50h-84q2 49 41 86t109 37q71 0 110.5 -32.5t39.5 -87.5q0 -63 -56 -88
q28 -9 49 -35t21 -70zM254 0h-92l433 710h92zM233 703v-428h-85v332l-105 -59v79l126 76h64z" />
    <glyph glyph-name="twothirds" unicode="&#x2154;" horiz-adv-x="1056" 
d="M1000 120q0 -57 -43 -92t-118 -35q-76 0 -117 38.5t-45 89.5h85q4 -21 23.5 -37t53.5 -16q35 0 55 15.5t20 42.5q0 56 -65 56h-79v74h76q55 0 55 50q0 25 -17.5 39.5t-47.5 14.5q-57 0 -66 -50h-84q2 49 41 86t109 37q71 0 110.5 -32.5t39.5 -87.5q0 -63 -56 -88
q28 -9 49 -35t21 -70zM372 0h-92l433 710h92zM380 350v-75h-322v55l151 143q32 31 45.5 52t13.5 46q0 27 -17.5 44t-47.5 17t-48 -19t-18 -50v-23h-81v24q0 64 39.5 104t107.5 40q70 0 110 -37t40 -97q0 -45 -22 -78.5t-70 -77.5l-74 -68h193z" />
    <glyph glyph-name="oneeighth" unicode="&#x215b;" horiz-adv-x="959" 
d="M900 115q0 -55 -41 -88.5t-113 -33.5h-18q-71 0 -111.5 33.5t-40.5 88.5q0 42 22 68.5t50 35.5q-26 9 -45.5 33t-19.5 63q0 54 38.5 86t107.5 32h17q70 0 108.5 -32t38.5 -86q0 -39 -19.5 -63t-45.5 -33q28 -9 50 -35.5t22 -68.5zM732 365q-29 0 -47 -15t-18 -42
q0 -26 18 -41.5t47 -15.5h12q29 0 46.5 15.5t17.5 41.5q0 27 -17.5 42t-46.5 15h-12zM731 184q-31 0 -50 -16.5t-19 -44.5q0 -29 19 -45.5t50 -16.5h14q31 0 50 16.5t19 45.5q0 28 -19 44.5t-50 16.5h-14zM254 0h-92l433 710h92zM233 703v-428h-85v332l-105 -59v79l126 76
h64z" />
    <glyph glyph-name="threeeighths" unicode="&#x215c;" horiz-adv-x="1056" 
d="M997 115q0 -55 -41 -88.5t-113 -33.5h-18q-71 0 -111.5 33.5t-40.5 88.5q0 42 22 68.5t50 35.5q-26 9 -45.5 33t-19.5 63q0 54 38.5 86t107.5 32h17q70 0 108.5 -32t38.5 -86q0 -39 -19.5 -63t-45.5 -33q28 -9 50 -35.5t22 -68.5zM829 365q-29 0 -47 -15t-18 -42
q0 -26 18 -41.5t47 -15.5h12q29 0 46.5 15.5t17.5 41.5q0 27 -17.5 42t-46.5 15h-12zM828 184q-31 0 -50 -16.5t-19 -44.5q0 -29 19 -45.5t50 -16.5h14q31 0 50 16.5t19 45.5q0 28 -19 44.5t-50 16.5h-14zM351 0h-92l433 710h92zM372 395q0 -57 -43 -92t-118 -35
q-76 0 -117 38.5t-45 89.5h85q4 -21 23.5 -37t53.5 -16q35 0 55 15.5t20 42.5q0 56 -65 56h-79v74h76q55 0 55 50q0 25 -17.5 39.5t-47.5 14.5q-57 0 -66 -50h-84q2 49 41 86t109 37q71 0 110.5 -32.5t39.5 -87.5q0 -63 -56 -88q28 -9 49 -35t21 -70z" />
    <glyph glyph-name="fiveeighths" unicode="&#x215d;" horiz-adv-x="1057" 
d="M998 115q0 -55 -41 -88.5t-113 -33.5h-18q-71 0 -111.5 33.5t-40.5 88.5q0 42 22 68.5t50 35.5q-26 9 -45.5 33t-19.5 63q0 54 38.5 86t107.5 32h17q70 0 108.5 -32t38.5 -86q0 -39 -19.5 -63t-45.5 -33q28 -9 50 -35.5t22 -68.5zM830 365q-29 0 -47 -15t-18 -42
q0 -26 18 -41.5t47 -15.5h12q29 0 46.5 15.5t17.5 41.5q0 27 -17.5 42t-46.5 15h-12zM829 184q-31 0 -50 -16.5t-19 -44.5q0 -29 19 -45.5t50 -16.5h14q31 0 50 16.5t19 45.5q0 28 -19 44.5t-50 16.5h-14zM352 0h-92l433 710h92zM77 459v242h284v-71h-204v-97q29 31 83 31
q59 0 98 -38.5t39 -104.5v-4q0 -66 -43.5 -107.5t-116.5 -41.5q-77 0 -117.5 39.5t-42.5 93.5h84q4 -22 22.5 -40t53.5 -18q33 0 54 20.5t21 53.5v3q0 33 -20.5 53t-54.5 20q-47 0 -66 -34h-74z" />
    <glyph glyph-name="seveneighths" unicode="&#x215e;" horiz-adv-x="974" 
d="M915 115q0 -55 -41 -88.5t-113 -33.5h-18q-71 0 -111.5 33.5t-40.5 88.5q0 42 22 68.5t50 35.5q-26 9 -45.5 33t-19.5 63q0 54 38.5 86t107.5 32h17q70 0 108.5 -32t38.5 -86q0 -39 -19.5 -63t-45.5 -33q28 -9 50 -35.5t22 -68.5zM747 365q-29 0 -47 -15t-18 -42
q0 -26 18 -41.5t47 -15.5h12q29 0 46.5 15.5t17.5 41.5q0 27 -17.5 42t-46.5 15h-12zM746 184q-31 0 -50 -16.5t-19 -44.5q0 -29 19 -45.5t50 -16.5h14q31 0 50 16.5t19 45.5q0 28 -19 44.5t-50 16.5h-14zM269 0h-92l433 710h92zM365 644l-197 -369h-94l191 351h-215v75h315
v-57z" />
    <glyph glyph-name="minus" unicode="&#x2212;" horiz-adv-x="696" 
d="M612 275h-528v80h528v-80z" />
    <glyph glyph-name="uni24C5" unicode="&#x24c5;" horiz-adv-x="884" 
d="M442 -12q-158 0 -262.5 105t-104.5 262q0 156 105 261.5t262 105.5q156 0 261.5 -105.5t105.5 -261.5t-105.5 -261.5t-261.5 -105.5zM442 56q130 0 211.5 86t81.5 213q0 126 -82 212.5t-211 86.5q-130 0 -211.5 -86.5t-81.5 -212.5q0 -127 82 -213t211 -86zM286 170v374
h202q146 0 146 -122q0 -58 -36.5 -90.5t-109.5 -32.5h-114v-129h-88zM489 468h-115v-92h115q57 0 57 46t-57 46z" />
    <glyph glyph-name="zero.den" unicode="&#xe402;" horiz-adv-x="455" 
d="M228 434q74 0 116.5 -42.5t42.5 -117.5v-122q0 -76 -42.5 -118t-116.5 -42t-117 42t-43 118v122q0 75 43 117.5t117 42.5zM228 69q36 0 55.5 23t19.5 61v120q0 38 -19.5 61t-55.5 23t-55.5 -23t-19.5 -61v-120q0 -38 19.5 -61t55.5 -23z" />
    <glyph glyph-name="one.den" unicode="&#xe403;" horiz-adv-x="316" 
d="M233 428v-428h-85v332l-105 -59v79l126 76h64z" />
    <glyph glyph-name="two.den" unicode="&#xe404;" horiz-adv-x="419" 
d="M380 75v-75h-322v55l151 143q32 31 45.5 52t13.5 46q0 27 -17.5 44t-47.5 17t-48 -19t-18 -50v-23h-81v24q0 64 39.5 104t107.5 40q70 0 110 -37t40 -97q0 -45 -22 -78.5t-70 -77.5l-74 -68h193z" />
    <glyph glyph-name="three.den" unicode="&#xe405;" horiz-adv-x="428" 
d="M372 120q0 -57 -43 -92t-118 -35q-76 0 -117 38.5t-45 89.5h85q4 -21 23.5 -37t53.5 -16q35 0 55 15.5t20 42.5q0 56 -65 56h-79v74h76q55 0 55 50q0 25 -17.5 39.5t-47.5 14.5q-57 0 -66 -50h-84q2 49 41 86t109 37q71 0 110.5 -32.5t39.5 -87.5q0 -63 -56 -88
q28 -9 49 -35t21 -70z" />
    <glyph glyph-name="four.den" unicode="&#xe406;" horiz-adv-x="460" 
d="M421 112h-84v-112h-81v112h-214v60l193 254h102v-244h84v-70zM129 182h127v170z" />
    <glyph glyph-name="five.den" unicode="&#xe407;" horiz-adv-x="435" 
d="M77 184v242h284v-71h-204v-97q29 31 83 31q59 0 98 -38.5t39 -104.5v-4q0 -66 -43.5 -107.5t-116.5 -41.5q-77 0 -117.5 39.5t-42.5 93.5h84q4 -22 22.5 -40t53.5 -18q33 0 54 21t21 53v3q0 33 -20.5 53t-54.5 20q-47 0 -66 -34h-74z" />
    <glyph glyph-name="six.den" unicode="&#xe408;" horiz-adv-x="435" 
d="M381 144q0 -66 -44.5 -108.5t-118.5 -42.5q-75 0 -119 42t-44 109q0 45 17 80t53 82l93 120h95l-122 -156q22 15 57 15q59 0 96 -38.5t37 -102.5zM296 144q0 34 -20.5 55.5t-57.5 21.5q-35 0 -56.5 -22t-21.5 -55t21 -54.5t57 -21.5t57 21.5t21 54.5z" />
    <glyph glyph-name="seven.den" unicode="&#xe409;" horiz-adv-x="411" 
d="M365 369l-197 -369h-94l191 351h-215v75h315v-57z" />
    <glyph glyph-name="eight.den" unicode="&#xe40a;" horiz-adv-x="442" 
d="M383 115q0 -55 -41 -88.5t-113 -33.5h-18q-71 0 -111.5 33.5t-40.5 88.5q0 42 22 68.5t50 35.5q-26 9 -45.5 33t-19.5 63q0 54 38.5 86t107.5 32h17q70 0 108.5 -32t38.5 -86q0 -39 -19.5 -63t-45.5 -33q28 -9 50 -35.5t22 -68.5zM215 365q-29 0 -47 -15t-18 -42
q0 -26 18 -41.5t47 -15.5h12q29 0 46.5 15.5t17.5 41.5q0 27 -17.5 42t-46.5 15h-12zM214 184q-31 0 -50 -16.5t-19 -44.5q0 -29 19 -45.5t50 -16.5h14q31 0 50 16.5t19 45.5q0 28 -19 44.5t-50 16.5h-14z" />
    <glyph glyph-name="nine.den" unicode="&#xe40b;" horiz-adv-x="435" 
d="M310 120l-93 -120h-95l124 157q-23 -16 -59 -16q-59 0 -96 38.5t-37 102.5q0 66 44.5 108.5t118.5 42.5q75 0 119 -42t44 -109q0 -46 -17 -81t-53 -81zM139 282q0 -34 21 -55.5t58 -21.5q35 0 56.5 22t21.5 55t-21.5 54.5t-56.5 21.5q-37 0 -58 -21.5t-21 -54.5z" />
    <glyph glyph-name="zero.num" unicode="&#xe416;" horiz-adv-x="455" 
d="M228 709q74 0 116.5 -42.5t42.5 -117.5v-122q0 -76 -42.5 -118t-116.5 -42t-117 42t-43 118v122q0 75 43 117.5t117 42.5zM228 344q36 0 55.5 23t19.5 61v120q0 38 -19.5 61t-55.5 23t-55.5 -23t-19.5 -61v-120q0 -38 19.5 -61t55.5 -23z" />
    <glyph glyph-name="one.num" unicode="&#xe417;" horiz-adv-x="316" 
d="M233 703v-428h-85v332l-105 -59v79l126 76h64z" />
    <glyph glyph-name="two.num" unicode="&#xe418;" horiz-adv-x="419" 
d="M380 350v-75h-322v55l151 143q32 31 45.5 52t13.5 46q0 27 -17.5 44t-47.5 17t-48 -19t-18 -50v-23h-81v24q0 64 39.5 104t107.5 40q70 0 110 -37t40 -97q0 -45 -22 -78.5t-70 -77.5l-74 -68h193z" />
    <glyph glyph-name="three.num" unicode="&#xe419;" horiz-adv-x="428" 
d="M372 395q0 -57 -43 -92t-118 -35q-76 0 -117 38.5t-45 89.5h85q4 -21 23.5 -37t53.5 -16q35 0 55 15.5t20 42.5q0 56 -65 56h-79v74h76q55 0 55 50q0 25 -17.5 39.5t-47.5 14.5q-57 0 -66 -50h-84q2 49 41 86t109 37q71 0 110.5 -32.5t39.5 -87.5q0 -63 -56 -88
q28 -9 49 -35t21 -70z" />
    <glyph glyph-name="four.num" unicode="&#xe41a;" horiz-adv-x="460" 
d="M421 387h-84v-112h-81v112h-214v60l193 254h102v-244h84v-70zM129 457h127v170z" />
    <glyph glyph-name="five.num" unicode="&#xe41b;" horiz-adv-x="435" 
d="M77 459v242h284v-71h-204v-97q29 31 83 31q59 0 98 -38.5t39 -104.5v-4q0 -66 -43.5 -107.5t-116.5 -41.5q-77 0 -117.5 39.5t-42.5 93.5h84q4 -22 22.5 -40t53.5 -18q33 0 54 20.5t21 53.5v3q0 33 -20.5 53t-54.5 20q-47 0 -66 -34h-74z" />
    <glyph glyph-name="six.num" unicode="&#xe41c;" horiz-adv-x="435" 
d="M381 419q0 -66 -44.5 -108.5t-118.5 -42.5q-75 0 -119 42t-44 109q0 45 17 80t53 82l93 120h95l-122 -156q22 15 57 15q59 0 96 -38.5t37 -102.5zM296 419q0 34 -20.5 55.5t-57.5 21.5q-35 0 -56.5 -22t-21.5 -55t21 -54.5t57 -21.5t57 21.5t21 54.5z" />
    <glyph glyph-name="seven.num" unicode="&#xe41d;" horiz-adv-x="411" 
d="M365 644l-197 -369h-94l191 351h-215v75h315v-57z" />
    <glyph glyph-name="eight.num" unicode="&#xe41e;" horiz-adv-x="442" 
d="M383 390q0 -55 -41 -88.5t-113 -33.5h-18q-71 0 -111.5 33.5t-40.5 88.5q0 42 22 68.5t50 35.5q-26 9 -45.5 33t-19.5 63q0 54 38.5 86t107.5 32h17q70 0 108.5 -32t38.5 -86q0 -39 -19.5 -63t-45.5 -33q28 -9 50 -35.5t22 -68.5zM215 640q-29 0 -47 -15t-18 -42
q0 -26 18 -41.5t47 -15.5h12q29 0 46.5 15.5t17.5 41.5q0 27 -17.5 42t-46.5 15h-12zM214 459q-31 0 -50 -16.5t-19 -44.5q0 -29 19 -45.5t50 -16.5h14q31 0 50 16.5t19 45.5q0 28 -19 44.5t-50 16.5h-14z" />
    <glyph glyph-name="nine.num" unicode="&#xe41f;" horiz-adv-x="435" 
d="M310 395l-93 -120h-95l124 157q-23 -16 -59 -16q-59 0 -96 38.5t-37 102.5q0 66 44.5 108.5t118.5 42.5q75 0 119 -42t44 -109q0 -46 -17 -81t-53 -81zM139 557q0 -34 21 -55.5t58 -21.5q35 0 56.5 22t21.5 55t-21.5 54.5t-56.5 21.5q-37 0 -58 -21.5t-21 -54.5z" />
    <glyph glyph-name="f_i" unicode="&#xfb01;" horiz-adv-x="729" 
d="M421 412h-170v-412h-91v412h-129v82h129v78q0 164 175 164h118v-82h-108q-94 0 -94 -95v-65h170v-82zM543 589v143h95v-143h-95zM545 0v494h91v-494h-91z" />
    <glyph glyph-name="f_l" unicode="&#xfb02;" horiz-adv-x="731" 
d="M421 412h-170v-412h-91v412h-129v82h129v78q0 164 175 164h118v-82h-108q-94 0 -94 -95v-65h170v-82zM546 0v736h91v-736h-91z" />
    <glyph glyph-name="idotaccent" horiz-adv-x="277" 
d="M91 589v143h95v-143h-95zM93 0v494h91v-494h-91z" />
    <glyph glyph-name="f_b" horiz-adv-x="1063" 
d="M421 412h-170v-412h-91v412h-129v82h129v78q0 164 175 164h118v-82h-108q-94 0 -94 -95v-65h170v-82zM634 77v-77h-90v736h90v-323q9 19 23 36.5t50 37.5t81 20q91 0 152 -70.5t61 -189.5t-61 -189t-152 -70q-34 0 -63 10t-47 26.5t-28 28.5t-16 24zM632 247
q0 -76 37 -126t101 -50q62 0 100 50t38 126q0 77 -37.5 126.5t-100.5 49.5q-64 0 -101 -49.5t-37 -126.5z" />
    <glyph glyph-name="f_h" horiz-adv-x="1061" 
d="M421 412h-170v-412h-91v412h-129v82h129v78q0 164 175 164h118v-82h-108q-94 0 -94 -95v-65h170v-82zM635 272v-272h-91v736h91v-329q16 39 54 68.5t94 29.5q86 0 138 -58t52 -158v-289h-92v272q0 72 -32 110.5t-88 38.5q-59 0 -92.5 -39t-33.5 -110z" />
    <glyph glyph-name="f_j" horiz-adv-x="730" 
d="M421 412h-170v-412h-91v412h-129v82h129v78q0 164 175 164h118v-82h-108q-94 0 -94 -95v-65h170v-82zM544 589v143h95v-143h-95zM637 -48q0 -166 -163 -166h-121v85h106q87 0 87 91v532h91v-542z" />
    <glyph glyph-name="f_k" horiz-adv-x="1008" 
d="M421 412h-170v-412h-91v412h-129v82h129v78q0 164 175 164h118v-82h-108q-94 0 -94 -95v-65h170v-82zM880 0l-248 232v-232h-88v736h88v-454l233 212h125l-260 -233l273 -261h-123z" />
    <glyph glyph-name="space_uni0326" horiz-adv-x="500" 
d="M279 -325h-67q35 65 35 115h-52v115h112v-98q0 -68 -28 -132z" />
    <glyph glyph-name="zero.old" horiz-adv-x="648" 
d="M324 574q114 0 183 -84t69 -208q0 -125 -69 -209.5t-183 -84.5t-183 84.5t-69 209.5t68.5 208.5t183.5 83.5zM324 74q74 0 115 61t41 147t-41 146t-115 60t-115 -60.5t-41 -145.5q0 -86 41 -147t115 -61z" />
    <glyph glyph-name="one.old" horiz-adv-x="415" 
d="M293 567v-567h-93v458l-152 -89v90l173 108h72z" />
    <glyph glyph-name="two.old" horiz-adv-x="594" 
d="M530 84v-84h-455v60l180 132q77 57 109 95t32 88q0 51 -29.5 82.5t-80.5 31.5q-54 0 -85 -36.5t-31 -87.5v-16h-93v17q0 87 56.5 147.5t152.5 60.5q93 0 148.5 -56.5t55.5 -142.5q0 -40 -14.5 -75t-44.5 -66.5t-56 -52t-69 -51.5l-65 -46h289z" />
    <glyph glyph-name="three.old" horiz-adv-x="605" 
d="M532 46q0 -93 -62.5 -149.5t-171.5 -56.5q-108 0 -167 59t-67 141h97q9 -48 43 -81t94 -33q63 0 100.5 33.5t37.5 92.5q0 60 -36 92t-103 32h-105v86h112q54 0 84 29.5t30 83.5q0 52 -34 82.5t-88 30.5q-103 0 -121 -108h-96q4 77 59.5 135.5t156.5 58.5q103 0 161 -54
t58 -141q0 -60 -31.5 -99t-71.5 -55q48 -14 84.5 -59t36.5 -120z" />
    <glyph glyph-name="four.old" horiz-adv-x="659" 
d="M621 71h-136v-219h-94v219h-345v53l333 438h106v-407h136v-84zM169 155h222v293z" />
    <glyph glyph-name="five.old" horiz-adv-x="622" 
d="M114 158v404h405v-88h-312v-212q48 50 129 50q90 0 151 -62.5t61 -171.5v-1q0 -104 -64.5 -169.5t-169.5 -65.5q-108 0 -167.5 60.5t-66.5 147.5h95q7 -47 40 -84.5t99 -37.5q62 0 100 41.5t38 107.5q0 68 -37 108.5t-100 40.5q-76 0 -118 -65q-1 -2 -2 -3h-81z" />
    <glyph glyph-name="six.old" horiz-adv-x="620" 
d="M548 233q0 -105 -64.5 -175t-173.5 -70q-112 0 -175 67.5t-63 177.5q0 70 27.5 128t82.5 132l161 217h108l-203 -277q42 33 105 33q85 0 140 -63.5t55 -169.5zM452 233q0 69 -37.5 114t-104.5 45q-66 0 -104 -45t-38 -114t38 -114t104 -45t104 45t38 114z" />
    <glyph glyph-name="seven.old" horiz-adv-x="578" 
d="M523 489l-332 -637h-106l329 622h-349v88h458v-73z" />
    <glyph glyph-name="eight.old" horiz-adv-x="648" 
d="M567 192q0 -91 -64.5 -147.5t-175.5 -56.5h-11q-108 0 -171.5 56.5t-63.5 147.5q0 69 38.5 114t86.5 60q-44 13 -78 54t-34 106q0 87 59 141.5t166 54.5h10q108 0 166.5 -54.5t58.5 -141.5q0 -65 -34 -106t-78 -54q48 -15 86.5 -60t38.5 -114zM319 636q-59 0 -94 -31
t-35 -83t35 -83t94 -31h10q59 0 94 31t35 83t-35 83t-94 31h-10zM317 322q-63 0 -101 -34t-38 -90t38 -90t101 -34h14q64 0 101.5 34t37.5 90t-37.5 90t-101.5 34h-14z" />
    <glyph glyph-name="nine.old" horiz-adv-x="620" 
d="M438 69l-161 -217h-108l203 277q-42 -33 -105 -33q-85 0 -140 63.5t-55 169.5q0 105 64.5 175t173.5 70q112 0 175 -67.5t63 -177.5q0 -70 -27.5 -128t-82.5 -132zM168 329q0 -69 37.5 -114t104.5 -45q66 0 104 45t38 114t-38 114t-104 45t-104 -45t-38 -114z" />
    <glyph glyph-name="space.tab" horiz-adv-x="325" 
 />
    <glyph glyph-name="dollar.tab" 
d="M550 191q0 -76 -48.5 -128t-134.5 -62v-124h-78v123q-89 10 -138.5 66.5t-49.5 140.5v6h94v-4q0 -60 36 -93.5t94 -33.5q62 0 96 30t34 79q0 83 -103 114l-73 22q-86 25 -127 72.5t-41 129.5q0 75 49.5 124.5t128.5 59.5v116h78v-117q81 -10 125.5 -62.5t44.5 -135.5v-3
h-92v3q0 53 -32 85t-88 32q-55 0 -87.5 -27.5t-32.5 -74.5q0 -82 103 -113l73 -22q85 -26 127 -73.5t42 -129.5z" />
    <glyph glyph-name="cent.tab" 
d="M556 147q-3 -16 -12 -35.5t-28 -46.5t-55 -48t-82 -27v-113h-76v114q-85 15 -138.5 85.5t-53.5 170.5q0 101 53.5 172t138.5 85v108h76v-108q45 -6 80.5 -26.5t54 -46.5t27.5 -46t12 -36h-90q-37 74 -122 74q-60 0 -98 -50t-38 -126q0 -75 38 -125.5t99 -50.5
q88 0 126 76h88z" />
    <glyph glyph-name="Euro.tab" 
d="M17 404v78h118q0 114 63.5 177t170.5 63q108 0 171 -61t66 -169h-97q-2 62 -37.5 102.5t-102.5 40.5q-66 0 -103 -42.5t-37 -110.5h182v-78h-182v-91h182v-78h-182v-6q0 -71 37.5 -112t104.5 -41t102 39.5t36 108.5h97q-2 -114 -65.5 -174.5t-171.5 -60.5
q-107 0 -170.5 62t-63.5 178v6h-118v78h118v91h-118z" />
    <glyph glyph-name="sterling.tab" 
d="M630 88v-88h-598v88h117v186h-117v88h117v149q0 100 56 155.5t151 55.5q98 0 152.5 -54.5t54.5 -156.5v-38h-92v36q0 60 -30.5 93t-84.5 33q-53 0 -82 -33t-29 -93v-147h224v-88h-224v-186h385z" />
    <glyph glyph-name="yen.tab" 
d="M581 149h-204v-149h-97v149h-204v78h204v91h-204v78h202l-245 314h117l180 -233l179 233h108l-240 -314h204v-78h-204v-91h204v-78z" />
    <glyph glyph-name="florin.tab" 
d="M513 342h-189l-89 -556h-92l87 556h-151v83h164l19 119q14 88 56 127t137 39h146v-83h-137q-55 0 -78.5 -21.5t-31.5 -74.5l-17 -106h176v-83z" />
    <glyph glyph-name="zero.tab" 
d="M325 722q111 0 177 -67.5t66 -186.5v-226q0 -122 -66 -188t-177 -66t-177 66t-66 188v226q0 119 66 186.5t177 67.5zM325 76q71 0 109 46t38 121v224q0 75 -38 121t-109 46t-109 -46t-38 -121v-224q0 -75 38 -121t109 -46z" />
    <glyph glyph-name="one.tab" 
d="M454 713v-713h-97v599l-236 -133v92l261 155h72z" />
    <glyph glyph-name="two.tab" 
d="M590 88v-88h-499v60l240 237q65 65 93 108.5t28 97.5q0 59 -35.5 95t-96.5 36t-96.5 -38.5t-35.5 -100.5v-46h-95v47q0 99 61.5 162.5t165.5 63.5q105 0 167 -61.5t62 -157.5q0 -53 -23 -102.5t-50.5 -81t-81.5 -84.5l-150 -147h346z" />
    <glyph glyph-name="three.tab" 
d="M574 194q0 -93 -67.5 -149.5t-185.5 -56.5q-117 0 -180.5 59t-71.5 141h97q9 -47 48.5 -79.5t106.5 -32.5q71 0 113 33t42 91q0 59 -38 91t-107 32h-125v88h128q57 0 89 29t32 83q0 52 -37.5 82t-98.5 30q-60 0 -93.5 -29.5t-41.5 -77.5h-96q4 77 63.5 135.5t166.5 58.5
q109 0 171 -54t62 -141q0 -60 -30 -98.5t-69 -55.5q48 -14 85 -58.5t37 -120.5z" />
    <glyph glyph-name="four.tab" 
d="M610 213h-131v-213h-94v213h-338v53l326 444h106v-413h131v-84zM165 297h220v301z" />
    <glyph glyph-name="five.tab" 
d="M114 314v396h436v-88h-344v-206q52 52 144 52q96 0 161.5 -63t65.5 -171v-11q0 -104 -69 -169.5t-180 -65.5q-116 0 -179 60t-70 148h95q7 -46 43.5 -83t110.5 -37q67 0 110 41t43 106v10q0 67 -42 107t-111 40q-93 0 -134 -66h-80z" />
    <glyph glyph-name="six.tab" 
d="M580 230q0 -105 -69 -173.5t-187 -68.5q-119 0 -186.5 67t-67.5 175q0 73 28.5 130t86.5 133l166 217h115l-207 -263q39 21 94 21q100 0 163.5 -65t63.5 -173zM483 230q0 69 -41.5 112.5t-117.5 43.5q-71 0 -114 -44t-43 -112q0 -66 42 -110t115 -44q75 0 117 44t42 110z
" />
    <glyph glyph-name="seven.tab" 
d="M579 637l-352 -637h-106l348 622h-388v88h498v-73z" />
    <glyph glyph-name="eight.tab" 
d="M580 192q0 -91 -66 -147.5t-178 -56.5h-27q-109 0 -174 56.5t-65 147.5q0 70 38.5 114.5t88.5 59.5q-45 13 -79 54t-34 106q0 87 60.5 141.5t167.5 54.5h26q108 0 168 -54.5t60 -141.5q0 -65 -34 -106t-79 -54q50 -15 88.5 -59.5t38.5 -114.5zM312 636q-59 0 -95.5 -31
t-36.5 -83t36.5 -83t95.5 -31h26q59 0 95.5 31t36.5 83t-36.5 83t-95.5 31h-26zM310 322q-63 0 -102.5 -34t-39.5 -90t39.5 -90t102.5 -34h30q64 0 103 34t39 90t-39 90t-103 34h-30z" />
    <glyph glyph-name="nine.tab" 
d="M465 217l-166 -217h-115l207 263q-39 -21 -94 -21q-100 0 -163.5 65t-63.5 173q0 105 69 173.5t187 68.5q119 0 186.5 -67t67.5 -175q0 -73 -28.5 -130t-86.5 -133zM167 480q0 -69 41.5 -112.5t117.5 -43.5q71 0 114 44t43 112q0 66 -42 110t-115 44q-75 0 -117 -44
t-42 -110z" />
    <glyph glyph-name="percent.tab" horiz-adv-x="975" 
d="M232 356q-77 0 -129.5 52.5t-52.5 130.5t52.5 130.5t129.5 52.5t129.5 -52.5t52.5 -130.5t-52.5 -130.5t-129.5 -52.5zM189 0l502 710h95l-503 -710h-94zM232 430q45 0 74 31t29 78t-29 78t-74 31t-74 -31t-29 -78t29 -78t74 -31zM743 -14q-77 0 -129.5 52.5t-52.5 130.5
t52.5 130.5t129.5 52.5t129.5 -52.5t52.5 -130.5t-52.5 -130.5t-129.5 -52.5zM743 60q45 0 74 31t29 78t-29 78t-74 31t-74 -31t-29 -78t29 -78t74 -31z" />
    <glyph glyph-name="perthousand.tab" horiz-adv-x="1300" 
d="M221 372q-74 0 -124.5 50t-50.5 125q0 74 50.5 124.5t124.5 50.5t124.5 -50.5t50.5 -124.5q0 -75 -50.5 -125t-124.5 -50zM237 0h-92l504 710h93zM221 447q42 0 69 28.5t27 71.5t-27 71.5t-69 28.5t-69 -28.5t-27 -71.5t27 -71.5t69 -28.5zM665 -14q-74 0 -124.5 50
t-50.5 125q0 74 50.5 124.5t124.5 50.5t124.5 -50.5t50.5 -124.5q0 -75 -50.5 -125t-124.5 -50zM1079 -14q-74 0 -124.5 50t-50.5 125q0 74 50.5 124.5t124.5 50.5t124.5 -50.5t50.5 -124.5q0 -75 -50.5 -125t-124.5 -50zM665 61q42 0 69 28.5t27 71.5t-27 71.5t-69 28.5
t-69 -28.5t-27 -71.5t27 -71.5t69 -28.5zM1079 61q42 0 69 28.5t27 71.5t-27 71.5t-69 28.5t-69 -28.5t-27 -71.5t27 -71.5t69 -28.5z" />
    <glyph glyph-name="plus.tab" 
d="M584 276h-218v-226h-82v226h-218v78h218v226h82v-226h218v-78z" />
    <glyph glyph-name="minus.tab" 
d="M589 275h-528v80h528v-80z" />
    <glyph glyph-name="multiply.tab" 
d="M589 370h-528v77h528v-77zM589 166h-528v77h528v-77z" />
    <glyph glyph-name="divide.tab" 
d="M268 447v143h116v-143h-116zM589 275h-528v80h528v-80zM268 30v143h116v-143h-116z" />
    <glyph glyph-name="equal.tab" 
d="M561 113l-56 -54l-182 181l-180 -181l-54 54l180 181l-180 179l58 58l179 -181l180 181l54 -54l-180 -181z" />
    <glyph glyph-name="less.tab" 
d="M551 147v-87l-461 201v69l461 201v-89l-352 -148z" />
    <glyph glyph-name="greater.tab" 
d="M561 261l-461 -201v89l352 148l-352 147v87l461 -201v-69z" />
    <glyph glyph-name="period.tab" horiz-adv-x="325" 
d="M105 0v142h116v-142h-116z" />
    <glyph glyph-name="comma.tab" horiz-adv-x="325" 
d="M168 -214h-74q74 123 76 214h-54v142h116v-134q0 -115 -64 -222z" />
    <glyph glyph-name="colon.tab" horiz-adv-x="325" 
d="M105 0v142h116v-142h-116zM105 343v142h116v-142h-116z" />
    <glyph glyph-name="semicolon.tab" horiz-adv-x="325" 
d="M105 343v142h116v-142h-116zM157 -214h-74q74 123 76 214h-54v142h116v-134q0 -115 -64 -222z" />
    <glyph glyph-name="a.alt" horiz-adv-x="573" 
d="M58 156q0 71 48.5 110.5t137.5 39.5h156q0 56 -34.5 88.5t-91.5 32.5q-35 0 -61.5 -13.5t-35.5 -25.5t-14 -23h-91q3 16 14 37t32.5 46t62.5 42t93 17q101 0 157 -55t56 -145v-179q0 -45 36 -51v-82q-96 0 -118 74q-47 -80 -151 -80q-86 0 -141 46t-55 121zM265 65
q55 0 95 29t40 74v66h-151q-46 0 -73 -20t-27 -58q0 -41 31.5 -66t84.5 -25z" />
    <glyph glyph-name="u.alt" horiz-adv-x="603" 
d="M420 0v75q-15 -34 -52.5 -60t-92.5 -26q-85 0 -136 54.5t-51 148.5v302h92v-285q0 -67 30.5 -101.5t86.5 -34.5q58 0 90.5 35.5t32.5 100.5v285h91v-494h-91z" />
    <glyph glyph-name="aacute.alt" horiz-adv-x="573" 
d="M58 156q0 71 48.5 110.5t137.5 39.5h156q0 56 -34.5 88.5t-91.5 32.5q-35 0 -61.5 -13.5t-35.5 -25.5t-14 -23h-91q3 16 14 37t32.5 46t62.5 42t93 17q101 0 157 -55t56 -145v-179q0 -45 36 -51v-82q-96 0 -118 74q-47 -80 -151 -80q-86 0 -141 46t-55 121zM265 65
q55 0 95 29t40 74v66h-151q-46 0 -73 -20t-27 -58q0 -41 31.5 -66t84.5 -25zM228 579l98 183h100l-105 -183h-93z" />
    <glyph glyph-name="abreve.alt" horiz-adv-x="573" 
d="M58 156q0 71 48.5 110.5t137.5 39.5h156q0 56 -34.5 88.5t-91.5 32.5q-35 0 -61.5 -13.5t-35.5 -25.5t-14 -23h-91q3 16 14 37t32.5 46t62.5 42t93 17q101 0 157 -55t56 -145v-179q0 -45 36 -51v-82q-96 0 -118 74q-47 -80 -151 -80q-86 0 -141 46t-55 121zM265 65
q55 0 95 29t40 74v66h-151q-46 0 -73 -20t-27 -58q0 -41 31.5 -66t84.5 -25zM276 644q29 0 44 20t15 49v17h75v-19q0 -61 -34.5 -99.5t-99.5 -38.5t-99.5 38.5t-34.5 99.5v19h75v-17q0 -28 15 -48.5t44 -20.5z" />
    <glyph glyph-name="acircumflex.alt" horiz-adv-x="573" 
d="M58 156q0 71 48.5 110.5t137.5 39.5h156q0 56 -34.5 88.5t-91.5 32.5q-35 0 -61.5 -13.5t-35.5 -25.5t-14 -23h-91q3 16 14 37t32.5 46t62.5 42t93 17q101 0 157 -55t56 -145v-179q0 -45 36 -51v-82q-96 0 -118 74q-47 -80 -151 -80q-86 0 -141 46t-55 121zM265 65
q55 0 95 29t40 74v66h-151q-46 0 -73 -20t-27 -58q0 -41 31.5 -66t84.5 -25zM343 576l-69 112l-68 -112h-88l118 193h76l116 -193h-85z" />
    <glyph glyph-name="adieresis.alt" horiz-adv-x="573" 
d="M58 156q0 71 48.5 110.5t137.5 39.5h156q0 56 -34.5 88.5t-91.5 32.5q-35 0 -61.5 -13.5t-35.5 -25.5t-14 -23h-91q3 16 14 37t32.5 46t62.5 42t93 17q101 0 157 -55t56 -145v-179q0 -45 36 -51v-82q-96 0 -118 74q-47 -80 -151 -80q-86 0 -141 46t-55 121zM265 65
q55 0 95 29t40 74v66h-151q-46 0 -73 -20t-27 -58q0 -41 31.5 -66t84.5 -25zM138 589v139h92v-139h-92zM322 589v139h92v-139h-92z" />
    <glyph glyph-name="agrave.alt" horiz-adv-x="573" 
d="M58 156q0 71 48.5 110.5t137.5 39.5h156q0 56 -34.5 88.5t-91.5 32.5q-35 0 -61.5 -13.5t-35.5 -25.5t-14 -23h-91q3 16 14 37t32.5 46t62.5 42t93 17q101 0 157 -55t56 -145v-179q0 -45 36 -51v-82q-96 0 -118 74q-47 -80 -151 -80q-86 0 -141 46t-55 121zM265 65
q55 0 95 29t40 74v66h-151q-46 0 -73 -20t-27 -58q0 -41 31.5 -66t84.5 -25zM325 579h-93l-105 183h100z" />
    <glyph glyph-name="amacron.alt" horiz-adv-x="573" 
d="M58 156q0 71 48.5 110.5t137.5 39.5h156q0 56 -34.5 88.5t-91.5 32.5q-35 0 -61.5 -13.5t-35.5 -25.5t-14 -23h-91q3 16 14 37t32.5 46t62.5 42t93 17q101 0 157 -55t56 -145v-179q0 -45 36 -51v-82q-96 0 -118 74q-47 -80 -151 -80q-86 0 -141 46t-55 121zM265 65
q55 0 95 29t40 74v66h-151q-46 0 -73 -20t-27 -58q0 -41 31.5 -66t84.5 -25zM420 621h-290v78h290v-78z" />
    <glyph glyph-name="aogonek.alt" horiz-adv-x="573" 
d="M58 156q0 71 49 110.5t139 39.5h156q0 56 -35 88.5t-92 32.5q-36 0 -62.5 -13.5t-35.5 -25.5t-14 -23h-91q3 16 14 37t33 46t63 42t93 17q101 0 157.5 -55t56.5 -145v-179q0 -45 36 -51v-77q-27 -25 -36 -33t-24.5 -24t-20.5 -26t-5 -19q0 -30 39 -30h67v-82h-72
q-129 0 -129 94q0 26 19 52.5t38 41.5t52 37q-35 20 -46 58q-47 -80 -152 -80q-86 0 -141.5 46t-55.5 121zM266 65q56 0 96 29t40 74v66h-151q-47 0 -74.5 -20.5t-27.5 -57.5q0 -41 31.5 -66t85.5 -25z" />
    <glyph glyph-name="aring.alt" horiz-adv-x="573" 
d="M58 156q0 71 48.5 110.5t137.5 39.5h156q0 56 -34.5 88.5t-91.5 32.5q-35 0 -61.5 -13.5t-35.5 -25.5t-14 -23h-91q3 16 14 37t32.5 46t62.5 42t93 17q101 0 157 -55t56 -145v-179q0 -45 36 -51v-82q-96 0 -118 74q-47 -80 -151 -80q-86 0 -141 46t-55 121zM265 65
q55 0 95 29t40 74v66h-151q-46 0 -73 -20t-27 -58q0 -41 31.5 -66t84.5 -25zM274 567q-55 0 -91.5 36t-36.5 89q0 54 36.5 90.5t91.5 36.5t91.5 -36.5t36.5 -90.5q0 -53 -36.5 -89t-91.5 -36zM274 628q27 0 44.5 18.5t17.5 45.5q0 28 -17 46t-45 18t-45 -18t-17 -46
q0 -27 17.5 -45.5t44.5 -18.5z" />
    <glyph glyph-name="aringacute.alt" horiz-adv-x="573" 
d="M58 156q0 71 48.5 110.5t137.5 39.5h156q0 56 -34.5 88.5t-91.5 32.5q-35 0 -61.5 -13.5t-35.5 -25.5t-14 -23h-91q3 16 14 37t32.5 46t62.5 42t93 17q101 0 157 -55t56 -145v-179q0 -45 36 -51v-82q-96 0 -118 74q-47 -80 -151 -80q-86 0 -141 46t-55 121zM265 65
q55 0 95 29t40 74v66h-151q-46 0 -73 -20t-27 -58q0 -41 31.5 -66t84.5 -25zM231 858l89 150h96l-96 -150h-89zM274 567q-55 0 -91.5 36t-36.5 89q0 54 36.5 90.5t91.5 36.5t91.5 -36.5t36.5 -90.5q0 -53 -36.5 -89t-91.5 -36zM274 628q27 0 44.5 18.5t17.5 45.5
q0 28 -17 46t-45 18t-45 -18t-17 -46q0 -27 17.5 -45.5t44.5 -18.5z" />
    <glyph glyph-name="atilde.alt" horiz-adv-x="573" 
d="M58 156q0 71 48.5 110.5t137.5 39.5h156q0 56 -34.5 88.5t-91.5 32.5q-35 0 -61.5 -13.5t-35.5 -25.5t-14 -23h-91q3 16 14 37t32.5 46t62.5 42t93 17q101 0 157 -55t56 -145v-179q0 -45 36 -51v-82q-96 0 -118 74q-47 -80 -151 -80q-86 0 -141 46t-55 121zM265 65
q55 0 95 29t40 74v66h-151q-46 0 -73 -20t-27 -58q0 -41 31.5 -66t84.5 -25zM192 575h-71v74q0 44 19.5 69t58.5 25q25 0 43 -10t44 -33l25 -23q19 -17 29 -17q17 0 17 23v65h71v-74q0 -44 -19.5 -69t-58.5 -25q-25 0 -43 10t-43 33l-25 23q-19 17 -30 17q-17 0 -17 -23v-65
z" />
    <glyph glyph-name="uacute.alt" horiz-adv-x="603" 
d="M420 0v75q-15 -34 -52.5 -60t-92.5 -26q-85 0 -136 54.5t-51 148.5v302h92v-285q0 -67 30.5 -101.5t86.5 -34.5q58 0 90.5 35.5t32.5 100.5v285h91v-494h-91zM251 579l98 183h100l-105 -183h-93z" />
    <glyph glyph-name="ubreve.alt" horiz-adv-x="603" 
d="M420 0v75q-15 -34 -52.5 -60t-92.5 -26q-85 0 -136 54.5t-51 148.5v302h92v-285q0 -67 30.5 -101.5t86.5 -34.5q58 0 90.5 35.5t32.5 100.5v285h91v-494h-91zM297 644q29 0 44 20t15 49v17h75v-19q0 -61 -34.5 -99.5t-99.5 -38.5t-99.5 38.5t-34.5 99.5v19h75v-17
q0 -28 15 -48.5t44 -20.5z" />
    <glyph glyph-name="ucircumflex.alt" horiz-adv-x="603" 
d="M420 0v75q-15 -34 -52.5 -60t-92.5 -26q-85 0 -136 54.5t-51 148.5v302h92v-285q0 -67 30.5 -101.5t86.5 -34.5q58 0 90.5 35.5t32.5 100.5v285h91v-494h-91zM366 576l-69 112l-68 -112h-88l118 193h76l116 -193h-85z" />
    <glyph glyph-name="udieresis.alt" horiz-adv-x="603" 
d="M420 0v75q-15 -34 -52.5 -60t-92.5 -26q-85 0 -136 54.5t-51 148.5v302h92v-285q0 -67 30.5 -101.5t86.5 -34.5q58 0 90.5 35.5t32.5 100.5v285h91v-494h-91zM159 589v139h92v-139h-92zM343 589v139h92v-139h-92z" />
    <glyph glyph-name="ugrave.alt" horiz-adv-x="603" 
d="M420 0v75q-15 -34 -52.5 -60t-92.5 -26q-85 0 -136 54.5t-51 148.5v302h92v-285q0 -67 30.5 -101.5t86.5 -34.5q58 0 90.5 35.5t32.5 100.5v285h91v-494h-91zM343 579h-93l-105 183h100z" />
    <glyph glyph-name="uhungarumlaut.alt" horiz-adv-x="603" 
d="M420 0v75q-15 -34 -52.5 -60t-92.5 -26q-85 0 -136 54.5t-51 148.5v302h92v-285q0 -67 30.5 -101.5t86.5 -34.5q58 0 90.5 35.5t32.5 100.5v285h91v-494h-91zM341 579l74 183h88l-81 -183h-81zM172 579l74 183h88l-81 -183h-81z" />
    <glyph glyph-name="umacron.alt" horiz-adv-x="603" 
d="M420 0v75q-15 -34 -52.5 -60t-92.5 -26q-85 0 -136 54.5t-51 148.5v302h92v-285q0 -67 30.5 -101.5t86.5 -34.5q58 0 90.5 35.5t32.5 100.5v285h91v-494h-91zM443 621h-290v78h290v-78z" />
    <glyph glyph-name="uogonek.alt" horiz-adv-x="603" 
d="M531 -132v-82h-72q-129 0 -129 94q0 24 15.5 47.5t28 34.5t46.5 38v75q-15 -34 -52.5 -60t-92.5 -26q-85 0 -136 54.5t-51 148.5v302h92v-285q0 -67 30.5 -101.5t86.5 -34.5q58 0 90.5 35.5t32.5 100.5v285h91v-494q-27 -25 -36 -33t-24.5 -24t-20.5 -26t-5 -19
q0 -30 39 -30h67z" />
    <glyph glyph-name="uring.alt" horiz-adv-x="603" 
d="M420 0v75q-15 -34 -52.5 -60t-92.5 -26q-85 0 -136 54.5t-51 148.5v302h92v-285q0 -67 30.5 -101.5t86.5 -34.5q58 0 90.5 35.5t32.5 100.5v285h91v-494h-91zM297 567q-55 0 -91.5 36t-36.5 89q0 54 36.5 90.5t91.5 36.5t91.5 -36.5t36.5 -90.5q0 -53 -36.5 -89
t-91.5 -36zM297 628q27 0 44.5 18.5t17.5 45.5q0 28 -17 46t-45 18t-45 -18t-17 -46q0 -27 17.5 -45.5t44.5 -18.5z" />
    <glyph glyph-name="utilde.alt" horiz-adv-x="603" 
d="M420 0v75q-15 -34 -52.5 -60t-92.5 -26q-85 0 -136 54.5t-51 148.5v302h92v-285q0 -67 30.5 -101.5t86.5 -34.5q58 0 90.5 35.5t32.5 100.5v285h91v-494h-91zM215 575h-71v74q0 44 19.5 69t58.5 25q25 0 43 -10t44 -33l25 -23q19 -17 29 -17q17 0 17 23v65h71v-74
q0 -44 -19.5 -69t-58.5 -25q-25 0 -43 10t-43 33l-25 23q-19 17 -30 17q-17 0 -17 -23v-65z" />
    <glyph glyph-name="space_uni0326.alt" horiz-adv-x="500" 
d="M222 819h67q-35 -65 -35 -115h52v-115h-112v98q0 68 28 132z" />
    <glyph glyph-name="four.alt" horiz-adv-x="710" 
d="M674 230h-164v-230h-97v230h-308v480h96v-393h212v298h97v-298h164v-87z" />
    <glyph glyph-name="onequarter.alt" horiz-adv-x="1021" 
d="M254 0h-92l433 710h92zM982 122h-84v-122h-84v122h-201v304h84v-231h117v174h84v-174h84v-73zM233 703v-428h-85v332l-105 -59v79l126 76h64z" />
    <glyph glyph-name="threequarters.alt" horiz-adv-x="1118" 
d="M351 0h-92l433 710h92zM1079 122h-84v-122h-84v122h-201v304h84v-231h117v174h84v-174h84v-73zM372 395q0 -57 -43 -92t-118 -35q-76 0 -117 38.5t-45 89.5h85q4 -21 23.5 -37t53.5 -16q35 0 55 15.5t20 42.5q0 56 -65 56h-79v74h76q55 0 55 50q0 25 -17.5 39.5
t-47.5 14.5q-57 0 -66 -50h-84q2 49 41 86t109 37q71 0 110.5 -32.5t39.5 -87.5q0 -63 -56 -88q28 -9 49 -35t21 -70z" />
    <glyph glyph-name="caron.alt" horiz-adv-x="600" 
d="M232 579l49 193h87l-56 -193h-80z" />
    <glyph glyph-name="questiondown.uc" horiz-adv-x="544" 
d="M287 478h92v-8q0 -46 -14.5 -70t-61.5 -57l-72 -50q-79 -56 -79 -120q0 -47 30 -75t82 -28t82.5 33t30.5 85v32h89v-35q0 -90 -54.5 -143.5t-147.5 -53.5q-96 0 -150.5 50t-54.5 135q0 62 29.5 105t92.5 85l72 49q34 24 34 66zM391 710v-142h-116v142h116z" />
    <glyph glyph-name="exclamdown.uc" horiz-adv-x="336" 
d="M110 569v141h116v-141h-116zM124 0v478h88v-478h-88z" />
    <glyph glyph-name="hyphen.uc" horiz-adv-x="496" 
d="M84 295v86h328v-86h-328z" />
    <glyph glyph-name="endash.uc" horiz-adv-x="704" 
d="M84 300v76h536v-76h-536z" />
    <glyph glyph-name="emdash.uc" horiz-adv-x="1000" 
d="M84 300v76h832v-76h-832z" />
    <glyph glyph-name="quoteleft.uc" horiz-adv-x="292" 
d="M139 710h71q-61 -115 -61 -202h55v-130h-116v120q0 114 51 212z" />
    <glyph glyph-name="quoteright.uc" horiz-adv-x="292" 
d="M153 378h-71q61 115 61 202h-55v130h116v-120q0 -114 -51 -212z" />
    <glyph glyph-name="quotedblleft.uc" horiz-adv-x="495" 
d="M139 710h71q-61 -115 -61 -202h55v-130h-116v120q0 114 51 212zM342 710h71q-61 -115 -61 -202h55v-130h-116v120q0 114 51 212z" />
    <glyph glyph-name="quotedblright.uc" horiz-adv-x="495" 
d="M356 378h-71q61 115 61 202h-55v130h116v-120q0 -114 -51 -212zM153 378h-71q61 115 61 202h-55v130h116v-120q0 -114 -51 -212z" />
    <glyph glyph-name="guilsinglleft.uc" horiz-adv-x="341" 
d="M271 485l-115 -177l115 -179h-93l-113 178l114 178h92z" />
    <glyph glyph-name="guilsinglright.uc" horiz-adv-x="341" 
d="M276 307l-114 -178h-92l115 177l-115 179h93z" />
    <glyph glyph-name="guillemotleft.uc" horiz-adv-x="551" 
d="M265 485l-111 -177l111 -179h-91l-109 178l110 178h90zM481 485l-111 -177l111 -179h-91l-109 178l110 178h90z" />
    <glyph glyph-name="guillemotright.uc" horiz-adv-x="551" 
d="M486 307l-110 -178h-90l111 177l-111 179h91zM270 307l-110 -178h-90l111 177l-111 179h91z" />
    <glyph glyph-name="at.uc" horiz-adv-x="1030" 
d="M929 51q-20 -28 -49.5 -54.5t-76 -54.5t-114.5 -45t-146 -17q-147 0 -256 62t-163.5 165t-54.5 232q0 203 131.5 335.5t333.5 132.5q103 0 186 -32t135 -86t79 -123t27 -146q0 -128 -63.5 -212t-165.5 -84q-52 0 -82.5 19.5t-37.5 50.5q-40 -70 -125 -70q-81 0 -131.5 56
t-50.5 154q0 97 56 163t147 66q51 0 83.5 -24t45.5 -56l14 75h84l-51 -288q-13 -74 50 -74q58 0 102 59t44 166q0 140 -91.5 227t-254.5 87q-168 0 -275.5 -110t-107.5 -288q0 -171 107 -277.5t285 -106.5q75 0 141 20t92.5 36.5t58.5 41.5h94zM515 481q-53 0 -85.5 -42
t-32.5 -107q0 -58 26 -92t74 -34q53 0 85.5 42t32.5 107q0 58 -26 92t-74 34z" />
    <glyph glyph-name="grave.uc" horiz-adv-x="600" 
d="M405 778h-102l-109 150h110z" />
    <glyph glyph-name="dieresis.uc" horiz-adv-x="600" 
d="M157 778v139h92v-139h-92zM351 778v139h92v-139h-92z" />
    <glyph glyph-name="macron.uc" horiz-adv-x="500" 
d="M408 813h-316v78h316v-78z" />
    <glyph glyph-name="acute.uc" horiz-adv-x="600" 
d="M194 778l102 150h110l-110 -150h-102z" />
    <glyph glyph-name="circumflex.uc" horiz-adv-x="600" 
d="M334 775l-73 87l-74 -87h-98l132 156h78l129 -156h-94z" />
    <glyph glyph-name="caron.uc" horiz-adv-x="600" 
d="M425 931l-129 -156h-78l-132 156h98l74 -87l73 87h94z" />
    <glyph glyph-name="breve.uc" horiz-adv-x="600" 
d="M300 843q32 0 48.5 20.5t16.5 50.5v13h76v-15q0 -62 -37 -101.5t-104 -39.5t-104 39.5t-37 101.5v15h76v-13q0 -30 16.5 -50.5t48.5 -20.5z" />
    <glyph glyph-name="dotaccent.uc" horiz-adv-x="600" 
d="M253 778v143h94v-143h-94z" />
    <glyph glyph-name="ring.uc" horiz-adv-x="600" 
d="M300 768q-55 0 -91.5 36t-36.5 89q0 54 36.5 90.5t91.5 36.5t91.5 -36.5t36.5 -90.5q0 -53 -36.5 -89t-91.5 -36zM300 829q27 0 44.5 18.5t17.5 45.5q0 28 -17 46t-45 18t-45 -18t-17 -46q0 -27 17.5 -45.5t44.5 -18.5z" />
    <glyph glyph-name="tilde.uc" horiz-adv-x="600" 
d="M296 816l-36 22q-23 15 -34 15q-17 0 -17 -24v-56h-73v66q0 94 77 94q8 0 17 -2t15 -3.5t15.5 -6.5t13.5 -7.5t15.5 -9.5t14.5 -9l36 -22q26 -15 34 -15q17 0 17 24v56h73v-66q0 -94 -77 -94q-10 0 -19 1.5t-20.5 7t-15.5 7.5t-19 11.5t-17 10.5z" />
    <glyph glyph-name="hungarumlaut.uc" horiz-adv-x="600" 
d="M302 778l78 150h92l-85 -150h-85zM128 778l78 150h92l-85 -150h-85z" />
    <glyph glyph-name="A.sc" horiz-adv-x="627" 
d="M490 0l-50 124h-258l-50 -124h-93l230 565h90l229 -565h-98zM215 206h192l-96 240z" />
    <glyph glyph-name="B.sc" horiz-adv-x="656" 
d="M113 0v562h281q81 0 125 -40.5t44 -110.5q0 -43 -26 -74t-62 -42q43 -11 72 -46.5t29 -87.5q0 -75 -50 -118t-146 -43h-267zM385 480h-180v-150h181q39 0 60.5 19.5t21.5 55.5q0 75 -83 75zM372 249h-167v-167h167q109 0 109 84q0 83 -109 83z" />
    <glyph glyph-name="C.sc" horiz-adv-x="619" 
d="M324 -9q-112 0 -180.5 82t-68.5 208t68.5 208t180.5 82q55 0 99 -17.5t70 -45.5t40.5 -57t18.5 -58h-91q-13 34 -46.5 63t-90.5 29q-73 0 -112.5 -58t-39.5 -146t39.5 -146t112.5 -58q58 0 92 29.5t46 63.5h90q-3 -27 -17.5 -56t-40 -57.5t-70 -47t-100.5 -18.5z" />
    <glyph glyph-name="D.sc" horiz-adv-x="667" 
d="M113 0v562h192q133 0 211 -75t78 -206q0 -129 -78 -205t-211 -76h-192zM305 478h-99v-394h99q90 0 142 53t52 144q0 93 -51.5 145t-142.5 52z" />
    <glyph glyph-name="E.sc" horiz-adv-x="607" 
d="M113 0v562h413v-83h-321v-140h189v-84h-189v-171h350v-84h-442z" />
    <glyph glyph-name="F.sc" horiz-adv-x="595" 
d="M113 0v562h436v-84h-343v-142h197v-84h-197v-252h-93z" />
    <glyph glyph-name="G.sc" horiz-adv-x="663" 
d="M571 63q-80 -73 -219 -73q-126 0 -201.5 81t-75.5 211q0 127 73 208.5t188 81.5q54 0 97.5 -16t69 -40.5t40 -48.5t19.5 -45h-94q-43 66 -132 66q-76 0 -121 -58t-45 -148q0 -94 49 -151t133 -57q85 0 130 31v134h-174v80h263v-256z" />
    <glyph glyph-name="H.sc" horiz-adv-x="702" 
d="M496 0v240h-290v-240h-93v562h93v-237h290v237h93v-562h-93z" />
    <glyph glyph-name="I.sc" horiz-adv-x="321" 
d="M114 0v562h93v-562h-93z" />
    <glyph glyph-name="J.sc" horiz-adv-x="568" 
d="M458 173q0 -87 -49.5 -134.5t-134.5 -47.5q-84 0 -132.5 47t-48.5 135v160h91v-157q0 -46 23.5 -72.5t66.5 -26.5t66.5 26.5t23.5 72.5v386h94v-389z" />
    <glyph glyph-name="K.sc" horiz-adv-x="624" 
d="M477 0l-271 257v-257h-93v562h93v-253l261 253h122l-283 -274l298 -288h-127z" />
    <glyph glyph-name="L.sc" horiz-adv-x="582" 
d="M535 87v-87h-422v562h93v-475h329z" />
    <glyph glyph-name="M.sc" horiz-adv-x="818" 
d="M254 562l157 -421l157 421h137v-562h-89v471l-178 -474h-63l-176 469v-466h-86v562h141z" />
    <glyph glyph-name="N.sc" horiz-adv-x="705" 
d="M592 562v-566h-72l-317 443v-439h-90v562h108l282 -400v400h89z" />
    <glyph glyph-name="O.sc" horiz-adv-x="664" 
d="M332 -9q-116 0 -186.5 80.5t-70.5 209.5q0 128 71 209t186 81q114 0 185.5 -81t71.5 -209q0 -127 -71.5 -208.5t-185.5 -81.5zM332 76q76 0 118.5 58t42.5 147t-43 147t-118 58q-76 0 -119 -58t-43 -147q0 -90 43 -147.5t119 -57.5z" />
    <glyph glyph-name="P.sc" horiz-adv-x="627" 
d="M113 0v562h260q93 0 142 -42.5t49 -121.5q0 -77 -49.5 -121.5t-141.5 -44.5h-167v-232h-93zM370 478h-164v-161h164q48 0 73.5 22t25.5 58q0 81 -99 81z" />
    <glyph glyph-name="Q.sc" horiz-adv-x="664" 
d="M589 281q0 -92 -38.5 -161.5t-106.5 -102.5l130 -137h-118l-110 112h-14q-116 0 -186.5 80.5t-70.5 208.5t71 209t186 81q114 0 185.5 -81t71.5 -209zM332 76q75 0 118 58t43 147t-43 147t-118 58q-76 0 -119 -58t-43 -147q0 -90 43 -147.5t119 -57.5z" />
    <glyph glyph-name="R.sc" 
d="M113 0v562h263q90 0 139 -41t49 -119q0 -121 -116 -151l144 -251h-100l-141 243h-145v-243h-93zM372 478h-166v-153h166q96 0 96 77q0 76 -96 76z" />
    <glyph glyph-name="S.sc" horiz-adv-x="601" 
d="M283 490q-52 0 -82 -20t-30 -54t25 -50.5t72 -24.5l70 -10q88 -13 139 -50.5t51 -117.5q0 -76 -57.5 -124.5t-156.5 -48.5q-113 0 -175.5 50t-80.5 119h99q12 -34 51 -60.5t106 -26.5q55 0 87.5 23.5t32.5 61.5q0 39 -27 57.5t-76 26.5l-70 10q-88 13 -136 50.5
t-48 112.5q0 72 57.5 115t148.5 43q104 0 161 -44t71 -105h-96q-37 67 -136 67z" />
    <glyph glyph-name="T.sc" horiz-adv-x="606" 
d="M47 477v85h512v-85h-209v-477h-93v477h-210z" />
    <glyph glyph-name="U.sc" horiz-adv-x="691" 
d="M346 78q66 0 104 41t38 107v336h93v-343q0 -98 -62 -163.5t-173 -65.5q-115 0 -175.5 64t-60.5 165v343h93v-336q0 -67 37 -107.5t106 -40.5z" />
    <glyph glyph-name="V.sc" horiz-adv-x="618" 
d="M577 562l-219 -564h-93l-224 564h103l169 -442l168 442h96z" />
    <glyph glyph-name="W.sc" horiz-adv-x="865" 
d="M564 -3l-130 420l-131 -420h-80l-172 565h98l121 -412l125 415h84l127 -420l120 417h88l-165 -565h-85z" />
    <glyph glyph-name="X.sc" horiz-adv-x="661" 
d="M504 0l-176 222l-176 -222h-111l232 292l-214 270h121l152 -194l154 194h112l-210 -265l232 -297h-116z" />
    <glyph glyph-name="Y.sc" horiz-adv-x="585" 
d="M343 226v-226h-95v227l-222 335h115l157 -241l157 241h104z" />
    <glyph glyph-name="Z.sc" horiz-adv-x="614" 
d="M557 86v-86h-490v54l320 424h-313v84h450v-54l-321 -422h354z" />
    <glyph glyph-name="Oslash.sc" horiz-adv-x="664" 
d="M589 281q0 -127 -71.5 -208.5t-185.5 -81.5q-83 0 -146 44l-28 -35h-96l70 90q-57 75 -57 191q0 128 71 209t186 81q80 0 144 -44l27 35h98l-70 -89q58 -78 58 -192zM168 281q0 -69 23 -118l231 298q-37 26 -90 26q-76 0 -120 -58.5t-44 -147.5zM495 281q0 69 -23 118
l-233 -296q39 -28 93 -28q76 0 119.5 58t43.5 148z" />
    <glyph glyph-name="AE.sc" horiz-adv-x="859" 
d="M807 84v-84h-404v137h-206l-82 -137h-104l341 562h427v-83h-283v-140h170v-84h-170v-171h311zM245 217h158v265z" />
    <glyph glyph-name="OE.sc" horiz-adv-x="873" 
d="M73 281q0 126 79 203.5t208 77.5h433v-83h-283v-140h171v-84h-171v-171h311v-84h-461q-130 0 -208.5 77t-78.5 204zM361 84h56v394h-56q-89 0 -141 -55t-52 -142t52 -142t141 -55z" />
    <glyph glyph-name="Eth.sc" horiz-adv-x="667" 
d="M32 324h81v238h192q133 0 211 -75t78 -206q0 -129 -78 -205t-211 -76h-192v242h-81v82zM366 242h-160v-158h99q90 0 142 53t52 144q0 93 -51.5 145t-142.5 52h-99v-154h160v-82z" />
    <glyph glyph-name="Dcroat.sc" horiz-adv-x="667" 
d="M32 324h81v238h192q133 0 211 -75t78 -206q0 -129 -78 -205t-211 -76h-192v242h-81v82zM366 242h-160v-158h99q90 0 142 53t52 144q0 93 -51.5 145t-142.5 52h-99v-154h160v-82z" />
    <glyph glyph-name="Eng.sc" horiz-adv-x="707" 
d="M594 -26q0 -140 -138 -140h-78v78h54q75 0 75 65q0 36 -41 93l-263 371v-441h-90v562h110l282 -401v401h89v-588z" />
    <glyph glyph-name="IJ.sc" horiz-adv-x="889" 
d="M114 0v562h93v-562h-93zM779 173q0 -87 -49.5 -134.5t-134.5 -47.5q-84 0 -132.5 47t-48.5 135v160h91v-157q0 -46 23.5 -72.5t66.5 -26.5t66.5 26.5t23.5 72.5v386h94v-389z" />
    <glyph glyph-name="dotlessj.sc" horiz-adv-x="568" 
d="M458 173q0 -87 -49.5 -134.5t-134.5 -47.5q-84 0 -132.5 47t-48.5 135v160h91v-157q0 -46 23.5 -72.5t66.5 -26.5t66.5 26.5t23.5 72.5v386h94v-389z" />
    <glyph glyph-name="Aacute.sc" horiz-adv-x="627" 
d="M490 0l-50 124h-258l-50 -124h-93l230 565h90l229 -565h-98zM215 206h192l-96 240zM262 630l102 150h110l-110 -150h-102z" />
    <glyph glyph-name="Abreve.sc" horiz-adv-x="627" 
d="M490 0l-50 124h-258l-50 -124h-93l230 565h90l229 -565h-98zM215 206h192l-96 240zM312 695q32 0 48.5 20.5t16.5 50.5v13h76v-15q0 -62 -37 -101.5t-104 -39.5t-104 39.5t-37 101.5v15h76v-13q0 -30 16.5 -50.5t48.5 -20.5z" />
    <glyph glyph-name="Acircumflex.sc" horiz-adv-x="627" 
d="M490 0l-50 124h-258l-50 -124h-93l230 565h90l229 -565h-98zM215 206h192l-96 240zM386 627l-73 87l-74 -87h-98l132 156h78l129 -156h-94z" />
    <glyph glyph-name="Adieresis.sc" horiz-adv-x="627" 
d="M490 0l-50 124h-258l-50 -124h-93l230 565h90l229 -565h-98zM215 206h192l-96 240zM169 630v139h92v-139h-92zM363 630v139h92v-139h-92z" />
    <glyph glyph-name="Agrave.sc" horiz-adv-x="627" 
d="M490 0l-50 124h-258l-50 -124h-93l230 565h90l229 -565h-98zM215 206h192l-96 240zM363 630h-102l-109 150h110z" />
    <glyph glyph-name="Amacron.sc" horiz-adv-x="627" 
d="M490 0l-50 124h-258l-50 -124h-93l230 565h90l229 -565h-98zM215 206h192l-96 240zM470 665h-316v78h316v-78z" />
    <glyph glyph-name="Aogonek.sc" horiz-adv-x="627" 
d="M588 0q-27 -25 -36 -33t-24.5 -24t-20.5 -26t-5 -19q0 -30 39 -30h67v-82h-72q-129 0 -129 94q0 24 13 46.5t28 37t42 36.5l-50 124h-258l-50 -124h-93l230 565h90zM215 206h192l-96 240z" />
    <glyph glyph-name="Aring.sc" horiz-adv-x="627" 
d="M490 0l-50 124h-258l-50 -124h-93l230 565h90l229 -565h-98zM215 206h192l-96 240zM312 620q-55 0 -91.5 36t-36.5 89q0 54 36.5 90.5t91.5 36.5t91.5 -36.5t36.5 -90.5q0 -53 -36.5 -89t-91.5 -36zM312 681q27 0 44.5 18.5t17.5 45.5q0 28 -17 46t-45 18t-45 -18
t-17 -46q0 -27 17.5 -45.5t44.5 -18.5z" />
    <glyph glyph-name="Atilde.sc" horiz-adv-x="627" 
d="M490 0l-50 124h-258l-50 -124h-93l230 565h90l229 -565h-98zM215 206h192l-96 240zM305 668l-36 22q-23 15 -34 15q-17 0 -17 -24v-56h-73v66q0 94 77 94q8 0 17 -2t15 -3.5t15.5 -6.5t13.5 -7.5t15.5 -9.5t14.5 -9l36 -22q26 -15 34 -15q17 0 17 24v56h73v-66
q0 -94 -77 -94q-10 0 -19 1.5t-20.5 7t-15.5 7.5t-19 11.5t-17 10.5z" />
    <glyph glyph-name="AEacute.sc" horiz-adv-x="859" 
d="M807 84v-84h-404v137h-206l-82 -137h-104l341 562h427v-83h-283v-140h170v-84h-170v-171h311zM245 217h158v265zM515 630l102 150h110l-110 -150h-102z" />
    <glyph glyph-name="Cacute.sc" horiz-adv-x="619" 
d="M324 -9q-112 0 -180.5 82t-68.5 208t68.5 208t180.5 82q55 0 99 -17.5t70 -45.5t40.5 -57t18.5 -58h-91q-13 34 -46.5 63t-90.5 29q-73 0 -112.5 -58t-39.5 -146t39.5 -146t112.5 -58q58 0 92 29.5t46 63.5h90q-3 -27 -17.5 -56t-40 -57.5t-70 -47t-100.5 -18.5zM274 630
l102 150h110l-110 -150h-102z" />
    <glyph glyph-name="Ccaron.sc" horiz-adv-x="619" 
d="M324 -9q-112 0 -180.5 82t-68.5 208t68.5 208t180.5 82q55 0 99 -17.5t70 -45.5t40.5 -57t18.5 -58h-91q-13 34 -46.5 63t-90.5 29q-73 0 -112.5 -58t-39.5 -146t39.5 -146t112.5 -58q58 0 92 29.5t46 63.5h90q-3 -27 -17.5 -56t-40 -57.5t-70 -47t-100.5 -18.5zM491 783
l-129 -156h-78l-132 156h98l74 -87l73 87h94z" />
    <glyph glyph-name="Ccedilla.sc" horiz-adv-x="619" 
d="M446 -156q0 -49 -29 -79t-88 -30h-95v74h84q41 0 41 35q0 34 -41 34h-61v122q-84 23 -133 99t-49 182q0 126 68.5 208t180.5 82q55 0 99 -17.5t70 -45.5t40.5 -57t18.5 -58h-91q-13 34 -46.5 63t-90.5 29q-73 0 -112.5 -58t-39.5 -146t39.5 -146t112.5 -58q58 0 92 29.5
t46 63.5h90q-3 -26 -16.5 -54.5t-38 -56.5t-66.5 -47t-94 -21v-46q54 0 81.5 -27.5t27.5 -73.5z" />
    <glyph glyph-name="Ccircumflex.sc" horiz-adv-x="619" 
d="M324 -9q-112 0 -180.5 82t-68.5 208t68.5 208t180.5 82q55 0 99 -17.5t70 -45.5t40.5 -57t18.5 -58h-91q-13 34 -46.5 63t-90.5 29q-73 0 -112.5 -58t-39.5 -146t39.5 -146t112.5 -58q58 0 92 29.5t46 63.5h90q-3 -27 -17.5 -56t-40 -57.5t-70 -47t-100.5 -18.5zM398 627
l-73 87l-74 -87h-98l132 156h78l129 -156h-94z" />
    <glyph glyph-name="Cdotaccent.sc" horiz-adv-x="619" 
d="M324 -9q-112 0 -180.5 82t-68.5 208t68.5 208t180.5 82q55 0 99 -17.5t70 -45.5t40.5 -57t18.5 -58h-91q-13 34 -46.5 63t-90.5 29q-73 0 -112.5 -58t-39.5 -146t39.5 -146t112.5 -58q58 0 92 29.5t46 63.5h90q-3 -27 -17.5 -56t-40 -57.5t-70 -47t-100.5 -18.5zM277 630
v143h94v-143h-94z" />
    <glyph glyph-name="Dcaron.sc" horiz-adv-x="667" 
d="M113 0v562h192q133 0 211 -75t78 -206q0 -129 -78 -205t-211 -76h-192zM305 478h-99v-394h99q90 0 142 53t52 144q0 93 -51.5 145t-142.5 52zM478 783l-129 -156h-78l-132 156h98l74 -87l73 87h94z" />
    <glyph glyph-name="Eacute.sc" horiz-adv-x="607" 
d="M113 0v562h413v-83h-321v-140h189v-84h-189v-171h350v-84h-442zM267 630l102 150h110l-110 -150h-102z" />
    <glyph glyph-name="Ebreve.sc" horiz-adv-x="607" 
d="M113 0v562h413v-83h-321v-140h189v-84h-189v-171h350v-84h-442zM317 695q32 0 48.5 20.5t16.5 50.5v13h76v-15q0 -62 -37 -101.5t-104 -39.5t-104 39.5t-37 101.5v15h76v-13q0 -30 16.5 -50.5t48.5 -20.5z" />
    <glyph glyph-name="Ecaron.sc" horiz-adv-x="607" 
d="M113 0v562h413v-83h-321v-140h189v-84h-189v-171h350v-84h-442zM484 783l-129 -156h-78l-132 156h98l74 -87l73 87h94z" />
    <glyph glyph-name="Ecircumflex.sc" horiz-adv-x="607" 
d="M113 0v562h413v-83h-321v-140h189v-84h-189v-171h350v-84h-442zM391 627l-73 87l-74 -87h-98l132 156h78l129 -156h-94z" />
    <glyph glyph-name="Edieresis.sc" horiz-adv-x="607" 
d="M113 0v562h413v-83h-321v-140h189v-84h-189v-171h350v-84h-442zM174 630v139h92v-139h-92zM368 630v139h92v-139h-92z" />
    <glyph glyph-name="Edotaccent.sc" horiz-adv-x="607" 
d="M113 0v562h413v-83h-321v-140h189v-84h-189v-171h350v-84h-442zM270 630v143h94v-143h-94z" />
    <glyph glyph-name="Egrave.sc" horiz-adv-x="607" 
d="M113 0v562h413v-83h-321v-140h189v-84h-189v-171h350v-84h-442zM384 630h-102l-109 150h110z" />
    <glyph glyph-name="Emacron.sc" horiz-adv-x="607" 
d="M113 0v562h413v-83h-321v-140h189v-84h-189v-171h350v-84h-442zM475 665h-316v78h316v-78z" />
    <glyph glyph-name="Eogonek.sc" horiz-adv-x="607" 
d="M113 0v562h413v-83h-321v-140h189v-84h-189v-171h350v-84h-90q-27 -25 -36 -33t-24.5 -24t-20.5 -26t-5 -19q0 -30 39 -30h67v-82h-72q-129 0 -129 94q0 24 15.5 47.5t28 34.5t46.5 38h-261z" />
    <glyph glyph-name="Gbreve.sc" horiz-adv-x="663" 
d="M571 63q-80 -73 -219 -73q-126 0 -201.5 81t-75.5 211q0 127 73 208.5t188 81.5q54 0 97.5 -16t69 -40.5t40 -48.5t19.5 -45h-94q-43 66 -132 66q-76 0 -121 -58t-45 -148q0 -94 49 -151t133 -57q85 0 130 31v134h-174v80h263v-256zM336 695q32 0 48.5 20.5t16.5 50.5v13
h76v-15q0 -62 -37 -101.5t-104 -39.5t-104 39.5t-37 101.5v15h76v-13q0 -30 16.5 -50.5t48.5 -20.5z" />
    <glyph glyph-name="Gcircumflex.sc" horiz-adv-x="663" 
d="M571 63q-80 -73 -219 -73q-126 0 -201.5 81t-75.5 211q0 127 73 208.5t188 81.5q54 0 97.5 -16t69 -40.5t40 -48.5t19.5 -45h-94q-43 66 -132 66q-76 0 -121 -58t-45 -148q0 -94 49 -151t133 -57q85 0 130 31v134h-174v80h263v-256zM410 627l-73 87l-74 -87h-98l132 156
h78l129 -156h-94z" />
    <glyph glyph-name="Gcommaaccent.sc" horiz-adv-x="663" 
d="M571 63q-80 -73 -219 -73q-126 0 -201.5 81t-75.5 211q0 127 73 208.5t188 81.5q54 0 97.5 -16t69 -40.5t40 -48.5t19.5 -45h-94q-43 66 -132 66q-76 0 -121 -58t-45 -148q0 -94 49 -151t133 -57q85 0 130 31v134h-174v80h263v-256zM386 -325h-67q35 65 35 115h-52v115
h112v-98q0 -68 -28 -132z" />
    <glyph glyph-name="Gdotaccent.sc" horiz-adv-x="663" 
d="M571 63q-80 -73 -219 -73q-126 0 -201.5 81t-75.5 211q0 127 73 208.5t188 81.5q54 0 97.5 -16t69 -40.5t40 -48.5t19.5 -45h-94q-43 66 -132 66q-76 0 -121 -58t-45 -148q0 -94 49 -151t133 -57q85 0 130 31v134h-174v80h263v-256zM289 630v143h94v-143h-94z" />
    <glyph glyph-name="Hbar.sc" horiz-adv-x="702" 
d="M39 407v68h74v87h93v-87h290v87h93v-87h74v-68h-74v-407h-93v240h-290v-240h-93v407h-74zM206 325h290v82h-290v-82z" />
    <glyph glyph-name="Hcircumflex.sc" horiz-adv-x="702" 
d="M496 0v240h-290v-240h-93v562h93v-237h290v237h93v-562h-93zM425 627l-73 87l-74 -87h-98l132 156h78l129 -156h-94z" />
    <glyph glyph-name="Iacute.sc" horiz-adv-x="321" 
d="M114 0v562h93v-562h-93zM110 630l102 150h110l-110 -150h-102z" />
    <glyph glyph-name="Ibreve.sc" horiz-adv-x="321" 
d="M114 0v562h93v-562h-93zM160 695q32 0 48.5 20.5t16.5 50.5v13h76v-15q0 -62 -37 -101.5t-104 -39.5t-104 39.5t-37 101.5v15h76v-13q0 -30 16.5 -50.5t48.5 -20.5z" />
    <glyph glyph-name="Icircumflex.sc" horiz-adv-x="321" 
d="M114 0v562h93v-562h-93zM234 627l-73 87l-74 -87h-98l132 156h78l129 -156h-94z" />
    <glyph glyph-name="Idieresis.sc" horiz-adv-x="321" 
d="M114 0v562h93v-562h-93zM17 630v139h92v-139h-92zM211 630v139h92v-139h-92z" />
    <glyph glyph-name="Idotaccent.sc" horiz-adv-x="321" 
d="M114 0v562h93v-562h-93zM113 630v143h94v-143h-94z" />
    <glyph glyph-name="Igrave.sc" horiz-adv-x="321" 
d="M114 0v562h93v-562h-93zM211 630h-102l-109 150h110z" />
    <glyph glyph-name="Imacron.sc" horiz-adv-x="321" 
d="M114 0v562h93v-562h-93zM318 665h-316v78h316v-78z" />
    <glyph glyph-name="Iogonek.sc" horiz-adv-x="321" 
d="M227 -132v-82h-72q-129 0 -129 94q0 32 20 57t60 57q5 4 8 6v562h93v-562q-27 -25 -36 -33t-24.5 -24t-20.5 -26t-5 -19q0 -30 39 -30h67z" />
    <glyph glyph-name="Itilde.sc" horiz-adv-x="321" 
d="M114 0v562h93v-562h-93zM156 668l-36 22q-23 15 -34 15q-17 0 -17 -24v-56h-73v66q0 94 77 94q8 0 17 -2t15 -3.5t15.5 -6.5t13.5 -7.5t15.5 -9.5t14.5 -9l36 -22q26 -15 34 -15q17 0 17 24v56h73v-66q0 -94 -77 -94q-10 0 -19 1.5t-20.5 7t-15.5 7.5t-19 11.5t-17 10.5z
" />
    <glyph glyph-name="Jcircumflex.sc" horiz-adv-x="568" 
d="M458 173q0 -87 -49.5 -134.5t-134.5 -47.5q-84 0 -132.5 47t-48.5 135v160h91v-157q0 -46 23.5 -72.5t66.5 -26.5t66.5 26.5t23.5 72.5v386h94v-389zM485 627l-73 87l-74 -87h-98l132 156h78l129 -156h-94z" />
    <glyph glyph-name="Kcommaaccent.sc" horiz-adv-x="616" 
d="M477 0l-271 257v-257h-93v562h93v-253l261 253h122l-283 -274l298 -288h-127zM365 -325h-67q35 65 35 115h-52v115h112v-98q0 -68 -28 -132z" />
    <glyph glyph-name="Lacute.sc" horiz-adv-x="582" 
d="M535 87v-87h-422v562h93v-475h329zM112 630l102 150h110l-110 -150h-102z" />
    <glyph glyph-name="Lcaron.sc" horiz-adv-x="582" 
d="M268 427l49 193h87l-56 -193h-80zM535 87v-87h-422v562h93v-475h329z" />
    <glyph glyph-name="Lcommaaccent.sc" horiz-adv-x="582" 
d="M535 87v-87h-422v562h93v-475h329zM355 -325h-67q35 65 35 115h-52v115h112v-98q0 -68 -28 -132z" />
    <glyph glyph-name="Ldot.sc" horiz-adv-x="582" 
d="M535 87v-87h-422v562h93v-475h329zM393 256v142h116v-142h-116z" />
    <glyph glyph-name="Lslash.sc" horiz-adv-x="582" 
d="M535 87v-87h-422v176l-81 -41v81l81 42v304h93v-256l203 105v-84l-203 -103v-137h329z" />
    <glyph glyph-name="Nacute.sc" horiz-adv-x="705" 
d="M592 562v-566h-72l-317 443v-439h-90v562h108l282 -400v400h89zM310 630l102 150h110l-110 -150h-102z" />
    <glyph glyph-name="Ncaron.sc" horiz-adv-x="705" 
d="M592 562v-566h-72l-317 443v-439h-90v562h108l282 -400v400h89zM527 783l-129 -156h-78l-132 156h98l74 -87l73 87h94z" />
    <glyph glyph-name="Ncommaaccent.sc" horiz-adv-x="705" 
d="M592 562v-566h-72l-317 443v-439h-90v562h108l282 -400v400h89zM390 -325h-67q35 65 35 115h-52v115h112v-98q0 -68 -28 -132z" />
    <glyph glyph-name="Ntilde.sc" horiz-adv-x="705" 
d="M592 562v-566h-72l-317 443v-439h-90v562h108l282 -400v400h89zM356 668l-36 22q-23 15 -34 15q-17 0 -17 -24v-56h-73v66q0 94 77 94q8 0 17 -2t15 -3.5t15.5 -6.5t13.5 -7.5t15.5 -9.5t14.5 -9l36 -22q26 -15 34 -15q17 0 17 24v56h73v-66q0 -94 -77 -94q-10 0 -19 1.5
t-20.5 7t-15.5 7.5t-19 11.5t-17 10.5z" />
    <glyph glyph-name="Oacute.sc" horiz-adv-x="664" 
d="M332 -9q-116 0 -186.5 80.5t-70.5 209.5q0 128 71 209t186 81q114 0 185.5 -81t71.5 -209q0 -127 -71.5 -208.5t-185.5 -81.5zM332 76q76 0 118.5 58t42.5 147t-43 147t-118 58q-76 0 -119 -58t-43 -147q0 -90 43 -147.5t119 -57.5zM282 630l102 150h110l-110 -150h-102z
" />
    <glyph glyph-name="Obreve.sc" horiz-adv-x="664" 
d="M332 -9q-116 0 -186.5 80.5t-70.5 209.5q0 128 71 209t186 81q114 0 185.5 -81t71.5 -209q0 -127 -71.5 -208.5t-185.5 -81.5zM332 76q76 0 118.5 58t42.5 147t-43 147t-118 58q-76 0 -119 -58t-43 -147q0 -90 43 -147.5t119 -57.5zM332 695q32 0 48.5 20.5t16.5 50.5v13
h76v-15q0 -62 -37 -101.5t-104 -39.5t-104 39.5t-37 101.5v15h76v-13q0 -30 16.5 -50.5t48.5 -20.5z" />
    <glyph glyph-name="Ocircumflex.sc" horiz-adv-x="664" 
d="M332 -9q-116 0 -186.5 80.5t-70.5 209.5q0 128 71 209t186 81q114 0 185.5 -81t71.5 -209q0 -127 -71.5 -208.5t-185.5 -81.5zM332 76q76 0 118.5 58t42.5 147t-43 147t-118 58q-76 0 -119 -58t-43 -147q0 -90 43 -147.5t119 -57.5zM406 627l-73 87l-74 -87h-98l132 156
h78l129 -156h-94z" />
    <glyph glyph-name="Odieresis.sc" horiz-adv-x="664" 
d="M332 -9q-116 0 -186.5 80.5t-70.5 209.5q0 128 71 209t186 81q114 0 185.5 -81t71.5 -209q0 -127 -71.5 -208.5t-185.5 -81.5zM332 76q76 0 118.5 58t42.5 147t-43 147t-118 58q-76 0 -119 -58t-43 -147q0 -90 43 -147.5t119 -57.5zM189 630v139h92v-139h-92zM383 630
v139h92v-139h-92z" />
    <glyph glyph-name="Ograve.sc" horiz-adv-x="664" 
d="M332 -9q-116 0 -186.5 80.5t-70.5 209.5q0 128 71 209t186 81q114 0 185.5 -81t71.5 -209q0 -127 -71.5 -208.5t-185.5 -81.5zM332 76q76 0 118.5 58t42.5 147t-43 147t-118 58q-76 0 -119 -58t-43 -147q0 -90 43 -147.5t119 -57.5zM383 630h-102l-109 150h110z" />
    <glyph glyph-name="Ohungarumlaut.sc" horiz-adv-x="664" 
d="M332 -9q-116 0 -186.5 80.5t-70.5 209.5q0 128 71 209t186 81q114 0 185.5 -81t71.5 -209q0 -127 -71.5 -208.5t-185.5 -81.5zM332 76q76 0 118.5 58t42.5 147t-43 147t-118 58q-76 0 -119 -58t-43 -147q0 -90 43 -147.5t119 -57.5zM373 630l78 150h92l-85 -150h-85z
M199 630l78 150h92l-85 -150h-85z" />
    <glyph glyph-name="Omacron.sc" horiz-adv-x="664" 
d="M332 -9q-116 0 -186.5 80.5t-70.5 209.5q0 128 71 209t186 81q114 0 185.5 -81t71.5 -209q0 -127 -71.5 -208.5t-185.5 -81.5zM332 76q76 0 118.5 58t42.5 147t-43 147t-118 58q-76 0 -119 -58t-43 -147q0 -90 43 -147.5t119 -57.5zM490 665h-316v78h316v-78z" />
    <glyph glyph-name="Otilde.sc" horiz-adv-x="664" 
d="M332 -9q-116 0 -186.5 80.5t-70.5 209.5q0 128 71 209t186 81q114 0 185.5 -81t71.5 -209q0 -127 -71.5 -208.5t-185.5 -81.5zM332 76q76 0 118.5 58t42.5 147t-43 147t-118 58q-76 0 -119 -58t-43 -147q0 -90 43 -147.5t119 -57.5zM328 668l-36 22q-23 15 -34 15
q-17 0 -17 -24v-56h-73v66q0 94 77 94q8 0 17 -2t15 -3.5t15.5 -6.5t13.5 -7.5t15.5 -9.5t14.5 -9l36 -22q26 -15 34 -15q17 0 17 24v56h73v-66q0 -94 -77 -94q-10 0 -19 1.5t-20.5 7t-15.5 7.5t-19 11.5t-17 10.5z" />
    <glyph glyph-name="Oslashacute.sc" horiz-adv-x="664" 
d="M589 281q0 -127 -71.5 -208.5t-185.5 -81.5q-83 0 -146 44l-28 -35h-96l70 90q-57 75 -57 191q0 128 71 209t186 81q80 0 144 -44l27 35h98l-70 -89q58 -78 58 -192zM168 281q0 -69 23 -118l231 298q-37 26 -90 26q-76 0 -120 -58.5t-44 -147.5zM495 281q0 69 -23 118
l-233 -296q39 -28 93 -28q76 0 119.5 58t43.5 148zM282 630l102 150h110l-110 -150h-102z" />
    <glyph glyph-name="Racute.sc" 
d="M113 0v562h263q90 0 139 -41t49 -119q0 -121 -116 -151l144 -251h-100l-141 243h-145v-243h-93zM372 478h-166v-153h166q96 0 96 77q0 76 -96 76zM268 630l102 150h110l-110 -150h-102z" />
    <glyph glyph-name="Rcaron.sc" 
d="M113 0v562h263q90 0 139 -41t49 -119q0 -121 -116 -151l144 -251h-100l-141 243h-145v-243h-93zM372 478h-166v-153h166q96 0 96 77q0 76 -96 76zM485 783l-129 -156h-78l-132 156h98l74 -87l73 87h94z" />
    <glyph glyph-name="Rcommaaccent.sc" 
d="M113 0v562h263q90 0 139 -41t49 -119q0 -121 -116 -151l144 -251h-100l-141 243h-145v-243h-93zM372 478h-166v-153h166q96 0 96 77q0 76 -96 76zM367 -325h-67q35 65 35 115h-52v115h112v-98q0 -68 -28 -132z" />
    <glyph glyph-name="Sacute.sc" horiz-adv-x="601" 
d="M283 490q-52 0 -82 -20t-30 -54t25 -50.5t72 -24.5l70 -10q88 -13 139 -50.5t51 -117.5q0 -76 -57.5 -124.5t-156.5 -48.5q-113 0 -175.5 50t-80.5 119h99q12 -34 51 -60.5t106 -26.5q55 0 87.5 23.5t32.5 61.5q0 39 -27 57.5t-76 26.5l-70 10q-88 13 -136 50.5
t-48 112.5q0 72 57.5 115t148.5 43q104 0 161 -44t71 -105h-96q-37 67 -136 67zM243 630l102 150h110l-110 -150h-102z" />
    <glyph glyph-name="Scaron.sc" horiz-adv-x="601" 
d="M283 490q-52 0 -82 -20t-30 -54t25 -50.5t72 -24.5l70 -10q88 -13 139 -50.5t51 -117.5q0 -76 -57.5 -124.5t-156.5 -48.5q-113 0 -175.5 50t-80.5 119h99q12 -34 51 -60.5t106 -26.5q55 0 87.5 23.5t32.5 61.5q0 39 -27 57.5t-76 26.5l-70 10q-88 13 -136 50.5
t-48 112.5q0 72 57.5 115t148.5 43q104 0 161 -44t71 -105h-96q-37 67 -136 67zM460 783l-129 -156h-78l-132 156h98l74 -87l73 87h94z" />
    <glyph glyph-name="Scedilla.sc" horiz-adv-x="601" 
d="M283 490q-52 0 -82 -20t-30 -54t25 -50.5t72 -24.5l70 -10q88 -13 139 -50.5t51 -117.5q0 -76 -57.5 -124.5t-156.5 -48.5h-8v-45q54 0 81.5 -27.5t27.5 -73.5q0 -49 -29 -79t-88 -30h-95v74h84q41 0 41 35q0 34 -41 34h-61v122q-72 18 -113 61.5t-55 97.5h99
q12 -34 51 -60.5t106 -26.5q55 0 87.5 23.5t32.5 61.5q0 39 -27 57.5t-76 26.5l-70 10q-88 13 -136 50.5t-48 112.5q0 72 57.5 115t148.5 43q104 0 161 -44t71 -105h-96q-37 67 -136 67z" />
    <glyph glyph-name="Scircumflex.sc" horiz-adv-x="601" 
d="M283 490q-52 0 -82 -20t-30 -54t25 -50.5t72 -24.5l70 -10q88 -13 139 -50.5t51 -117.5q0 -76 -57.5 -124.5t-156.5 -48.5q-113 0 -175.5 50t-80.5 119h99q12 -34 51 -60.5t106 -26.5q55 0 87.5 23.5t32.5 61.5q0 39 -27 57.5t-76 26.5l-70 10q-88 13 -136 50.5
t-48 112.5q0 72 57.5 115t148.5 43q104 0 161 -44t71 -105h-96q-37 67 -136 67zM367 627l-73 87l-74 -87h-98l132 156h78l129 -156h-94z" />
    <glyph glyph-name="Scommaaccent.sc" horiz-adv-x="601" 
d="M283 490q-52 0 -82 -20t-30 -54t25 -50.5t72 -24.5l70 -10q88 -13 139 -50.5t51 -117.5q0 -76 -57.5 -124.5t-156.5 -48.5q-113 0 -175.5 50t-80.5 119h99q12 -34 51 -60.5t106 -26.5q55 0 87.5 23.5t32.5 61.5q0 39 -27 57.5t-76 26.5l-70 10q-88 13 -136 50.5
t-48 112.5q0 72 57.5 115t148.5 43q104 0 161 -44t71 -105h-96q-37 67 -136 67zM343 -325h-67q35 65 35 115h-52v115h112v-98q0 -68 -28 -132z" />
    <glyph glyph-name="Tcaron.sc" horiz-adv-x="606" 
d="M47 477v85h512v-85h-209v-477h-93v477h-210zM470 783l-129 -156h-78l-132 156h98l74 -87l73 87h94z" />
    <glyph glyph-name="Tcommaaccent.sc" horiz-adv-x="606" 
d="M47 477v85h512v-85h-209v-477h-93v477h-210zM333 -325h-67q35 65 35 115h-52v115h112v-98q0 -68 -28 -132z" />
    <glyph glyph-name="uni021A.sc" horiz-adv-x="606" 
d="M47 477v85h512v-85h-209v-477h-93v477h-210zM333 -325h-67q35 65 35 115h-52v115h112v-98q0 -68 -28 -132z" />
    <glyph glyph-name="Tbar.sc" horiz-adv-x="606" 
d="M47 477v85h512v-85h-209v-145h141v-78h-141v-254h-93v254h-141v78h141v145h-210z" />
    <glyph glyph-name="Thorn.sc" horiz-adv-x="627" 
d="M375 125h-169v-125h-93v562h93v-111h170q92 0 140 -42t48 -120q0 -77 -48.5 -120.5t-140.5 -43.5zM374 366h-168v-156h168q46 0 70 21t24 57q0 78 -94 78z" />
    <glyph glyph-name="Uacute.sc" horiz-adv-x="691" 
d="M346 78q66 0 104 41t38 107v336h93v-343q0 -98 -62 -163.5t-173 -65.5q-115 0 -175.5 64t-60.5 165v343h93v-336q0 -67 37 -107.5t106 -40.5zM287 630l102 150h110l-110 -150h-102z" />
    <glyph glyph-name="Ubreve.sc" horiz-adv-x="691" 
d="M346 78q66 0 104 41t38 107v336h93v-343q0 -98 -62 -163.5t-173 -65.5q-115 0 -175.5 64t-60.5 165v343h93v-336q0 -67 37 -107.5t106 -40.5zM346 695q32 0 48.5 20.5t16.5 50.5v13h76v-15q0 -62 -37 -101.5t-104 -39.5t-104 39.5t-37 101.5v15h76v-13q0 -30 16.5 -50.5
t48.5 -20.5z" />
    <glyph glyph-name="Ucircumflex.sc" horiz-adv-x="691" 
d="M346 78q66 0 104 41t38 107v336h93v-343q0 -98 -62 -163.5t-173 -65.5q-115 0 -175.5 64t-60.5 165v343h93v-336q0 -67 37 -107.5t106 -40.5zM420 627l-73 87l-74 -87h-98l132 156h78l129 -156h-94z" />
    <glyph glyph-name="Udieresis.sc" horiz-adv-x="691" 
d="M346 78q66 0 104 41t38 107v336h93v-343q0 -98 -62 -163.5t-173 -65.5q-115 0 -175.5 64t-60.5 165v343h93v-336q0 -67 37 -107.5t106 -40.5zM203 630v139h92v-139h-92zM397 630v139h92v-139h-92z" />
    <glyph glyph-name="Ugrave.sc" horiz-adv-x="691" 
d="M346 78q66 0 104 41t38 107v336h93v-343q0 -98 -62 -163.5t-173 -65.5q-115 0 -175.5 64t-60.5 165v343h93v-336q0 -67 37 -107.5t106 -40.5zM404 630h-102l-109 150h110z" />
    <glyph glyph-name="Uhungarumlaut.sc" horiz-adv-x="691" 
d="M346 78q66 0 104 41t38 107v336h93v-343q0 -98 -62 -163.5t-173 -65.5q-115 0 -175.5 64t-60.5 165v343h93v-336q0 -67 37 -107.5t106 -40.5zM385 630l78 150h92l-85 -150h-85zM211 630l78 150h92l-85 -150h-85z" />
    <glyph glyph-name="Umacron.sc" horiz-adv-x="691" 
d="M346 78q66 0 104 41t38 107v336h93v-343q0 -98 -62 -163.5t-173 -65.5q-115 0 -175.5 64t-60.5 165v343h93v-336q0 -67 37 -107.5t106 -40.5zM504 665h-316v78h316v-78z" />
    <glyph glyph-name="Uogonek.sc" horiz-adv-x="691" 
d="M493 -132v-82h-72q-129 0 -129 94q0 32 22 57.5t62 53.5q-10 -1 -30 -1q-115 0 -175.5 64t-60.5 165v343h93v-336q0 -67 37 -107.5t106 -40.5q66 0 104 41t38 107v336h93v-343q0 -117 -100 -207q-35 -31 -51 -46.5t-29.5 -34.5t-13.5 -33q0 -30 39 -30h67z" />
    <glyph glyph-name="Uring.sc" horiz-adv-x="691" 
d="M346 78q66 0 104 41t38 107v336h93v-343q0 -98 -62 -163.5t-173 -65.5q-115 0 -175.5 64t-60.5 165v343h93v-336q0 -67 37 -107.5t106 -40.5zM346 620q-55 0 -91.5 36t-36.5 89q0 54 36.5 90.5t91.5 36.5t91.5 -36.5t36.5 -90.5q0 -53 -36.5 -89t-91.5 -36zM346 681
q27 0 44.5 18.5t17.5 45.5q0 28 -17 46t-45 18t-45 -18t-17 -46q0 -27 17.5 -45.5t44.5 -18.5z" />
    <glyph glyph-name="Utilde.sc" horiz-adv-x="691" 
d="M346 78q66 0 104 41t38 107v336h93v-343q0 -98 -62 -163.5t-173 -65.5q-115 0 -175.5 64t-60.5 165v343h93v-336q0 -67 37 -107.5t106 -40.5zM342 668l-36 22q-23 15 -34 15q-17 0 -17 -24v-56h-73v66q0 94 77 94q8 0 17 -2t15 -3.5t15.5 -6.5t13.5 -7.5t15.5 -9.5
t14.5 -9l36 -22q26 -15 34 -15q17 0 17 24v56h73v-66q0 -94 -77 -94q-10 0 -19 1.5t-20.5 7t-15.5 7.5t-19 11.5t-17 10.5z" />
    <glyph glyph-name="Wacute.sc" horiz-adv-x="865" 
d="M564 -3l-130 420l-131 -420h-80l-172 565h98l121 -412l125 415h84l127 -420l120 417h88l-165 -565h-85zM384 630l102 150h110l-110 -150h-102z" />
    <glyph glyph-name="Wcircumflex.sc" horiz-adv-x="865" 
d="M564 -3l-130 420l-131 -420h-80l-172 565h98l121 -412l125 415h84l127 -420l120 417h88l-165 -565h-85zM508 627l-73 87l-74 -87h-98l132 156h78l129 -156h-94z" />
    <glyph glyph-name="Wdieresis.sc" horiz-adv-x="865" 
d="M564 -3l-130 420l-131 -420h-80l-172 565h98l121 -412l125 415h84l127 -420l120 417h88l-165 -565h-85zM291 630v139h92v-139h-92zM485 630v139h92v-139h-92z" />
    <glyph glyph-name="Wgrave.sc" horiz-adv-x="865" 
d="M564 -3l-130 420l-131 -420h-80l-172 565h98l121 -412l125 415h84l127 -420l120 417h88l-165 -565h-85zM485 630h-102l-109 150h110z" />
    <glyph glyph-name="Yacute.sc" horiz-adv-x="585" 
d="M343 226v-226h-95v227l-222 335h115l157 -241l157 241h104zM239 630l102 150h110l-110 -150h-102z" />
    <glyph glyph-name="Ycircumflex.sc" horiz-adv-x="585" 
d="M343 226v-226h-95v227l-222 335h115l157 -241l157 241h104zM372 627l-73 87l-74 -87h-98l132 156h78l129 -156h-94z" />
    <glyph glyph-name="Ydieresis.sc" horiz-adv-x="585" 
d="M343 226v-226h-95v227l-222 335h115l157 -241l157 241h104zM155 630v139h92v-139h-92zM349 630v139h92v-139h-92z" />
    <glyph glyph-name="Ygrave.sc" horiz-adv-x="585" 
d="M343 226v-226h-95v227l-222 335h115l157 -241l157 241h104zM357 630h-102l-109 150h110z" />
    <glyph glyph-name="Zacute.sc" horiz-adv-x="614" 
d="M557 86v-86h-490v54l320 424h-313v84h450v-54l-321 -422h354zM237 630l102 150h110l-110 -150h-102z" />
    <glyph glyph-name="Zcaron.sc" horiz-adv-x="614" 
d="M557 86v-86h-490v54l320 424h-313v84h450v-54l-321 -422h354zM461 783l-129 -156h-78l-132 156h98l74 -87l73 87h94z" />
    <glyph glyph-name="Zdotaccent.sc" horiz-adv-x="614" 
d="M557 86v-86h-490v54l320 424h-313v84h450v-54l-321 -422h354zM247 630v143h94v-143h-94z" />
    <glyph glyph-name="germandbls.sc" horiz-adv-x="1202" 
d="M283 490q-52 0 -82 -20t-30 -54t25 -50.5t72 -24.5l70 -10q88 -13 139 -50.5t51 -117.5q0 -76 -57.5 -124.5t-156.5 -48.5q-113 0 -175.5 50t-80.5 119h99q12 -34 51 -60.5t106 -26.5q55 0 87.5 23.5t32.5 61.5q0 39 -27 57.5t-76 26.5l-70 10q-88 13 -136 50.5
t-48 112.5q0 72 57.5 115t148.5 43q104 0 161 -44t71 -105h-96q-37 67 -136 67zM884 490q-52 0 -82 -20t-30 -54t25 -50.5t72 -24.5l70 -10q88 -13 139 -50.5t51 -117.5q0 -76 -57.5 -124.5t-156.5 -48.5q-113 0 -175.5 50t-80.5 119h99q12 -34 51 -60.5t106 -26.5
q55 0 87.5 23.5t32.5 61.5q0 39 -27 57.5t-76 26.5l-70 10q-88 13 -136 50.5t-48 112.5q0 72 57.5 115t148.5 43q104 0 161 -44t71 -105h-96q-37 67 -136 67z" />
    <glyph glyph-name="napostrophe.sc" horiz-adv-x="933" 
d="M820 562v-566h-72l-317 443v-439h-90v562h108l282 -400v400h89zM136 404h-71q61 115 61 202h-55v130h116v-120q0 -114 -51 -212z" />
    <glyph glyph-name="f.short" horiz-adv-x="452" 
d="M421 412h-170v-412h-91v412h-129v82h129v78q0 164 175 164h118v-82h-108q-94 0 -94 -95v-65h170v-82z" />
    <glyph glyph-name="f_f.short" horiz-adv-x="789" 
d="M497 0v412h-246v-412h-91v412h-129v82h129v78q0 164 175 164h96v-82h-86q-94 0 -94 -95v-65h246v78q0 164 175 164h118v-82h-108q-94 0 -94 -95v-65h170v-82h-170v-412h-91z" />
    <glyph glyph-name="four.denalt" horiz-adv-x="488" 
d="M449 122h-84v-122h-84v122h-201v304h84v-231h117v174h84v-174h84v-73z" />
    <glyph glyph-name="four.numalt" horiz-adv-x="488" 
d="M449 397h-84v-122h-84v122h-201v304h84v-231h117v174h84v-174h84v-73z" />
    <glyph glyph-name="four.oldalt" horiz-adv-x="676" 
d="M638 82h-136v-230h-97v230h-290v480h96v-393h194v298h97v-298h136v-87z" />
    <glyph glyph-name="four.subalt" horiz-adv-x="543" 
d="M499 20h-106v-144h-84v144h-223v350h83v-273h140v208h84v-208h106v-77z" />
    <glyph glyph-name="four.supalt" horiz-adv-x="543" 
d="M499 385h-106v-144h-84v144h-223v350h83v-273h140v208h84v-208h106v-77z" />
    <glyph glyph-name="four.tabalt" 
d="M610 223h-130v-223h-96v223h-292v487h96v-400h196v295h96v-295h130v-87z" />
    <glyph glyph-name="j.short" horiz-adv-x="278" 
d="M92 589v143h95v-143h-95zM185 -48q0 -166 -163 -166h-78v85h63q87 0 87 91v532h91v-542z" />
    <glyph glyph-name="ringacute" horiz-adv-x="600" 
d="M257 858l89 150h96l-96 -150h-89zM300 567q-55 0 -91.5 36t-36.5 89q0 54 36.5 90.5t91.5 36.5t91.5 -36.5t36.5 -90.5q0 -53 -36.5 -89t-91.5 -36zM300 628q27 0 44.5 18.5t17.5 45.5q0 28 -17 46t-45 18t-45 -18t-17 -46q0 -27 17.5 -45.5t44.5 -18.5z" />
    <glyph glyph-name="ringacute.uc" horiz-adv-x="600" 
d="M260 1059l92 140h102l-100 -140h-94zM300 768q-55 0 -91.5 36t-36.5 89q0 54 36.5 90.5t91.5 36.5t91.5 -36.5t36.5 -90.5q0 -53 -36.5 -89t-91.5 -36zM300 829q27 0 44.5 18.5t17.5 45.5q0 28 -17 46t-45 18t-45 -18t-17 -46q0 -27 17.5 -45.5t44.5 -18.5z" />
    <glyph glyph-name="uni01FA.sc" horiz-adv-x="627" 
d="M490 0l-50 124h-258l-50 -124h-93l230 565h90l229 -565h-98zM215 206h192l-96 240zM272 911l92 140h102l-100 -140h-94zM312 620q-55 0 -91.5 36t-36.5 89q0 54 36.5 90.5t91.5 36.5t91.5 -36.5t36.5 -90.5q0 -53 -36.5 -89t-91.5 -36zM312 681q27 0 44.5 18.5t17.5 45.5
q0 28 -17 46t-45 18t-45 -18t-17 -46q0 -27 17.5 -45.5t44.5 -18.5z" />
    </font>
</defs>
</svg>
